<?xml version="1.0" encoding="UTF-8"?>
<svg width="211.78mm" height="64.773mm" version="1.1" viewBox="0 0 211.78 64.773" xml:space="preserve" xmlns="http://www.w3.org/2000/svg"><g transform="translate(.19261 -37.504)"><g fill="#fff" fill-rule="evenodd" stroke-width="3.5"><path transform="translate(.12148 -44.739)" d="m68.025 86.779-1.1956-0.78397-0.74477 0.82317-0.1764 0.82317-0.1372 0.70558-0.0784 0.94076-0.41159 0.58798-0.21559 0.41159-0.39198 0.74477-0.21559 0.56838-0.31359 0.1176-0.25479-0.0196-0.0392-0.68598-0.25479-0.31359-0.37238-0.29399-0.29399 0.098 0.01961 0.25479 0.1568 0.39198-0.0392 0.31359-0.23519 0.13719-0.27439-0.11759-0.39199-0.68597-0.29399-0.0588-0.17639 0.31359v0.27439l-0.1764 0.52918-0.31359 0.01961-0.21559-0.13719-0.01961-0.39199-0.23519-0.29399-0.25479-0.39198-0.29399-0.68598h-0.31359l-0.13719 0.33319-0.0392 0.50958h-0.21559l-0.41159-0.64677-0.25479 0.0784-0.0784 0.54878-0.0392 0.25479-0.33319-0.0784-1.6071-1.0388-0.25479 0.23519 0.0588 1.078-0.62718 0.0196-0.54878 0.25479-1.6659 1.7051-0.1764 0.48998-0.80357 0.45078-0.64678 0.48998-1.1172 0.31359-0.28563 7.2327 19.441-0.0659z" style="paint-order:markers stroke fill"/><path transform="translate(.12148 -44.739)" d="m53.52 94.341-1.9703 0.64035-0.78812 0.19703-1.527-0.49258-0.54184-0.39406-0.98515-0.98515-0.78812-0.73886-1.0344-0.54183-0.54183-0.24629-0.49258-0.78812-0.59109-0.68961-1.1822-0.59109-0.93589-0.3448-0.3448-0.93589-1.1329-1.0837-1.33-0.73886-1.4285-1.0344-0.78812-1.0344-0.49258-0.39406-0.98515-0.3448h-0.88664l-0.6896 0.14777-0.29554 0.44332 0.14777 0.6896v0.64035l-0.3448 0.59109-0.04926 0.68961-0.04926 0.64035-0.54183 0.19703-0.59109 0.6896-0.3448 0.39406-0.29554 0.6896h-0.98515l-1.0344-1.2314-0.29554-0.04926-0.19703 0.24629v0.59109l-0.29554-0.04926-0.14777-0.83738-0.29554-0.6896-0.39406-0.49258-0.3448-0.44332-0.3448-0.49258-0.3448-0.44332-0.6896-0.73886-0.39406-0.39406-0.19703-0.3448-0.88664-0.3448-0.64035 0.54184-0.39406 0.59109-0.39406 0.39406-0.3448 0.54183-0.24629 0.59109-0.04926 0.44332-0.14777 1.2807-0.59109 0.04926v2.0196l-0.24629-0.04926-0.3448-0.19703-0.19703-0.59109-0.29554-0.98515-0.39406 0.68961-0.54183-0.19703-0.73886-0.54184h-0.44332l-0.09851 0.64035-0.29555 1.7733-0.29554 1.1329-0.54183 0.6896-0.49258 0.98515-1.0344 0.29554-0.29555 0.59109-0.54183 0.54183-0.78812-0.39406-0.49258-0.39406-0.78812-0.04926-0.49258-0.3448-0.59109-0.44332-0.44332-0.19703h-0.83738l-0.83738 0.14777-0.59109 0.04926-0.44332 0.78812-0.64035 0.19703-0.24629 0.59109-1.2807 0.49258-1.2314 0.39406-2.1673 0.49258-3.5465-0.09851 0.049258 19.949 54.824-0.49258z" style="paint-order:markers stroke fill"/><path transform="translate(.12148 -44.739)" d="m0.071136 98.285 67.799 1.1557 0.19261-4.6227 23.499-0.38522 0.19261-3.467 24.847-0.38522 1.3483 6.7414 71.844 0.38522 5.2005 1.9261 16.179-0.19261 0.19262 47.575h-211.68z" style="paint-order:markers stroke fill"/><path d="m211.59 53.332-5.3952 0.18604-0.37208-1.3643-2.3565 1.7984-5.8293 0.18604-2.6666-4.217-0.62014-0.12403-0.55812 0.06201-0.49612 0.49612-0.37208 0.68215-0.31007 0.18604-0.62014-0.74417-0.80619-1.3643-0.49611 0.37208-1.0542-0.37208-1.3643-2.2325-0.80618-0.80618-0.74417-0.12403-0.37208 0.24806-0.99223-0.74417-0.80618-0.4341h-0.37209l-0.24805 1.1163-0.8682 0.31007-0.24806 0.24806-0.18604 0.31007-0.24805 0.31007-0.18605 0.31007-0.37208-0.4341-0.31007-0.37209h-0.24806l-0.31007 0.06201-0.24805 0.24806-0.24806 0.24806-0.31007 0.24805-0.18604 0.12403-0.68216-0.18604-0.24806 0.8682-0.62014 0.49612-0.24805 0.4341-0.12403 0.4341-0.24806 0.74417-0.062 0.37208-0.18604 1.0542-0.31007 1.6744-0.74417 0.8682-0.93021 0.93021 36.03 0.18604z" style="paint-order:markers stroke fill"/><path d="m179.78 51.658-1.7984-2.0465-0.93021-1.9845-0.8682-1.9844-0.68216-1.3023-0.4341-1.4263-2.4185 0.12403-1.3643-1.4263h-0.43409l-0.31007 0.8682-0.74417-0.18604-0.31007 0.74417v0.37209l0.24805 0.74417-0.18604 0.12403-0.55812-0.24806-0.37209 0.24806-0.49611 0.37208-1.3023-1.1163h-0.68215l-1.0542-1.2403-0.12403-0.93021-1.1783-0.24806v1.3643l-0.4341 0.80618-0.8682 1.4263h-0.37208l0.062-1.6124-0.55812-0.74417-0.31007-0.12403-0.12403 0.4341-0.62014-0.12403-0.49611-0.62014-0.24806-0.06201-0.062 0.99222-0.31007 0.8682-0.18605 0.62014-0.24805 0.31007-0.18605 0.62014v0.93021l-0.93021 0.12403-1.1162 1.9224-0.37208-0.06201-0.93022-1.4263-0.31007-0.06202-0.12402-0.68215-0.37209 0.06201-0.18604 0.62014-0.68216 0.4341-0.37208 0.06202-0.80618-0.4341-0.68216-0.80618-0.24805-0.31007-0.49612-0.06201-1.4883-0.37208-0.68215-0.31007-0.49611-0.37208-0.37209-0.37209-1.1162-0.49611-1.1162-0.31007-0.37209-0.8682-0.80618-0.12403-0.37209 0.24805-0.43409-0.18604-0.18605-0.74417h-0.55812v0.4341l-0.8682 0.06202-0.55813 0.68215-0.74417-0.37208-0.4341 0.80618h-1.1783l-0.62014-0.49611-0.31007-0.18604h-0.68216l-0.18604 0.24806-0.24806 0.31007-0.12403 0.49611h-0.86819l-0.062-0.49611-0.4341-0.12403-0.18604 0.31007h-0.4341l-0.062 0.31007-0.49611 1.2403h-0.62014l-0.37209 0.8682-0.49611-0.18604-0.062-0.62014-0.31007-0.31007-0.31007-0.18604-0.49611-0.06201-0.24806-0.06201-1.0542 1.9224-0.4341 3.0387-0.55813 0.4341-0.4341-0.12403-0.31007-0.93021-0.24806-0.4341-0.49611-0.68215-0.4341-0.37208-0.49611-0.4341-0.68215-0.49611-0.55813-0.62014-0.62014-0.4341-0.4341-0.31007-0.93021-0.68215-0.4341-0.62014-0.49611-0.31007-0.80618-0.68216-3.9689-3.4728-0.18604 1.3023-0.37208 0.4341-0.4341 0.68216v0.62014l-0.8682 1.5504-0.062 0.8682-0.12403 1.1783-0.37209 1.6124-0.062 0.80618-0.68216 0.68215-0.49611 1.1163-0.31007 1.1163-0.86819 1.2403-0.49612 1.1783-0.62014 0.55812-0.93021 1.8604-1.3023 2.7286 69.772-1.8108z" style="paint-order:markers stroke fill"/><path d="m122.4 48.17-6.7641-10.185-0.57772-0.48143h-0.55365l-0.21665 0.14443-0.40922 0.38515-0.337 0.69808-0.31293 0.48143v0.81844l-0.24072 0.40922s-0.28886 0.52958-0.28886 0.62586c0 0.09629-0.26479 0.74622-0.26479 0.74622l-0.31293 0.5055-0.38514 0.98694-0.26479 0.52958-1.0832-0.24072-1.1314-0.14443-0.64993-0.24072-0.79437-0.09629-0.57772 0.02408-0.64993 0.28886-0.74622-0.12036s-0.43329-0.337-0.52958-0.38515c-0.0963-0.04814-0.67401-0.337-0.67401-0.337l-0.60179 0.02408-0.337 0.36108-0.0241 0.48143-0.0241 0.79437-0.72215-0.12036-0.0481 1.348-0.62586-0.1685-0.26479-0.64994-0.67401-0.72215-0.62586-0.38515-0.33701-0.02408-0.38514-0.1685-0.48143-0.337-1.9979-1.0592-0.60179-0.19257-0.52958-0.55365-0.52958-0.74622-0.28886-0.48143-0.45736-0.72215-0.38515-0.52958-0.45736-0.04814-0.28886 0.60179-0.337 0.93879-0.48143 0.24072-0.57772-0.02408h-0.72215l-0.62586 0.04814-0.1685 0.36107-0.12036 0.74622-0.1685 0.38515-0.46485 6.1191" style="paint-order:markers stroke fill"/><path d="m93.708 50.995-1.5928-10.114-1.2477 1.1149-0.26546-0.10618-0.3451-0.10618-0.3451 0.05309-0.0885 0.53682-0.52918-0.0392-0.37239-0.01961-0.56838 0.098-0.84277-0.31359-0.50958-0.33319-1.1956-0.70558-0.39198-0.52918-0.82317-0.54878-0.54878-0.29399-0.33319 0.098-0.25479 0.1568 0.0784 11.152" style="paint-order:markers stroke fill"/><path d="m84.297 51.546-0.33319-11.74-0.52918 0.11759-0.1764 1.274-0.23519 0.90157-0.37238 0.74477-0.54878 0.62718-0.66638 0.92117-0.47038 0.99956-0.68597 0.0392-0.1372-0.37239-0.41159-0.21559-0.66637 0.0588-0.43119 0.41159-0.37238 0.41159-0.0196 5.9778" style="paint-order:markers stroke fill"/><path d="m77.848 52.389-0.0784-6.1934-0.68598 0.37238-0.66638 0.1176-0.56838-0.41159-0.70557-0.64677-0.0784-0.80357 0.098-0.64678-0.23519-0.80357-0.47038-0.58798-0.50958-0.74477-0.86237-0.88197-0.80357-0.45078-0.37238 0.0196-0.70558 0.0392-0.25479 0.41159-0.35278 0.39199-0.31359 0.96036-0.37239-0.17639-0.25479-0.52918-0.52918-0.1372-0.62718-0.0196-0.35279-0.0588-0.37238-0.47038-0.27439-0.1764-0.58798 0.31359-0.45078 10.976" style="paint-order:markers stroke fill"/><path d="m79.005 52.33-0.07841-7.2125-1.5091 1.4111 0.098 5.8014z" style="paint-order:markers stroke fill"/></g></g></svg>
