<?xml version="1.0" encoding="UTF-8"?>
<svg width="54.228mm" height="35.256mm" style="transform:scale(0.5);" version="1.1" viewBox="0 0 54.228 35.256" xmlns="http://www.w3.org/2000/svg">
<g transform="translate(-34.102 -195.46)">
<g fill="none" stroke="#000" stroke-linecap="round" stroke-linejoin="round">
<path d="m34.602 195.96c4.5034 0.89268 10.037-0.79045 13.51 2.678 4.6631 11.563 4.1905 13.652 6.0177 20.961" style="paint-order:markers stroke fill"/>
<path d="m49.325 200.73 36.779 0.64337c0.99102 0.53982 2.4708 0.89634 1.2867 2.2518l-5.3614 15.977c-0.06885 0.83432-0.0083 1.8303-1.1795 1.2868l-28.952-0.7506c-3.1947-0.23947-2.5419 2.2693-1.8229 4.8253l31.311 1.5012" style="paint-order:markers stroke fill"/>
<path d="m56.617 227.59a2.3054 2.3054 0 0 1-2.3054 2.3054 2.3054 2.3054 0 0 1-2.3054-2.3054 2.3054 2.3054 0 0 1 2.3054-2.3054 2.3054 2.3054 0 0 1 2.3054 2.3054z" style="paint-order:markers stroke fill"/>
<path d="m81.279 228.67a1.4476 1.5548 0 0 1-1.4476 1.5548 1.4476 1.5548 0 0 1-1.4476-1.5548 1.4476 1.5548 0 0 1 1.4476-1.5548 1.4476 1.5548 0 0 1 1.4476 1.5548z" style="paint-order:markers stroke fill"/>
</g>
</g>
</svg>
