<?xml version="1.0" encoding="UTF-8" standalone="no"?>
<!-- Created with Inkscape (http://www.inkscape.org/) -->

<svg
   width="115.90704mm"
   height="115.31634mm"
   viewBox="0 0 115.90704 115.31634"
   version="1.1"
   id="svg310"
   sodipodi:docname="woven_wheel_working_doc.svg"
   xmlns:inkscape="http://www.inkscape.org/namespaces/inkscape"
   xmlns:sodipodi="http://sodipodi.sourceforge.net/DTD/sodipodi-0.dtd"
   xmlns="http://www.w3.org/2000/svg"
   xmlns:svg="http://www.w3.org/2000/svg">
  <sodipodi:namedview
     id="namedview312"
     pagecolor="#505050"
     bordercolor="#eeeeee"
     borderopacity="1"
     inkscape:showpageshadow="0"
     inkscape:pageopacity="0"
     inkscape:pagecheckerboard="0"
     inkscape:deskcolor="#505050"
     inkscape:document-units="mm"
     showgrid="false"
     inkscape:zoom="0.49759665"
     inkscape:cx="224.07707"
     inkscape:cy="615.96074"
     inkscape:window-width="1440"
     inkscape:window-height="785"
     inkscape:window-x="0"
     inkscape:window-y="25"
     inkscape:window-maximized="1"
     inkscape:current-layer="layer1" />
  <defs
     id="defs307" />
  <g
     inkscape:label="Layer 1"
     inkscape:groupmode="layer"
     id="layer1"
     transform="translate(-21.570109,-52.618613)">
    <path
       id="path500"
       style="fill:#080808;fill-opacity:1;stroke-width:3.66501;stroke-linecap:round;stroke-linejoin:round"
       d="m 114.88092,153.37767 c -0.004,-0.17723 1.30964,-3.11548 2.28546,-6.04872 0.97583,-2.93324 1.62425,-5.83504 1.72299,-5.93147 0.0241,-0.0235 2.09075,-1.66155 2.31274,-1.82146 0.12412,-0.0894 0.45773,-0.37445 0.76169,-0.65715 0.29864,-0.27774 0.58171,-0.48526 0.63169,-0.45552 0.0479,0.0285 -0.33944,3.276 -1.19079,6.60223 -0.85135,3.32624 -2.18416,6.68653 -2.29406,6.82257 -0.0725,0.0898 -0.86083,0.58367 -1.77502,1.07369 -1.28511,0.68885 -1.75753,0.84735 -2.02229,0.81089 -0.39361,-0.0542 -0.42581,-0.0874 -0.43245,-0.39503 10e-6,-1e-5 2e-5,-2e-5 4e-5,-3e-5 z m -9.01,-11.09138 c 0.40528,-1.17578 0.61891,-1.53132 1.38411,-2.19822 0.47308,-0.41231 1.14268,-0.58906 4.57814,-2.75938 2.32282,-1.46741 3.95373,-2.78564 4.32851,-3.07684 0.29097,-0.22609 0.8674,-0.6981 1.47121,-1.23256 0.55908,-0.49488 1.04612,-0.89949 1.09302,-0.87758 0.0889,0.0422 -0.0414,3.21424 -0.15056,3.4428 -0.0341,0.0713 -0.67401,0.64081 -1.43912,1.23064 -1.03903,0.80098 -3.27299,2.47177 -6.3523,4.17163 -2.78904,1.53962 -5.15508,2.40781 -5.19236,2.36107 -0.038,-0.0474 0.0947,-0.52593 0.27935,-1.06156 z m 6.78598,4.65732 c 0.36415,-1.00877 0.67341,-1.90002 0.73422,-1.98014 0.0949,-0.12499 1.12301,-0.73382 2.08899,-1.31704 0.97542,-0.5889 1.91674,-1.17137 1.93776,-1.1013 0.029,0.0968 -0.22604,1.25755 -0.56862,2.43138 -0.34629,1.18655 -0.76534,2.3453 -0.87477,2.49018 -0.24914,0.32985 -2.82622,1.73075 -3.27878,1.79545 -0.13889,0.0198 -0.36152,-0.0817 -0.49592,-0.22526 -0.24407,-0.26103 -0.16635,-0.36621 0.45712,-2.09327 z m -2.97138,-2.61715 c 0.3124,-1.08962 0.43958,-1.4702 0.65731,-1.68357 0.10794,-0.10578 3.44676,-1.87598 6.57338,-4.17852 3.12662,-2.30253 5.9714,-5.12811 6.06186,-5.15712 0.14608,-0.0469 -0.0483,3.45911 -0.22254,3.74211 -0.0622,0.10104 -0.25828,0.29967 -0.43929,0.4433 -0.18019,0.14296 -2.73899,2.42245 -5.91892,4.53807 -6.023,4.00708 -6.42601,3.63112 -6.79778,3.2528 -0.0917,-0.0933 -0.0526,-0.47362 0.086,-0.95707 z m 13.82772,-1.46695 c 0.24045,-1.18296 0.37706,-2.03651 0.43569,-2.38327 0.0566,-0.33485 0.37088,-2.24055 0.54533,-4.61201 0.16737,-2.27524 0.17277,-4.192 0.21544,-4.32226 0.0546,-0.16685 0.8459,-1.12083 1.57451,-2.01735 0.73707,-0.90694 1.43636,-1.78997 1.47223,-1.70863 0.0326,0.0741 0.32705,2.74497 0.23506,6.08538 -0.17226,6.25512 -0.94875,7.39069 -1.68712,8.32089 -0.50458,0.63567 -3.03631,2.72812 -3.15079,2.64718 -0.0409,-0.0289 0.14127,-0.93555 0.35965,-2.00993 z m -9.26993,-9.3354 c 0.09,-1.22075 0.17554,-1.52485 0.73195,-2.42443 0.30824,-0.49836 0.53393,-0.68176 1.68207,-1.77853 0.73323,-0.70043 1.46155,-1.43605 1.64464,-1.59682 0.11096,-0.0974 0.22154,-0.19556 0.33175,-0.29439 0.0526,0.52893 0.0951,1.0631 0.12754,1.60204 0.069,1.14826 0.0121,1.7164 -0.10669,1.89857 -0.10924,0.16752 -1.09322,1.11997 -2.17159,2.02606 -1.0583,0.88922 -2.14909,1.67585 -2.23483,1.69051 -0.0574,0.01 -0.0509,-0.49854 -0.005,-1.12301 z m 5.4806,-4.34367 c -0.15101,-2.8615 -0.56446,-5.29612 -0.54944,-5.59926 0.0377,-0.76154 0.31883,-1.54695 0.79819,-2.26166 0.91387,-1.36255 1.16449,-1.79719 1.25842,-1.78145 0.062,0.0103 0.929,2.68441 1.38109,5.62666 0.45209,2.94226 0.47303,6.10945 0.41612,6.2207 -0.0714,0.13954 -0.82995,0.95984 -1.63632,1.7344 -0.79615,0.76474 -1.60861,1.45165 -1.64365,1.42962 -0.0343,-0.0219 0.12661,-2.50751 -0.0244,-5.36901 z m 9.2716,4.56539 c 0.0232,-1.02194 0.0589,-1.9613 0.11316,-2.08107 0.0648,-0.14305 1.14966,-1.53177 2.15219,-2.96965 1.00252,-1.43788 1.92222,-2.92279 1.96205,-2.913 0.0589,0.0145 0.32022,1.9995 0.31279,2.47786 -0.008,0.51986 -0.17948,1.2444 -0.52517,2.11667 -0.27392,0.69171 -0.57002,1.26174 -2.06775,3.11129 -0.96138,1.18723 -1.8424,2.11003 -1.90611,2.11836 -0.0638,0.008 -0.0645,-0.83473 -0.0412,-1.86046 z m -4.55414,-5.83717 c -0.0774,-0.96015 -0.15365,-1.81164 -0.13027,-1.91113 0.0187,-0.0798 1.96376,-2.6855 3.60962,-5.75419 1.90101,-3.54443 2.71679,-6.10987 3.14234,-7.19988 0.22827,-0.58467 0.6422,-0.95444 0.93297,-0.80035 0.27055,0.14337 1.08695,2.03434 1.10702,2.56602 0.006,0.15568 -0.12137,0.64876 -0.29171,1.1018 -0.48632,1.2935 -1.75105,4.3905 -3.93224,7.90591 -1.97362,3.18086 -4.20585,5.76667 -4.24506,5.79379 -0.0464,0.0322 -0.11525,-0.74182 -0.19267,-1.70197 z m 4.5364,2.12532 c -0.0794,-0.42601 -0.27618,-3.66999 -0.25939,-3.71798 0.0413,-0.11799 2.4204,-3.62853 4.22762,-7.64907 1.80722,-4.02053 2.97099,-8.54372 3.01821,-8.59744 0.0781,-0.0888 0.95702,1.8896 1.13057,2.61853 0.15844,0.66551 0.0932,2.08199 -0.14055,2.92444 -0.10175,0.36676 -1.45496,4.23951 -3.58548,8.07942 -2.13052,3.83992 -4.30682,6.55652 -4.31962,6.57335 -0.0128,0.0169 -0.0446,-0.0875 -0.0714,-0.23125 z m -6.28508,-10.96057 c -0.94137,-2.95361 -2.11131,-5.15951 -2.15007,-5.26248 -0.0563,-0.1495 0.0376,-0.41919 0.33692,-1.20339 0.56885,-1.4892 0.72298,-1.85828 1.17958,-1.8726 0.34386,-0.0108 0.5233,-0.0323 1.92098,2.82463 1.38736,2.83589 2.09959,5.32891 2.30555,6.06671 0.28895,1.03509 0.30759,1.22213 0.29418,1.27639 -0.0241,0.0975 -0.59883,1.10328 -1.21502,2.03963 -0.61619,0.93636 -1.26962,1.80377 -1.29306,1.78794 -0.0245,-0.0171 -0.4377,-2.70323 -1.37906,-5.65683 z m 3.89583,-1.70456 c -0.41617,-1.18825 -0.83104,-2.22467 -0.85437,-2.35522 -0.0305,-0.17062 0.10041,-0.5717 0.39508,-1.36827 0.66309,-1.79258 0.73904,-2.07575 1.21983,-2.08593 0.33652,-0.007 0.45996,0.0516 1.18671,1.68116 0.42455,0.9519 0.73477,1.85268 0.7399,1.99604 0.005,0.13728 -0.0604,0.40534 -0.14681,0.59857 -0.16685,0.37322 -0.39314,0.93765 -0.905,2.0236 -0.42779,0.90756 -0.83603,1.64452 -0.8712,1.66823 -0.0352,0.0237 -0.34797,-0.96992 -0.76414,-2.15818 z M 67.392766,165.448 c 0.13135,-0.10044 2.907378,-0.69091 5.663193,-1.59714 3.3374,-1.09747 4.899374,-1.92834 6.170687,-2.44839 0.102329,-0.0425 0.165424,-0.0645 0.183812,-0.0624 0.257934,0.0283 2.424114,0.49443 2.901491,0.61355 0.150577,0.0376 0.583928,0.10804 1.000017,0.15671 0.407477,0.0477 0.750996,0.12786 0.760701,0.18504 0.0082,0.0485 -2.111673,1.4793 -4.846021,2.81595 -3.45457,1.61709 -7.832563,2.83057 -8.031693,2.82361 -0.118468,-0.004 -1.007581,-0.33639 -1.966603,-0.77468 -1.344619,-0.61451 -1.761593,-0.90307 -1.891906,-1.13388 -0.195507,-0.34629 -0.18782,-0.39164 0.05627,-0.57834 1.7e-5,1e-5 3.4e-5,1e-5 5.1e-5,2e-5 z m 3.473202,-13.73912 c 1.152112,-0.38436 1.532685,-0.43173 2.491631,-0.23976 0.588405,0.11778 1.082047,0.57032 4.787028,1.81782 0.365036,0.12291 0.725832,0.23759 1.082019,0.34462 0,0 0,0 0,0 1.967433,0.65951 3.619423,0.99031 3.895124,1.05125 0.358128,0.0792 1.062297,0.21385 1.85194,0.32639 0.725283,0.10337 1.340242,0.20634 1.354354,0.25595 0.02631,0.0944 -2.422892,2.05071 -2.664678,2.11476 -0.07544,0.02 -0.914121,-0.10028 -1.844683,-0.31267 -0.432981,-0.0988 -1.402271,-0.32572 -2.592057,-0.68958 -1.418908,-0.40767 -2.927202,-0.93075 -4.493157,-1.60552 -2.833349,-1.22091 -4.871364,-2.59342 -4.855827,-2.65205 0.01523,-0.0583 0.466049,-0.23697 0.988306,-0.41121 z m 0.331005,8.14932 c 1.017664,-0.31624 1.905354,-0.61315 2.005132,-0.61388 0.152671,-10e-4 1.258728,0.43857 2.308925,0.83559 1.062744,0.40177 2.110178,0.77337 2.068501,0.83354 -0.0576,0.0831 -1.127745,0.60761 -2.267592,1.05781 -1.154081,0.45581 -2.329677,0.82335 -2.514136,0.82428 -0.432033,0.002 -3.090511,-1.19566 -3.420882,-1.52393 -0.09925,-0.0987 -0.151625,-0.33587 -0.117622,-0.52793 0.06287,-0.35373 0.192479,-0.34318 1.937674,-0.88548 z m 0.293519,-3.91705 c 1.039634,-0.40885 1.403447,-0.54164 1.701141,-0.50023 0.130216,0.0181 2.784752,1.26652 6.035012,2.17599 0,0 10e-7,0 10e-7,0 4.038739,1.17825 8.914134,1.55104 9.004019,1.60511 0.130997,0.0788 -2.643266,2.22409 -2.972489,2.27645 -0.11774,0.0187 -0.396618,-4.5e-4 -0.624236,-0.0444 -0.186594,-0.036 -2.536234,-0.33035 -5.407293,-1.10358 -10e-7,0 -10e-7,0 -10e-7,0 -0.614607,-0.16632 -1.243135,-0.35064 -1.883934,-0.55519 -3.194641,-1.01979 -5.231624,-2.07871 -5.841141,-2.43481 -0.820227,-0.4792 -0.851222,-0.66144 -0.813018,-0.91391 0.01942,-0.12835 0.341646,-0.32442 0.801939,-0.50544 z m 9.759544,9.89705 c 1.083126,-0.57608 1.850228,-1.03412 2.150947,-1.21033 0.308671,-0.18087 1.972936,-1.16445 3.896374,-2.59247 1.836241,-1.36329 3.270207,-2.62578 3.395853,-2.67992 0.159264,-0.0686 1.399092,-0.1093 2.551127,-0.16056 1.166937,-0.0519 2.291882,-0.11735 2.255041,-0.0365 -0.03319,0.0727 -1.819344,2.06726 -4.406716,4.20583 -4.82418,3.98736 -6.337159,4.14119 -7.508898,4.18543 -0.831757,0.0314 -4.156278,-0.55094 -4.166276,-0.69119 -0.0036,-0.0501 0.841956,-0.49338 1.832548,-1.02025 z m 1.202561,-13.09011 c 0.959652,-0.71031 1.220311,-0.83375 2.236091,-0.99254 0.575451,-0.0899 0.819302,-0.032 2.376745,0.11355 0.98632,0.0922 2.003356,0.14967 2.241521,0.17999 0.144339,0.0184 0.289072,0.0359 0.434191,0.0526 -0.35466,0.38963 -0.719713,0.77427 -1.095266,1.15347 -0.799574,0.80735 -1.257751,1.13619 -1.468573,1.16599 -0.196774,0.0278 -1.534578,-0.0883 -2.892397,-0.32477 -1.330903,-0.23174 -2.593967,-0.57572 -2.658225,-0.6327 -0.04306,-0.0382 0.337872,-0.35437 0.825913,-0.71562 z m 6.713941,1.32449 c 2.01347,-2.00026 3.54178,-3.94385 3.777426,-4.13623 0.591812,-0.48315 1.367151,-0.80348 2.226666,-0.9279 1.638196,-0.23715 2.141333,-0.34119 2.191991,-0.2602 0.03351,0.0534 -1.419772,2.50537 -3.310435,4.80824 -1.890663,2.30287 -4.23079,4.40867 -4.351264,4.43945 -0.151928,0.0388 -1.261908,0.0122 -2.36799,-0.087 -1.091375,-0.0979 -2.131556,-0.26686 -2.137686,-0.30765 -0.0058,-0.0401 1.957822,-1.52846 3.971292,-3.52872 z m 2.710148,9.93885 c 0.787032,-0.6575 1.516446,-1.25292 1.642279,-1.29167 0.15053,-0.0464 1.915191,-0.15741 3.658077,-0.36171 1.742886,-0.2043 3.461068,-0.49715 3.480268,-0.46082 0.0284,0.0538 -1.277255,1.56217 -1.639338,1.87313 -0.393417,0.33785 -1.049059,0.68927 -1.933051,1.00851 -0.698314,0.2524 -1.328259,0.41079 -3.718039,0.51577 -1.536665,0.0675 -2.823549,0.0172 -2.872182,-0.0249 -0.04859,-0.0421 0.591965,-0.59826 1.381986,-1.25826 z m 1.34881,-7.26335 c 0.663543,-0.69598 1.247087,-1.32065 1.336789,-1.36957 0.07195,-0.0393 3.311221,-0.33692 6.714845,-1.13217 3.92189,-0.91635 6.41887,-1.9457 7.50879,-2.3125 0.59105,-0.19891 1.13514,-0.11446 1.20412,0.20671 0.0628,0.29251 -0.83982,2.13485 -1.22192,2.4881 -0.11269,0.10415 -0.56559,0.32435 -1.01584,0.48697 -1.24766,0.45064 -4.47508,1.52838 -8.518755,2.2233 -3.691568,0.6344 -7.101997,0.69376 -7.148205,0.6825 -0.05476,-0.0133 0.476626,-0.57736 1.140176,-1.27334 z m 1.429085,4.79361 c 0.263287,-0.33809 2.563022,-2.64466 2.605301,-2.66207 0.11557,-0.0476 4.326288,-0.61819 8.517148,-1.87125 4.19085,-1.25306 8.28817,-3.17658 8.35776,-3.17344 0.11511,0.005 -0.79459,1.91529 -1.22231,2.50733 -0.38826,0.53738 -1.47973,1.3883 -2.25158,1.74679 -0.33693,0.1565 -4.0784,1.60778 -8.35032,2.53755 -4.271925,0.92977 -7.760539,1.12002 -7.781659,1.12163 -0.02119,0.002 0.0359,-0.0913 0.12566,-0.20654 z m 4.036915,-12.00898 c 1.629564,-2.68855 2.631144,-5.04993 2.688374,-5.14799 0.079,-0.13542 0.36471,-0.25351 1.188,-0.54021 1.57056,-0.5465 1.9762,-0.65643 2.27406,-0.31757 0.2268,0.25801 0.31773,0.37344 -1.02456,3.31534 -2.90506,6.36695 -3.827775,6.78129 -3.927396,6.8334 -0.08945,0.0468 -1.229451,0.28519 -2.342287,0.44964 -1.112837,0.16446 -2.195799,0.25691 -2.1996,0.22885 -0.0036,-0.0298 1.71385,-2.13291 3.343409,-4.82146 z m 3.883754,1.80375 c 0.63282,-1.10071 1.16353,-2.09782 1.24935,-2.20135 0.11139,-0.1344 0.50908,-0.30032 1.31854,-0.59347 1.81987,-0.6591 2.0966,-0.77018 2.40711,-0.4111 0.22408,0.25914 0.24601,0.38117 -0.54007,1.99154 -0.45818,0.93867 -0.94279,1.76201 -1.04818,1.85875 -0.10123,0.0929 -0.34809,0.21777 -0.55133,0.27801 -0.20242,0.06 -1.16069,0.36568 -2.13072,0.6397 -0.97002,0.27401 -1.79752,0.45542 -1.83873,0.44462 -0.0412,-0.0108 0.50121,-0.90598 1.13403,-2.0067 z M 28.911034,135.30352 c 0.173485,0.0335 2.767514,1.93244 5.433018,3.4862 2.665505,1.55376 5.375299,2.77379 5.449757,2.89002 0.02043,0.0319 1.202066,2.38126 1.315777,2.63618 0.06235,0.13978 0.274006,0.52512 0.489137,0.88074 0.211425,0.34949 0.357088,0.66955 0.317714,0.71258 -0.03775,0.0413 -3.141801,-0.99721 -6.220377,-2.50792 -3.078577,-1.51072 -6.085307,-3.51029 -6.195661,-3.64616 -0.07284,-0.0896 -0.39429,-0.96439 -0.685681,-1.9619 -0.40953,-1.40195 -0.466886,-1.89842 -0.377265,-2.14953 0.133427,-0.37386 0.17242,-0.39829 0.473556,-0.34025 8e-6,1e-5 1.7e-5,3e-5 2.5e-5,4e-5 z m 12.653888,-6.4914 c 1.061267,0.62817 1.361834,0.90287 1.857087,1.77799 0.305865,0.54044 0.33586,1.21583 1.777622,5.00309 0.971859,2.5529 1.950687,4.43768 2.158112,4.85658 0.163908,0.33102 0.513246,0.9937 0.917606,1.69614 0.374628,0.65079 0.674444,1.21318 0.643261,1.25481 -0.05967,0.0787 -3.156272,-0.69899 -3.358895,-0.85257 -0.06321,-0.0479 -0.493606,-0.79193 -0.91888,-1.66134 -0.572535,-1.17044 -1.775271,-3.71722 -2.81119,-7.04577 -0.941352,-3.02472 -1.293444,-5.48497 -1.238993,-5.51223 0.05392,-0.0272 0.491476,0.19753 0.97427,0.4833 z m -5.928412,5.65117 c 0.909211,0.56121 1.71631,1.04349 1.782173,1.11907 0.102411,0.11752 0.488772,1.24483 0.863496,2.3066 0.378476,1.0724 0.758413,2.11144 0.685616,2.11786 -0.100595,0.009 -1.184597,-0.47522 -2.262141,-1.04847 -1.089746,-0.57974 -2.134639,-1.22533 -2.254208,-1.36239 -0.273134,-0.31308 -1.112301,-3.11445 -1.082546,-3.5709 0.0091,-0.13962 0.153701,-0.33581 0.321098,-0.43728 0.305401,-0.18482 0.38951,-0.0856 1.946512,0.87551 z m 3.157789,-2.36167 c 0.998548,0.52433 1.343331,0.72314 1.507683,0.97844 0.08129,0.12627 1.135083,3.73105 2.764281,7.25837 1.629198,3.52732 3.822977,6.90693 3.832804,7.00184 0.01588,0.15327 -3.38677,-0.75724 -3.628724,-0.98603 -0.08635,-0.0817 -0.241132,-0.31473 -0.345022,-0.52167 -0.103426,-0.20602 -1.819629,-3.183 -3.248302,-6.7206 -2.705977,-6.70042 -2.242303,-7.00322 -1.797544,-7.28785 0.109678,-0.0702 0.472083,0.045 0.914824,0.2775 z m -1.369666,13.81557 c 1.106894,0.47557 1.917125,0.78399 2.243361,0.91148 0.320545,0.12528 2.113313,0.81712 4.407516,1.4756 2.197062,0.6306 4.079226,1.03546 4.198269,1.10457 0.153266,0.089 0.92344,1.06494 1.649193,1.97076 0.733632,0.91565 1.448419,1.79052 1.360958,1.8084 -0.07968,0.0162 -2.760874,-0.26383 -6.012959,-1.04428 -6.094726,-1.46264 -7.027937,-2.43454 -7.793822,-3.35792 -0.51801,-0.62454 -2.047072,-3.53395 -1.944659,-3.62977 0.03655,-0.0342 0.885709,0.32876 1.892143,0.76116 z m 11.034586,-7.20221 c 1.184658,0.3352 1.47007,0.48221 2.246448,1.21304 0.427829,0.40274 0.569902,0.66778 1.419762,2.02387 0.544336,0.86856 1.122995,1.74258 1.244434,1.95722 0.07359,0.13008 0.147922,0.25998 0.222985,0.38969 -0.534569,-0.0615 -1.071816,-0.13302 -1.61129,-0.21483 -1.14959,-0.17434 -1.69759,-0.34735 -1.853611,-0.50254 -0.1421,-0.14135 -0.88323,-1.30925 -1.558635,-2.55241 -0.66351,-1.22126 -1.219883,-2.44907 -1.217173,-2.53606 0.0018,-0.0582 0.500803,0.0505 1.10708,0.22202 z m 3.177337,6.28527 c 2.857569,0.45525 5.360445,0.59079 5.657987,0.6735 0.747691,0.20784 1.467071,0.66334 2.0718,1.3 1.152414,1.21326 1.523984,1.56319 1.48759,1.65162 -0.0239,0.0584 -2.858769,0.28114 -5.858354,0.0809 -2.999585,-0.20023 -6.119511,-0.83865 -6.217129,-0.91782 -0.121802,-0.0988 -0.772338,-1.0168 -1.368369,-1.96857 -0.588893,-0.94038 -1.099289,-1.87892 -1.070488,-1.90884 0.02847,-0.0292 2.439395,0.63395 5.296963,1.0892 z m -6.424924,8.16166 c 0.995502,0.23411 1.906864,0.46459 2.012808,0.54302 0.126213,0.0934 1.254358,1.44827 2.440359,2.73466 1.186,1.28639 2.42709,2.50322 2.408707,2.5401 -0.02721,0.0546 -2.017459,-0.11116 -2.48175,-0.21922 -0.504584,-0.11743 -1.172694,-0.4375 -1.948146,-0.95855 -0.619528,-0.41603 -1.101558,-0.81907 -2.592741,-2.67493 -0.955432,-1.18909 -1.673576,-2.24376 -1.668348,-2.30804 0.0053,-0.0643 0.830177,0.10804 1.829111,0.34296 z m 6.690861,-3.25037 c 0.96106,0.12898 1.815583,0.2388 1.908497,0.28337 0.07453,0.0357 2.225186,2.51276 4.85106,4.81505 3.043832,2.66874 5.292612,4.03932 6.251896,4.71438 0.507836,0.35737 0.762203,0.84248 0.544782,1.08603 -0.199397,0.22336 -2.214386,0.57626 -2.728388,0.47466 -0.150882,-0.0299 -0.595595,-0.26544 -0.992149,-0.5333 -1.126396,-0.76082 -3.833551,-2.69777 -6.783675,-5.59918 -2.673147,-2.629 -4.748291,-5.36863 -4.766692,-5.41291 -0.02183,-0.0524 0.753607,0.0429 1.714669,0.1719 z m -3.053756,4.00614 c 0.442353,0.0118 3.644192,0.50335 3.695909,0.53532 0.106495,0.0658 3.02739,3.15435 6.499869,5.80863 3.47248,2.65429 7.488038,4.80227 7.527542,4.85974 0.06532,0.0951 -2.027607,0.48923 -2.764031,0.49282 -0.670282,0.003 -2.010359,-0.3753 -2.761248,-0.78735 -0.327311,-0.17961 -3.72022,-2.3455 -6.972902,-5.25584 -3.252684,-2.91034 -5.453072,-5.61573 -5.466807,-5.63182 -0.01377,-0.0161 0.09521,-0.0254 0.241668,-0.0215 z m 12.137969,-3.75055 c 3.121195,-0.22648 5.564325,-0.79149 5.674653,-0.80254 0.159412,-0.016 0.404599,0.14457 1.101818,0.63873 1.321944,0.93742 1.64085,1.18807 1.544878,1.62773 -0.07267,0.33293 -0.09361,0.48847 -3.209459,1.12823 -3.105079,0.63752 -5.68206,0.76133 -6.463438,0.79378 -1.078822,0.0448 -1.266164,0.0222 -1.316325,-0.003 -0.09008,-0.0456 -0.947019,-0.83541 -1.73161,-1.64844 -0.78459,-0.81303 -1.497715,-1.64548 -1.477064,-1.66503 0.02217,-0.0204 2.755358,0.15726 5.876547,-0.0692 z m 0.786662,4.20504 c 1.255803,-0.1268 2.36282,-0.27903 2.495483,-0.27012 0.172874,0.0116 0.534287,0.23572 1.23787,0.71505 1.580618,1.0768 1.832397,1.22498 1.727025,1.68717 -0.07494,0.3287 -0.159469,0.42452 -1.906682,0.73558 -1.020028,0.18161 -1.966152,0.27114 -2.105728,0.24262 -0.13401,-0.0274 -0.378509,-0.15348 -0.5456,-0.28233 -0.166353,-0.1283 -0.971083,-0.7234 -1.756571,-1.34943 -0.785476,-0.62604 -1.413339,-1.19291 -1.428524,-1.23266 -0.01514,-0.0397 1.026917,-0.11907 2.282727,-0.24588 z M 28.124845,86.371568 c 0.07432,0.160832 0.05089,3.386615 0.354651,6.457439 0.303765,3.070824 0.927064,5.961745 0.878437,6.090243 -0.09059,0.239362 -1.078022,2.19793 -1.313377,2.62667 -0.07402,0.13483 -0.251976,0.53429 -0.404683,0.92225 -0.149678,0.38027 -0.314924,0.69147 -0.372629,0.68647 -0.05534,-0.005 -1.097744,-3.10899 -1.69742,-6.497424 -0.599676,-3.388432 -0.73741,-7.019684 -0.692336,-7.189736 0.02981,-0.112596 0.546744,-0.890298 1.181409,-1.714142 0.891099,-1.156711 1.260164,-1.494377 1.514477,-1.56821 0.379849,-0.110279 0.422469,-0.09273 0.551494,0.186393 0,0 -2.3e-5,4.7e-5 -2.3e-5,4.7e-5 z m 12.633826,6.501063 c 0.0998,1.220875 0.04957,1.617073 -0.375239,2.515487 -0.26175,0.553587 -0.819929,0.962159 -2.985522,4.264074 -1.466991,2.236748 -2.332645,4.075118 -2.540929,4.495318 -0.161023,0.32485 -0.46298,0.97882 -0.761868,1.71287 -0.275498,0.67662 -0.524868,1.24686 -0.57658,1.24807 -0.0984,0.002 -1.397951,-2.86433 -1.400347,-3.11441 -7.35e-4,-0.078 0.322389,-0.85908 0.753057,-1.70599 0.590989,-1.16219 1.864349,-3.55635 3.957255,-6.314525 1.883781,-2.482565 3.708441,-4.197845 3.762272,-4.16947 0.05358,0.02801 0.122508,0.513218 0.167901,1.068576 z m -8.035038,-1.527632 c 0.07457,1.062994 0.154905,1.99454 0.132248,2.091621 -0.07645,0.327589 -2.553303,3.94151 -2.649093,3.832487 -0.06618,-0.07533 -0.315377,-1.229127 -0.484519,-2.434103 -0.17107,-1.218708 -0.259411,-2.442839 -0.218558,-2.620148 0.09427,-0.409162 1.864076,-2.719977 2.255307,-2.964607 0.118417,-0.07401 0.361535,-0.07095 0.541244,0.0059 0.328095,0.14057 0.295572,0.26688 0.423371,2.088846 z m 3.749062,1.185026 c 0.153662,1.109898 0.193331,1.500517 0.08201,1.780303 -0.05496,0.138139 -2.363301,3.051449 -4.190675,6.414992 -1.827373,3.36354 -3.105314,7.17106 -3.173316,7.23792 -0.109807,0.10798 -1.48985,-3.13098 -1.456399,-3.46284 0.012,-0.11869 0.10177,-0.38366 0.202245,-0.59255 0.09995,-0.20779 1.411472,-3.37974 3.402421,-6.597359 1.756342,-2.83845 3.251964,-4.574669 3.747117,-5.094488 0.659015,-0.691843 0.84287,-0.681653 1.081108,-0.586607 0.120771,0.04818 0.237336,0.40839 0.305487,0.900629 z m -11.892172,7.037664 c 0.276692,1.179381 0.516014,2.017301 0.609834,2.356431 0.08853,0.32005 0.616455,2.20652 1.500188,4.42023 0.728696,1.82535 1.311793,3.00904 1.636991,3.7222 0,0 0,0 0,0 0.06981,0.15174 0.110247,0.24633 0.11482,0.27467 0.02764,0.17125 -0.237941,1.40336 -0.463718,2.5418 -0.229238,1.15589 -0.428492,2.27196 -0.498749,2.21664 -0.06164,-0.0486 -1.485213,-2.11003 -2.911307,-5.03311 -0.05193,-0.11082 -0.103761,-0.22268 -0.155484,-0.3356 -2.620205,-5.72008 -2.343171,-7.25971 -2.085148,-8.36142 0.197596,-0.84368 1.539952,-3.824693 1.742649,-3.788064 0.04885,0.0088 0.258324,0.913805 0.509924,1.986223 z m 12.30452,4.416101 c 0.462535,1.11401 0.522004,1.39432 0.440303,2.42042 -0.04624,0.58076 -0.158847,0.79978 -0.662239,2.26753 -0.180465,0.5262 -0.322352,0.96384 -0.458965,1.39481 -0.125012,0.35195 -0.216553,0.61726 -0.260291,0.72276 -0.05586,0.13472 -0.110847,0.27003 -0.164975,0.40591 -0.242952,-0.36871 -0.480516,-0.74491 -0.712421,-1.12867 -0.04456,-0.0701 -0.08888,-0.14051 -0.132964,-0.21113 -0.606324,-0.9712 -0.816836,-1.50279 -0.795745,-1.71209 0.02018,-0.20017 0.4542,-1.46198 1.008745,-2.72033 0.542744,-1.23157 1.171643,-2.37393 1.241614,-2.42225 0.04691,-0.0324 0.262091,0.41744 0.496938,0.98304 z m -2.880945,6.17486 c 1.432653,2.44604 2.935116,4.35388 3.062984,4.62379 0.320999,0.67757 0.440592,1.49197 0.355164,2.34265 -0.162899,1.62208 -0.174136,2.12804 -0.26422,2.15903 -0.05359,0.0186 -1.722301,-1.53534 -3.350863,-3.59075 -1.779741,-2.2462 -3.040733,-4.4308 -3.626521,-5.62682 -0.102718,-0.20782 -0.158237,-0.33513 -0.158301,-0.35963 -4.16e-4,-0.16008 0.301029,-1.23605 0.673165,-2.2878 0.366849,-1.03682 0.788865,-2.00183 0.829947,-1.99749 0.03981,0.004 0.962731,2.23373 2.424868,4.64492 0.01785,0.0307 0.03578,0.0614 0.05378,0.0921 z m -10.421952,0.18572 c 0.459109,0.94475 0.870882,1.81201 0.879175,1.94526 0.01,0.15995 -0.296483,1.92786 -0.494778,3.69122 -0.198296,1.76336 -0.293788,3.51864 -0.333504,3.529 -0.08533,0.0223 -1.230305,-1.60322 -1.463479,-2.05409 -0.241974,-0.46791 -0.43869,-1.19888 -0.550605,-2.14934 -0.08755,-0.74186 -0.102737,-1.42119 0.350324,-3.80626 0.09968,-0.52474 0.203957,-1.00827 0.304397,-1.43361 0.217536,-0.82515 0.400423,-1.38201 0.436097,-1.40671 0.04854,-0.0336 0.354913,0.58885 0.736776,1.40671 0,0 0,0 0,0 0.04428,0.0903 0.08973,0.18344 0.135597,0.27782 z m 6.791319,3.11118 c 0.51835,0.8135 0.986748,1.52684 1.012912,1.62544 0.02099,0.0791 -0.461621,3.29453 -0.443976,6.77596 0.02011,3.96862 0.510145,6.70368 0.634186,7.79971 0.06988,0.6175 -0.125223,1.13019 -0.452137,1.12978 -0.299512,-3.7e-4 -1.900803,-1.26984 -2.165544,-1.72063 -0.07773,-0.13242 -0.196723,-0.62142 -0.259827,-1.09596 -0.173381,-1.30377 -0.542386,-4.70717 -0.305248,-8.79821 0.217054,-3.74456 0.990907,-7.09478 1.01322,-7.13722 0.02641,-0.0503 0.448067,0.60761 0.966414,1.42113 z m -5.025077,0.24129 c 0.266516,0.33779 1.989801,3.1586 1.994907,3.1906 0.01981,0.12415 -0.386828,4.37363 -0.06534,8.74181 0.321491,4.36819 1.357939,8.78087 1.340588,8.84828 -0.02872,0.1115 -1.702406,-1.18269 -2.190695,-1.72801 -0.443827,-0.49567 -1.045399,-1.74595 -1.233675,-2.58092 -0.08207,-0.36394 -0.718766,-4.34313 -0.687137,-8.74297 0.03163,-4.39984 0.665263,-7.88151 0.668636,-7.90269 0.0034,-0.0212 0.08092,0.0576 0.172713,0.1739 z m 10.745575,6.69407 c 2.23253,2.15206 4.302181,3.59309 4.384709,3.66814 0.113961,0.10365 0.165565,0.40186 0.267373,1.25238 0.194015,1.62412 0.220358,2.0365 -0.172911,2.25679 -0.29812,0.167 -0.434112,0.23874 -3.001113,-1.667 -5.555572,-4.1245 -5.737631,-5.15537 -5.765823,-5.26355 -0.02531,-0.0971 -2.27e-4,-1.25559 0.09699,-2.37145 0.09721,-1.11587 0.264251,-2.18682 0.292433,-2.18401 0.02977,0.003 1.665812,2.15664 3.898344,4.3087 z m -2.612808,3.36035 c 0.929762,0.84988 1.782999,1.57324 1.864998,1.67809 0.106705,0.13642 0.181536,0.5554 0.29427,1.4009 0.253581,1.90176 0.308508,2.19153 -0.107295,2.41974 -0.297212,0.16313 -0.423757,0.1615 -1.822585,-0.93937 -0.816163,-0.64229 -1.51257,-1.28796 -1.584408,-1.41145 -0.0688,-0.11824 -0.137474,-0.3847 -0.152579,-0.59514 -0.01503,-0.20953 -0.107017,-1.20606 -0.162141,-2.20716 -0.05512,-1.00109 -0.04799,-1.84372 -0.02839,-1.88132 0.01963,-0.0376 0.768364,0.68583 1.69813,1.53571 z M 65.702067,55.116129 c -0.07205,0.16178 -2.516912,2.277961 -4.607363,4.543097 -2.09045,2.265137 -3.839247,4.651296 -3.967933,4.699823 -0.02307,0.0087 -2.58172,0.685083 -2.842118,0.741378 -0.149409,0.0323 -0.568612,0.159974 -0.960137,0.297489 -0.384582,0.135075 -0.727051,0.212181 -0.761051,0.165017 -0.0326,-0.04522 1.614432,-2.862474 3.740399,-5.549011 2.125967,-2.686537 4.746629,-5.194323 4.90417,-5.273199 0.104046,-0.05213 1.032234,-0.180979 2.075515,-0.252494 1.465508,-0.100457 1.967238,-0.04796 2.192308,0.09301 0.33636,0.210678 0.351278,0.254082 0.226261,0.534877 -1.7e-5,5e-6 -3.4e-5,9e-6 -5.1e-5,1.4e-5 z m 3.501698,13.727948 c -0.831871,0.884082 -1.152721,1.1093 -2.098156,1.394294 -0.582267,0.175532 -1.230146,0.03821 -5.180442,0.642925 -2.651515,0.405898 -4.703523,0.985407 -5.140851,1.099711 -0.355686,0.09296 -1.068164,0.298984 -1.834575,0.552796 -0.70905,0.234819 -1.317878,0.415142 -1.352283,0.376235 -0.06491,-0.07422 1.315071,-2.943029 1.505583,-3.109585 0.05945,-0.05196 0.87126,-0.321021 1.803004,-0.557742 1.242192,-0.3156 3.986013,-0.97255 7.403209,-1.258084 3.117012,-0.260443 5.553889,-0.03241 5.568653,0.02832 0.01441,0.05842 -0.296509,0.429799 -0.674142,0.83113 z m -4.176177,-7.003655 c -0.743407,0.761358 -1.384186,1.441636 -1.471654,1.489383 -0.134791,0.07358 -1.314199,0.20826 -2.424113,0.348504 -1.122279,0.141806 -2.212938,0.295436 -2.203982,0.223283 0.01238,-0.0997 0.710056,-1.053528 1.497187,-1.980988 0.796596,-0.93861 1.650171,-1.816538 1.810637,-1.904234 0.369592,-0.201984 3.27254,-0.414375 3.716597,-0.2841 0.134023,0.03935 0.292982,0.222753 0.354652,0.407703 0.112886,0.339323 -0.0048,0.395128 -1.279324,1.700449 z m 1.604726,3.581468 c -0.722277,0.852815 -0.98469,1.142706 -1.267204,1.246773 -0.139163,0.05126 -3.843722,0.292091 -7.605784,1.15273 -3.762063,0.860639 -7.510777,2.328742 -7.60561,2.319206 -0.15315,-0.01538 1.42604,-3.156814 1.698851,-3.346646 0.09743,-0.06776 0.356612,-0.171575 0.579953,-0.230982 0.222331,-0.05914 3.480517,-1.134019 7.217886,-1.785127 7.078796,-1.233224 7.269453,-0.676031 7.448111,-0.181551 0.04407,0.121969 -0.146193,0.447748 -0.466203,0.825597 z M 53.482186,61.181463 c -0.694135,0.979586 -1.165412,1.711067 -1.35596,2.001235 -0.190681,0.290358 -1.232362,1.891294 -2.3442,4.002755 -1.063156,2.019011 -1.839257,3.780593 -1.931019,3.883211 -0.118158,0.132136 -1.229858,0.689288 -2.265607,1.217007 -1.046818,0.533359 -2.051162,1.055798 -2.050921,0.966385 2.67e-4,-0.08311 0.815385,-2.645773 2.24435,-5.675559 2.667283,-5.65534 3.828687,-6.373384 4.885163,-6.928882 0.719056,-0.378078 3.886491,-1.273537 3.958676,-1.154085 0.02576,0.04264 -0.508036,0.795402 -1.140482,1.687933 z m 4.767533,12.226766 c -0.561611,1.08846 -0.758798,1.335718 -1.624093,1.948468 -0.477448,0.3381 -0.761279,0.422476 -2.253574,0.984826 -0.955859,0.360204 -1.926555,0.754352 -2.160893,0.830834 -0.142021,0.04635 -0.284053,0.09346 -0.426086,0.141343 0.167337,-0.513228 0.34489,-1.026581 0.532766,-1.539607 0.400253,-1.092956 0.678782,-1.594877 0.861471,-1.716528 0.166415,-0.110808 1.455046,-0.602457 2.799481,-1.011018 1.32102,-0.401446 2.623208,-0.692629 2.707035,-0.672189 0.0561,0.01367 -0.14907,0.477544 -0.436107,1.033871 z m -6.759041,1.843858 c -1.018081,2.712716 -1.660249,5.156506 -1.802295,5.433719 -0.356949,0.696619 -0.952835,1.316592 -1.705344,1.78622 -1.433789,0.8948 -1.858913,1.190244 -1.938284,1.136091 -0.05242,-0.03562 0.326268,-2.887048 1.134399,-5.799176 0.808131,-2.912129 2.05986,-5.839399 2.157042,-5.919059 0.121168,-0.09932 1.151242,-0.551687 2.201266,-0.942794 1.037661,-0.386502 2.056178,-0.695414 2.07957,-0.66123 0.02275,0.03371 -1.108271,2.253515 -2.126354,4.966229 z m -6.698091,-7.940348 c -0.431777,0.925869 -0.842683,1.770735 -0.941166,1.858484 -0.117267,0.104487 -1.675395,0.932826 -3.179798,1.829269 -1.504403,0.896443 -2.953369,1.857581 -2.985819,1.83191 -0.04802,-0.03799 0.521203,-1.950555 0.721904,-2.382255 0.218133,-0.469178 0.668421,-1.056251 1.337661,-1.707279 0.535649,-0.521353 1.02696,-0.907231 3.152379,-1.987298 1.360871,-0.691548 2.541066,-1.179284 2.603019,-1.161124 0.06193,0.01818 -0.27493,0.789254 -0.70818,1.718293 z m 1.831941,7.213119 c -0.321283,0.917334 -0.60307,1.735067 -0.665754,1.81736 -0.05027,0.06601 -2.920342,1.680311 -5.734406,3.779671 -3.270513,2.439882 -5.088131,4.325228 -5.96613,5.121332 -0.460934,0.417941 -0.991337,0.558117 -1.182244,0.291746 -0.173615,-0.242243 -0.0843,-2.291837 0.124284,-2.76952 0.06146,-0.140676 0.387548,-0.523823 0.734513,-0.853128 0.978515,-0.92872 3.468053,-3.172372 6.919247,-5.462487 3.133792,-2.079496 6.238929,-3.563339 6.286053,-3.572434 0.05583,-0.01081 -0.194273,0.730124 -0.515563,1.64746 z M 43.31303,70.716907 c -0.101427,0.43096 -1.234269,3.466894 -1.277669,3.512564 -0.08641,0.09093 -3.716651,2.32528 -7.050564,5.153825 -3.333913,2.828546 -6.298889,6.241612 -6.363511,6.266901 -0.106894,0.04181 -0.04137,-2.077889 0.111909,-2.793995 0.139204,-0.650323 0.793994,-1.871064 1.354798,-2.510577 0.24476,-0.279117 3.079591,-3.108498 6.606772,-5.680407 3.527178,-2.571912 6.627652,-4.179167 6.64623,-4.189334 0.01864,-0.01019 0.0056,0.0984 -0.02797,0.241023 z m 1.185358,12.705166 c -0.440297,3.132879 -0.438862,5.680998 -0.453042,5.792963 -0.02041,0.161083 -0.234387,0.372136 -0.881189,0.957426 -1.226877,1.109673 -1.55231,1.367463 -1.959524,1.176463 -0.309764,-0.145292 -0.442594,-0.203197 -0.373045,-3.41952 0.06959,-3.217533 0.485835,-5.755972 0.620853,-6.545007 0.183419,-1.071892 0.244044,-1.251263 0.279508,-1.295352 0.06369,-0.07917 1.019364,-0.758584 1.980781,-1.363936 0.961418,-0.605352 1.925131,-1.137887 1.940119,-1.113591 0.01545,0.02595 -0.71417,2.677679 -1.154461,5.810554 z m -4.306094,-0.104027 c -0.144485,1.263729 -0.237398,2.38773 -0.275249,2.516592 -0.04919,0.167464 -0.349045,0.476713 -0.975613,1.065271 -1.407048,1.32171 -1.613676,1.533016 -2.040827,1.328248 -0.307485,-0.147402 -0.376914,-0.249627 -0.297402,-2.033586 0.04636,-1.040483 0.163114,-1.988913 0.221152,-2.11941 0.05581,-0.12552 0.232462,-0.338307 0.394922,-0.474512 0.161808,-0.135642 0.919364,-0.797713 1.701862,-1.436911 0.782491,-0.639188 1.472107,-1.138092 1.514395,-1.144688 0.04228,-0.0066 -0.09876,1.035336 -0.24324,2.298996 z m 73.346956,-17.65235 c -0.17301,0.03973 -3.32184,-0.648545 -6.39018,-1.005207 -3.06835,-0.356661 -6.03052,-0.39065 -6.14497,-0.466853 -0.0113,-0.0075 -2.070105,-1.702251 -2.258412,-1.871816 -0.113586,-0.10228 -0.461188,-0.366601 -0.801518,-0.603009 -0.334023,-0.232029 -0.596722,-0.463501 -0.578437,-0.518376 0.01754,-0.05263 3.265057,-0.358865 6.694577,-0.210963 3.42953,0.147902 6.99798,0.768289 7.15393,0.847918 0.10301,0.05257 0.749,0.721595 1.4165,1.514857 0.93804,1.11479 1.1897,1.54483 1.20787,1.810615 0.027,0.395617 9.9e-4,0.433866 -0.29932,0.502866 -10e-6,-1.1e-5 -3e-5,-2.2e-5 -4e-5,-3.2e-5 z m -9.04047,11.057433 c -1.22876,-0.162935 -1.61663,-0.301127 -2.41768,-0.916533 -0.49489,-0.380183 -0.79783,-1.010719 -3.588184,-3.905634 -1.88951,-1.960316 -3.493298,-3.252588 -3.855903,-3.556631 -0.279862,-0.234666 -0.853152,-0.690137 -1.497643,-1.159794 -0.595535,-0.433977 -1.090291,-0.816705 -1.079172,-0.866953 0.02168,-0.09549 3.116924,-0.65752 3.361308,-0.600394 0.07625,0.01784 0.762631,0.517502 1.492996,1.13637 0.998272,0.84587 3.064722,2.655377 5.339398,5.32281 2.04979,2.403728 3.37701,4.562047 3.33787,4.609047 -0.0387,0.04683 -0.53317,0.01195 -1.09299,-0.06229 z m 3.19042,-7.580582 c -1.06003,-0.152231 -1.99276,-0.273952 -2.08329,-0.317124 -0.14089,-0.06719 -0.94384,-0.948386 -1.70911,-1.771299 -0.77309,-0.831312 -1.53432,-1.628824 -1.47034,-1.66367 0.0884,-0.04815 1.27239,-0.03749 2.48869,0.05763 1.22948,0.09615 2.44811,0.270314 2.61217,0.347799 0.37477,0.177005 2.26704,2.408634 2.42279,2.84026 0.0475,0.131819 -0.007,0.370091 -0.1202,0.530572 -0.20627,0.29159 -0.32514,0.23658 -2.14071,-0.02416 z m -1.95958,3.433833 c -1.12659,-0.08653 -1.52273,-0.133972 -1.77444,-0.303838 -0.12473,-0.08417 -2.51476,-2.990844 -5.395398,-5.550828 -2.880641,-2.559984 -6.244121,-4.704213 -6.292144,-4.785707 -0.07757,-0.131599 3.373853,-0.700695 3.686818,-0.591587 0.111823,0.03902 0.347177,0.187274 0.525807,0.332816 0.177749,0.144827 2.942484,2.148485 5.654397,4.812881 2.39988,2.35783 3.7841,4.183488 4.19684,4.789441 0.54225,0.796094 0.49438,0.973912 0.35046,1.188478 -0.0728,0.108542 -0.45238,0.146742 -0.95234,0.108344 z m -4.26934,-13.1866 c -1.20699,0.01059 -2.070036,0.05597 -2.420956,0.07141 -0.3343,0.0147 -2.272018,0.10692 -4.616255,0.446582 -2.25353,0.32652 -4.118919,0.748764 -4.255187,0.736347 -0.173021,-0.01577 -1.281299,-0.572138 -2.321464,-1.076875 -1.053285,-0.511104 -2.080434,-0.988702 -2.009386,-1.042445 0.06474,-0.04892 2.606016,-0.953461 5.892809,-1.593608 6.129194,-1.19374 7.469,-0.638712 8.510089,-0.127207 0.73105,0.359186 3.31669,2.393599 3.26164,2.521763 -0.0196,0.04574 -0.94491,0.05442 -2.04129,0.06404 z m -7.129278,10.970675 c -1.197346,0.175248 -1.499456,0.159821 -2.482421,-0.180849 -0.550159,-0.190671 -0.757556,-0.363029 -2.061114,-1.2282 -0.828477,-0.549858 -1.693517,-1.083488 -1.887984,-1.223164 -0.117853,-0.08465 -0.236377,-0.16874 -0.35557,-0.252253 0.496324,-0.174775 1.000433,-0.3396 1.511876,-0.494368 1.088744,-0.329464 1.651517,-0.399941 1.851394,-0.326062 0.187125,0.06917 1.312647,0.807891 2.413285,1.657047 1.078569,0.832128 2.060527,1.723293 2.092197,1.803353 0.02124,0.05365 -0.470749,0.155071 -1.081663,0.244496 z m -5.342831,-4.345096 c -2.72452,0.800681 -4.963533,1.805471 -5.257553,1.866499 -0.738158,0.153219 -1.55622,0.08083 -2.355794,-0.199951 -1.525203,-0.535597 -2.009875,-0.662785 -2.017667,-0.758693 -0.0053,-0.06324 2.363972,-1.617263 5.104118,-2.766077 2.740146,-1.148813 5.809213,-1.875169 5.92978,-1.844752 0.152461,0.03846 1.114238,0.591219 2.040869,1.204525 0.914047,0.604976 1.752493,1.245266 1.738612,1.284029 -0.01387,0.03798 -2.457846,0.413741 -5.182365,1.21442 z m 2.36181,-10.027896 c -1.005178,0.200686 -1.934046,0.374554 -2.063284,0.348417 -0.154987,-0.03134 -1.765054,-0.779574 -3.417125,-1.432406 -1.65207,-0.652832 -3.344666,-1.210379 -3.344769,-1.251693 -1.52e-4,-0.06114 1.89668,-0.77293 2.370591,-0.874089 0.51506,-0.109933 1.271303,-0.105641 2.212837,0.03751 0.739474,0.112235 1.386208,0.276877 3.542953,1.330839 1.386912,0.677759 2.488624,1.337025 2.511139,1.397284 0.02252,0.06035 -0.802908,0.242592 -1.812342,0.444133 z m -4.652089,5.743243 c -0.914607,0.297949 -1.723225,0.574246 -1.825248,0.57513 -0.07505,6.57e-4 -2.578342,-1.081195 -5.645998,-1.901554 -4.219876,-1.135083 -7.33376,-1.294873 -8.611797,-1.443783 -0.61825,-0.07203 -1.073981,-0.376926 -0.998601,-0.695028 0.06939,-0.292834 1.677875,-1.564671 2.185927,-1.721756 0.148211,-0.04579 0.655142,-0.05061 1.135706,-0.0033 0.856359,0.08429 3.326883,0.368443 6.288765,1.117524 4.481909,1.180447 9.037566,3.455639 9.080626,3.494634 0.04181,0.03782 -0.694769,0.2802 -1.60938,0.578144 z m 1.022674,-4.902273 c -0.382463,0.166439 -3.543731,1.109974 -3.578785,1.106426 -0.08921,-0.009 -2.119,-0.795775 -4.915134,-1.511086 -10e-7,0 -10e-7,0 -10e-7,-10e-7 -2.724054,-0.654861 -5.452437,-1.059113 -8.176836,-1.25464 -2.523824,-0.181132 -4.431837,-0.138567 -4.471863,-0.158904 -0.102741,-0.05222 1.550874,-1.401801 2.200685,-1.758527 0.591588,-0.324755 1.961179,-0.63561 2.830899,-0.63307 0.373383,0.0011 3.694076,0.195502 7.617114,1.066907 10e-7,0 10e-7,0 10e-7,0 0.395825,0.09802 0.794186,0.201804 1.194761,0.311594 4.333593,1.187752 7.489476,2.700976 7.50893,2.709659 0.01951,0.0087 -0.07532,0.06311 -0.209771,0.121642 z m -9.172521,8.769071 c -2.626473,1.620608 -4.465589,3.266289 -4.555987,3.327554 -0.124837,0.0846 -0.421298,0.05943 -1.257373,-0.04827 -1.597594,-0.206191 -1.996956,-0.268967 -2.123183,-0.704087 -0.09497,-0.327387 -0.148712,-0.47847 2.271863,-2.512111 4.288,-3.602512 5.971255,-4.107241 6.343281,-4.275151 0.0824,-0.0377 0.11778,-0.04769 0.138133,-0.04787 0.101308,-9.18e-4 1.227356,0.309671 2.28799,0.680571 1.060634,0.370901 2.056032,0.79756 2.046197,0.824209 -0.0099,0.0256 -2.106616,0.893158 -4.472319,2.346492 -10e-7,10e-7 -10e-7,10e-7 -10e-7,10e-7 -0.224592,0.131982 -0.450862,0.268144 -0.678601,0.408666 z M 75.919239,62.20285 c -1.048851,0.699188 -1.947373,1.35493 -2.06794,1.409487 -0.157563,0.0713 -0.579103,0.04263 -1.423877,-0.04713 -1.89922,-0.201802 -2.190175,-0.206258 -2.318693,-0.665556 -0.09058,-0.323703 -0.063,-0.450603 1.325723,-1.555013 0.811815,-0.645633 1.603403,-1.172768 1.741212,-1.214053 0.131462,-0.0394 0.407183,-0.04387 0.616023,-0.009 0.380795,0.06353 1.029462,0.147481 2.191604,0.368054 0.990364,0.187973 1.812257,0.403502 1.844201,0.431978 0.03191,0.02849 -0.859396,0.582089 -1.908253,1.281282 z m 60.147551,46.9712 c -0.14212,-0.11198 -1.64682,-3.06307 -3.37896,-5.64896 -1.73213,-2.58589 -3.66303,-4.820619 -3.68166,-4.956717 -0.0347,-0.25352 -0.10124,-2.443 -0.0983,-2.930554 9.4e-4,-0.153062 -0.0326,-0.588163 -0.0822,-0.999898 -0.0487,-0.403907 -0.0505,-0.754202 0.003,-0.777089 0.0509,-0.02195 2.43801,2.191096 4.58813,4.888206 2.15012,2.697112 4.01358,5.893182 4.05519,6.068112 0.0275,0.11566 -0.0562,1.06442 -0.22588,2.11584 -0.23827,1.47635 -0.40952,1.96346 -0.59992,2.15063 -0.28598,0.28112 -0.33235,0.28479 -0.579,0.0905 0,-2e-5 0,-4e-5 0,-6e-5 z m -14.31356,0.0409 c -0.64283,-1.01565 -0.77511,-1.3692 -0.80984,-2.34462 -0.0213,-0.59855 0.30388,-1.18564 0.64471,-5.1102 0.22774,-2.622346 0.11294,-4.747536 0.0983,-5.181309 -0.0123,-0.365032 -0.0563,-1.090718 -0.13812,-1.886507 -0.0755,-0.733878 -0.12156,-1.360238 -0.0765,-1.385466 0.0858,-0.04743 2.57451,1.889712 2.69487,2.109626 0.0375,0.06862 0.12306,0.911989 0.14722,1.864118 0.0319,1.257762 0.0619,4.075848 -0.48768,7.424598 -0.50122,3.05424 -1.37949,5.36224 -1.44087,5.36162 -0.0609,-4.2e-4 -0.34085,-0.39164 -0.63214,-0.85186 z m 7.88305,-2.36101 c -0.56521,-0.91073 -1.076,-1.69549 -1.10177,-1.79197 -0.0392,-0.14669 0.10841,-1.33111 0.22794,-2.44153 0.1211,-1.12504 0.21755,-2.22122 0.28569,-2.19611 0.0942,0.0347 0.86435,0.93053 1.58792,1.91475 0.73266,0.99658 1.3915,2.04013 1.44026,2.21952 0.11334,0.41694 -0.35997,3.30223 -0.59988,3.71587 -0.0708,0.12207 -0.28888,0.23304 -0.48508,0.24804 -0.36185,0.0274 -0.384,-0.10383 -1.35508,-1.66857 z m -3.88819,0.70054 c -0.65188,-0.90572 -0.86885,-1.22473 -0.90084,-1.5236 -0.0157,-0.14662 0.653,-3.78477 0.65614,-7.615615 0.003,-3.830845 -0.64541,-7.782937 -0.61634,-7.873171 0.0469,-0.145724 2.76925,2.054721 2.89588,2.36101 0.0452,0.10945 0.091,0.383903 0.10118,0.614143 0.0101,0.22912 0.36563,3.631533 0.14855,7.410773 -0.41118,7.15811 -1.06769,7.22472 -1.59518,7.27856 -0.13018,0.0133 -0.4006,-0.25087 -0.68939,-0.6521 z m 7.14533,-11.831383 c -0.80235,-0.896361 -1.41701,-1.521122 -1.65688,-1.769117 -0.2438,-0.252058 -1.57501,-1.617394 -3.39774,-3.151131 -1.74108,-1.46504 -3.2961,-2.584181 -3.37708,-2.694786 -0.10373,-0.141665 -0.41811,-1.341162 -0.72079,-2.459065 -0.30613,-1.130581 -0.61211,-2.218282 -0.52491,-2.199802 0.0795,0.01688 2.41838,1.334938 5.07317,3.365174 4.94918,3.784855 5.41483,5.132519 5.72607,6.26883 0.21587,0.788129 0.40753,4.093933 0.27546,4.137511 -0.0471,0.01555 -0.66462,-0.679103 -1.3973,-1.497614 z m -12.91194,1.965915 c -0.93091,-0.769913 -1.12303,-1.004689 -1.53049,-1.965112 -0.22686,-0.534745 -0.24178,-0.812063 -0.47372,-2.371202 -0.14803,-0.99511 -0.33012,-2.013479 -0.35602,-2.255659 -0.0157,-0.146772 -0.0322,-0.293748 -0.0495,-0.440916 0.46491,0.265074 0.9274,0.540454 1.387,0.826244 0.97874,0.608602 1.40787,0.982318 1.48732,1.183484 0.073,0.184946 0.27827,1.5301 0.38321,2.912811 0.10302,1.357565 0.0941,2.671504 0.0556,2.747755 -0.0258,0.05105 -0.42874,-0.244866 -0.90339,-0.637405 z m -0.34323,-6.90193 c -2.42694,-1.537493 -4.6843,-2.64392 -4.92646,-2.836945 -0.6084,-0.484953 -1.09543,-1.187429 -1.40492,-2.014235 -0.5897,-1.575432 -0.79597,-2.051624 -0.72695,-2.118407 0.0454,-0.04413 2.76925,0.893245 5.44913,2.264858 2.67989,1.371613 5.26911,3.19058 5.32649,3.30153 0.0718,0.138873 0.29815,1.232956 0.45767,2.334406 0.15757,1.087992 0.24003,2.14039 0.20185,2.155852 -0.0376,0.01494 -1.94987,-1.549564 -4.37681,-3.087059 z m 9.11166,-4.880901 c -0.81314,-0.616091 -1.55281,-1.193294 -1.6181,-1.307587 -0.0779,-0.136301 -0.56717,-1.831036 -1.13638,-3.487605 -0.56921,-1.656568 -1.21426,-3.272651 -1.18261,-3.299209 0.0468,-0.0393 1.79879,0.909904 2.17938,1.195282 0.4136,0.310144 0.89511,0.872258 1.39407,1.662498 0.39808,0.630101 0.67786,1.196327 1.29496,3.500082 0.39557,1.476729 0.62715,2.734329 0.59669,2.791067 -0.0305,0.05669 -0.71196,-0.436237 -1.52801,-1.054528 z m -7.40394,0.298868 c -0.82898,-0.499472 -1.57009,-0.939169 -1.63772,-1.016898 -0.0543,-0.06234 -1.05088,-3.186494 -2.54003,-6.367673 -1.72809,-3.691615 -3.2122,-5.877929 -3.80818,-6.897602 -0.31495,-0.538855 -0.34222,-1.088865 -0.0412,-1.221608 0.2732,-0.120495 2.2654,0.388124 2.68942,0.689816 0.12511,0.08905 0.4334,0.487623 0.68474,0.895364 0.70278,1.140119 2.40465,4.061161 3.94234,7.89244 1.39991,3.487981 2.21182,6.816717 2.21102,6.864487 -9e-4,0.0566 -0.67137,-0.338848 -1.50034,-0.838326 z m 4.3879,-2.452469 c -0.39463,-0.185604 -3.13528,-1.920487 -3.16795,-1.96767 -0.0713,-0.102988 -1.5222,-4.107297 -3.61093,-7.953403 -2.08873,-3.846106 -4.80444,-7.460865 -4.81552,-7.529527 -0.0183,-0.113573 2.04045,0.386579 2.70842,0.683628 0.60606,0.269523 1.66368,1.162323 2.17243,1.842873 0.22218,0.2972 2.40434,3.657227 4.20194,7.638271 1.7976,3.981042 2.7348,7.342591 2.74092,7.362845 0.006,0.02032 -0.0971,-0.01484 -0.22931,-0.07702 z m -12.66216,-1.410486 c -2.98866,-1.058985 -5.50953,-1.579748 -5.6174,-1.616689 -0.15488,-0.05304 -0.32145,-0.306823 -0.77022,-1.064281 -0.8515,-1.437948 -1.03902,-1.814995 -0.76736,-2.174966 0.20707,-0.27439 0.29647,-0.385681 3.45481,0.344553 6.83538,1.58044 7.45279,2.385825 7.5249,2.473027 0.0647,0.0783 0.53797,1.150712 0.93661,2.212066 0.39863,1.061354 0.72428,2.10857 0.69751,2.118306 -0.0285,0.0099 -2.47019,-1.233037 -5.45885,-2.292016 z m 0.96751,-4.198995 c -1.21203,-0.397696 -2.2994,-0.718256 -2.41855,-0.781743 -0.15462,-0.08238 -0.39874,-0.440233 -0.85047,-1.176779 -1.01488,-1.654744 -1.17859,-1.904209 -0.8896,-2.280806 0.20909,-0.27248 0.32324,-0.317547 2.06187,0.127816 1.01338,0.259567 1.92084,0.56782 2.03708,0.651424 0.11184,0.08042 0.28473,0.297341 0.38531,0.484587 0.10019,0.186519 0.59592,1.065132 1.06462,1.962293 0.4687,0.897152 0.81878,1.673646 0.81672,1.716421 -0.002,0.04275 -0.99495,-0.305515 -2.20698,-0.703213 z"
       inkscape:export-filename="weave_wreathe_black_5_thick.svg"
       inkscape:export-xdpi="96"
       inkscape:export-ydpi="96" />
  </g>
</svg>
