<?xml version="1.0" encoding="UTF-8" standalone="no"?>
<!-- Created with Inkscape (http://www.inkscape.org/) -->

<svg
   width="193.48318mm"
   height="187.34906mm"
   viewBox="0 0 193.48318 187.34906"
   version="1.1"
   id="svg5"
   xml:space="preserve"
   xmlns="http://www.w3.org/2000/svg"
   xmlns:svg="http://www.w3.org/2000/svg"><defs
     id="defs2" /><g
     id="layer5"
     transform="translate(-6.4920884,16.499876)"><path
       id="path402"
       style="fill:#010101;fill-opacity:1;fill-rule:evenodd;paint-order:markers stroke fill"
       d="m 129.38236,130.98654 c 0.43762,-0.15924 3.98501,-0.97508 8.16806,-2.56669 4.59392,-1.74795 8.55285,-3.84456 12.01095,-6.07364 2.15749,-1.38116 3.5393,-2.42901 3.53468,-2.37408 -0.0166,0.19753 -1.19952,2.89967 -1.60721,3.60327 -0.0587,0.10136 -0.14916,0.27986 -0.24886,0.48538 -0.10445,0.21604 -0.22607,0.47643 -0.32592,0.70028 -0.19863,0.44527 -0.53798,0.96428 -0.75862,1.16719 -0.20809,0.19138 -6.73017,4.19863 -13.63692,6.53341 -6.90676,2.33478 -13.91812,3.04983 -14.0335,3.00992 -0.0737,-0.0254 0.68876,-0.65697 1.65188,-1.4337 1.41827,-1.1438 1.90374,-1.5173 2.82322,-1.98043 1.3185,-0.6641 1.28032,-0.6554 2.42223,-1.07094 z M 164.7895,80.487378 c 0.76044,-2.72034 0.95176,-3.321228 1.51006,-3.089998 0.35327,0.14626 1.03559,0.884399 2.39196,7.093509 0.90232,4.130562 1.15796,7.61406 1.20136,8.314641 0.0513,0.828403 0.1097,1.555261 0.16825,3.03571 0.0464,1.172052 -0.015,2.325062 -0.10342,2.592646 -0.0966,0.292043 -1.09945,2.140114 -2.27856,3.989154 -1.15212,1.8067 -2.40082,3.47774 -2.49842,3.53296 -0.0609,0.0344 0.0548,-1.13881 0.18867,-2.59571 0.17976,-1.9569 0.48682,-6.195989 0.003,-11.372872 -0.43828,-4.688267 -1.35796,-8.462406 -1.32624,-8.734637 0.028,-0.241458 0.39918,-1.53367 0.7435,-2.765403 z m -12.20058,33.998782 c 1.75999,-1.48421 3.18764,-2.85267 3.26389,-2.87839 0.12864,-0.0434 -0.20865,1.42801 -0.71119,2.96316 -0.50894,1.5547 -1.16314,3.10885 -1.38553,3.3401 -0.39069,0.40623 -2.53699,2.11803 -4.94523,3.66858 -2.07931,1.3498 -4.10205,2.40714 -4.226,2.4174 -0.25496,0.0211 1.52333,-3.33679 2.11211,-4.11131 0.0478,-0.0629 0.11973,-0.1487 0.20938,-0.25141 0.28168,-0.31958 0.86447,-0.94217 1.31105,-1.40676 1.67657,-1.74394 0.70772,-0.65169 4.37152,-3.74137 z m 8.88532,-15.800237 c 1.4542,-2.336465 1.86882,-3.11849 2.01354,-3.071562 0.0748,0.02426 0.30145,5.406599 -0.53324,11.056949 -0.8347,5.65035 -2.80167,11.4235 -2.98193,11.71633 -0.16734,0.27186 -1.77354,1.78856 -3.51896,3.19416 -1.71438,1.38061 -3.4717,2.5646 -3.53592,2.51924 -0.0453,-0.0322 0.0734,-0.33293 0.25916,-0.66941 0.18586,-0.3367 2.31999,-4.73502 3.76935,-9.84364 1.12031,-3.9488 1.81141,-8.25065 1.94727,-8.93627 0.32473,-1.63875 0.55675,-2.17693 1.0784,-3.34507 0.23391,-0.5238 0.86504,-1.596792 1.50233,-2.620727 z m -25.57675,35.628687 c 2.45489,-0.78361 4.2891,-1.52486 4.97127,-1.79938 0.62989,-0.25347 4.7031,-1.86892 9.41072,-4.7153 1.01053,-0.611 1.958,-1.21856 2.8448,-1.81447 0,0 0,0 0,0 3.12073,-2.09469 5.2739,-3.90732 5.36544,-3.93724 0.15046,-0.0492 -0.31317,1.24387 -0.98424,2.69738 -0.69404,1.50327 -1.52935,3.00724 -2.00991,3.66197 -0.0828,0.1126 -0.1496,0.19123 -0.19567,0.22861 -0.24706,0.20039 -5.89874,4.13925 -13.05728,7.05594 -6.47755,2.63921 -11.4216,3.53543 -12.75813,3.72909 -1.91953,0.27813 -2.00002,0.0573 -1.8643,-0.36496 0.1014,-0.31549 3.23336,-3.14536 3.74931,-3.3813 0.22369,-0.10229 2.27052,-0.63974 4.52799,-1.36034 z m 35.47129,-51.506634 c 0.86129,-3.010861 1.01821,-3.592401 1.60096,-3.573551 0.2967,0.0096 0.55316,0.486176 1.17092,2.988879 0.42763,1.732379 0.7169,3.400227 0.77753,3.998872 0.032,0.316032 0.0618,0.632769 0.0894,0.95018 -0.47553,1.426278 -0.99561,2.828864 -1.55764,4.205808 -1.20289,2.947022 -1.84679,4.006718 -1.94054,3.894722 -0.0711,-0.08492 -0.19388,-2.302637 -0.4364,-4.521737 -0.24251,-2.219099 -0.60947,-4.432812 -0.59861,-4.740328 0.007,-0.189315 0.44847,-1.643996 0.89439,-3.202845 z m 1.00285,13.404681 c 3.42888,-6.917994 5.15661,-13.756228 5.35969,-14.252206 0.49927,-1.2194 0.98724,-1.198596 1.35715,0.304558 0.67229,2.731877 0.77027,3.908624 0.71062,4.371209 -0.0232,0.179846 -0.63031,2.355094 -1.7949,5.367697 -1.22209,3.16134 -2.85535,6.695266 -5.02118,10.376075 -4.17115,7.08881 -9.64385,12.80955 -9.69524,12.77594 -0.0582,-0.0381 0.37483,-1.67729 0.76139,-3.35195 0.38655,-1.67465 0.72362,-3.38392 0.82362,-3.57268 0.0983,-0.18527 4.06998,-5.10065 7.49885,-12.018643 z m -33.80348,41.933353 c 2.22912,-0.75514 4.05549,-1.45871 4.08766,-1.40766 0.037,0.0588 -1.49017,1.9071 -3.22749,3.68737 -1.73733,1.78028 -3.68425,3.47896 -3.8937,3.57598 -0.30999,0.14359 -5.07705,1.2979 -5.93887,1.41086 -0.9395,0.12312 -1.48453,-0.0204 -1.61078,-0.39087 -0.11867,-0.34425 0.24577,-0.56887 2.82833,-2.70956 1.56131,-1.29417 3.02223,-2.5624 3.2401,-2.67953 0.2443,-0.13133 2.28561,-0.73144 4.51475,-1.48659 z m 26.82198,-22.83207 c 1.66838,-1.82035 3.00916,-3.45332 3.09006,-3.49377 0.0613,-0.0307 -0.78133,4.48289 -2.51764,9.4499 -1.9162,5.48161 -4.22232,9.82054 -5.5988,12.11 0,0 0,0 0,0 -0.12724,0.21025 -0.22998,0.37467 -0.30107,0.48382 -0.69049,1.06007 -2.29632,2.73426 -3.76726,3.87163 -0.6307,0.48768 -2.11175,1.41454 -3.66871,2.26118 -1.51635,0.82456 -2.93047,1.47605 -3.16145,1.49819 -0.13908,0.0132 0.11953,-0.43204 0.55919,-0.99294 1.146,-1.46207 4.11486,-5.1955 7.0617,-10.46973 3.04661,-5.4717 4.98466,-11.14213 5.05098,-11.2677 0.074,-0.1402 1.58462,-1.63024 3.253,-3.45058 z m -18.87666,19.63083 c 0.71838,-0.38485 2.68092,-1.36963 4.43791,-2.35161 1.75699,-0.98198 3.31221,-1.94509 3.34147,-1.91308 0.039,0.0427 -3.18427,5.53483 -7.54574,10.57853 -4.36147,5.04371 -9.813,9.49831 -10.06479,9.63125 -0.22079,0.11657 -1.66128,0.52664 -3.25881,0.88867 -1.64095,0.37187 -3.226,0.64532 -3.93735,0.71345 -1.16445,0.11152 -1.59386,-0.3835 -0.93358,-0.9529 0.30031,-0.25898 5.03038,-3.49175 9.61803,-7.82156 4.58763,-4.32981 7.57932,-8.32959 7.59729,-8.35312 0.018,-0.0236 0.35438,-0.21004 0.74557,-0.41963 z m 32.29972,-40.72654 c 3.56939,-8.493127 4.8198,-16.613974 4.8812,-16.899324 0.0792,-0.36796 0.26863,-0.04518 0.70145,1.585447 0.77807,2.934011 0.88591,4.561921 0.59627,7.070637 -0.11379,0.985567 -0.22413,1.727804 -0.6549,3.206359 -0.3462,1.188228 -1.34706,4.346098 -3.2196,8.46873 -3.97091,8.742411 -8.63506,14.592491 -9.88434,16.154711 -1.85355,2.31786 -2.18341,2.5874 -2.20716,2.57279 -0.0427,-0.0262 0.43579,-1.85059 0.84419,-3.70011 0.40839,-1.84952 0.74482,-3.72254 0.81577,-3.85841 0.075,-0.14305 4.55773,-6.10769 8.12712,-14.60083 z m -6.20734,19.48776 c 2.20408,-2.84816 3.9308,-5.52013 4.08126,-5.69753 0.18049,-0.21282 0.21168,0.30121 7.6e-4,1.76256 -0.4467,3.09523 -0.86119,4.265 -2.12095,6.49326 -0.8445,1.49375 -1.54972,2.65968 -4.76106,5.99507 -2.03735,2.11607 -3.91615,3.74403 -4.04061,3.79451 -0.125,0.0507 -0.0958,-0.1933 0.0591,-0.54055 0.19096,-0.42799 0.76407,-1.81799 1.34436,-3.4545 0.55144,-1.55514 1.00878,-2.95527 1.09167,-3.1063 0.083,-0.15109 2.14137,-2.39834 4.34547,-5.24652 z m -113.552724,4.6502 c 0.09726,0.11738 0.339946,0.47546 0.736078,1.04497 1.837402,2.66807 4.726147,6.55248 9.357844,10.83361 4.134394,3.82147 8.430508,6.63308 8.339026,6.65664 -0.299413,0.0771 -3.034671,-0.14704 -3.95493,-0.31676 -0.227548,-0.042 -0.843897,-0.10745 -1.314844,-0.1436 -0.487255,-0.0374 -1.092656,-0.18201 -1.35889,-0.32105 -0.152451,-0.0796 -2.4647,-1.81377 -5.244795,-4.48121 -2.967219,-2.84698 -5.792979,-6.10925 -8.257385,-9.7415 -3.021255,-4.42536 -4.755593,-8.38509 -4.75515,-8.48064 2.76e-4,-0.0775 0.841047,0.43143 1.883017,1.07633 1.539616,0.95291 2.03717,1.27153 2.775718,1.97857 1.063119,1.01777 1.020397,0.96067 1.794327,1.89463 z m 59.827794,16.94155 c 2.8736,-0.12297 3.51778,-0.11634 3.46203,0.48634 -0.0352,0.38134 -0.57987,1.23432 -6.09988,4.48035 -3.69093,2.17044 -6.86875,3.51088 -7.54222,3.78522 -0.7725,0.31467 -1.4386,0.60077 -2.8261,1.13138 -1.09659,0.41937 -2.20864,0.73029 -2.49075,0.73214 -0.028,1.7e-4 -0.079,-0.004 -0.15034,-0.0122 -0.72518,-0.0831 -2.64159,-0.43367 -4.69902,-0.95575 -1.952644,-0.49548 -3.727829,-1.08119 -3.806848,-1.15189 -0.0521,-0.0467 1.096997,-0.31232 2.520598,-0.65145 0.957038,-0.22798 3.2321,-0.78955 5.98527,-1.74786 0,0 0,0 0,0 1.58721,-0.55001 3.1897,-1.17854 4.79724,-1.89262 4.31765,-1.91791 7.66853,-3.988 7.94142,-4.04378 0.24467,-0.0501 1.60437,-0.10407 2.9086,-0.15988 z m -36.351436,-0.68613 c 2.000793,1.18352 3.769241,2.09521 3.818695,2.15915 0.08344,0.10787 -1.426483,0.2627 -3.051762,0.28572 -1.644535,0.0233 -3.341149,-0.0866 -3.63362,-0.22033 -0.467548,-0.21384 -2.649151,-1.56978 -4.845073,-3.21786 -2.117673,-1.58934 -3.998508,-3.29264 -4.053772,-3.41189 -0.108025,-0.23309 3.679532,0.31144 4.617073,0.61135 0.307147,0.0983 1.313226,0.52978 2.103744,0.88535 2.115208,0.95157 0.988239,0.50897 5.044715,2.90851 z m 17.903446,3.3438 c 1.35302,0.31726 2.24944,0.49719 2.80073,0.6306 0.53992,0.13195 0.75043,0.21579 0.75135,0.2911 2.2e-4,0.0183 -0.26874,0.13689 -0.75135,0.32412 -2.21405,0.86383 -6.430227,2.23109 -11.868693,3.03622 -4.991064,0.7389 -9.8023,0.70004 -10.09928,0.63392 -0.310587,-0.0691 -2.273726,-1.09348 -4.181214,-2.27617 -1.874763,-1.16241 -3.586239,-2.4219 -3.565128,-2.49763 0.01507,-0.0535 0.33916,-0.0424 0.719767,0.0203 0.380826,0.0627 5.25742,0.61029 10.585262,0.32864 4.13014,-0.21833 8.417759,-0.93465 9.123068,-1.02656 1.660572,-0.21639 2.245644,-0.16853 3.520843,-0.0481 0.571665,0.054 1.791183,0.30843 2.964645,0.58359 z M 58.094821,125.58612 c 1.557233,2.02654 2.89693,3.50991 3.38068,4.04734 0.482353,0.5359 3.340439,3.73729 7.661672,7.22802 4.153825,3.3555 8.105941,5.71233 8.180937,5.81053 0.104363,0.13666 -1.548133,0.10876 -3.317875,-0.0788 -1.791267,-0.18981 -3.629529,-0.53329 -3.948277,-0.72634 -0.271321,-0.16436 -5.894414,-4.13077 -11.088481,-9.85308 -2.323859,-2.5602 -4.0292,-4.82762 -5.177467,-6.48083 0,0 -10e-7,0 -10e-7,0 -3.917992,-5.63263 -3.579974,-6.1015 -2.900684,-6.12003 0.320157,-0.009 4.034495,1.99535 4.418227,2.38964 0.08855,0.091 0.41664,0.55842 0.913004,1.24776 0.521733,0.72794 1.129634,1.5615 1.878265,2.53575 z m 60.597129,16.69662 c 3.14681,-0.12017 3.75103,-0.14172 3.9112,0.41926 0.0816,0.28561 -0.29898,0.67198 -2.49134,2.03656 -1.51591,0.94353 -3.01259,1.74434 -3.56036,1.98953 -0.2901,0.12985 -0.58146,0.25795 -0.87408,0.3843 -1.50402,-0.002 -3.00027,-0.0503 -4.48577,-0.14468 -3.17937,-0.20208 -4.39038,-0.47099 -4.3142,-0.59573 0.0578,-0.0945 2.12053,-0.92143 4.1517,-1.85938 2.03117,-0.93794 4.0261,-1.98728 4.32296,-2.07413 0.18343,-0.0537 1.7098,-0.0935 3.33989,-0.15573 z m -12.42946,5.20753 c 7.65587,1.0356 14.67816,0.54469 15.21106,0.58488 1.31292,0.099 1.43624,0.57152 0.13128,1.38604 -2.38167,1.48658 -3.44962,1.94693 -3.91192,2.03645 -0.3162,0.0613 -7.24418,0.272 -14.45925,-0.95575 0,0 0,0 0,0 -4.682791,-0.80029 -8.834459,-1.99299 -12.347255,-3.27467 -3.330143,-1.21503 -5.492107,-2.27682 -5.483698,-2.30979 0.01719,-0.0674 1.708963,-0.18785 3.419891,-0.36061 1.683928,-0.17002 3.469012,-0.39617 3.650025,-0.36679 0.178899,0.0292 4.602325,1.67929 10.761037,2.78406 0,0 0,0 0,0 0.97368,0.17473 1.98351,0.33478 3.02883,0.47618 z m -50.86088,-18.0892 c 1.469387,1.83811 2.757865,3.3119 2.720957,3.35961 -0.0331,0.0428 -1.411589,-0.42577 -3.092086,-1.12928 -1.80602,-0.75607 -3.533971,-1.59833 -4.911059,-2.35325 -0.709775,-0.39049 -1.19319,-0.68595 -1.2634,-0.75756 -0.240303,-0.24512 -2.92598,-4.37017 -3.317905,-5.14815 -0.427258,-0.84814 -0.470762,-1.4108 -0.162565,-1.65147 0.286083,-0.22502 0.61603,0.0516 3.492266,1.77842 1.7629,1.05842 3.40114,1.97263 3.606872,2.15836 0.07085,0.064 0.259107,0.30244 0.537782,0.66536 0.645651,0.84129 1.31036,1.72848 2.389138,3.07796 z m 30.530847,17.59715 c 2.259806,0.99039 4.234348,1.73586 4.298561,1.79947 0.05155,0.051 -5.050134,0.75813 -10.666265,0.66935 -6.078775,-0.0961 -11.220567,-0.97909 -12.822538,-1.3528 -1.21884,-0.28434 -3.328116,-1.21702 -4.889904,-2.2047 -1.243731,-0.78653 -5.665447,-4.71689 -5.857875,-5.11932 -0.06022,-0.12615 0.446875,-0.0359 1.124407,0.18445 2.046723,0.66566 6.809685,2.23626 13.265587,3.20797 5.767896,0.86816 11.099166,0.83811 11.231478,0.85862 0.156615,0.0242 2.056764,0.96657 4.316549,1.95696 z m -24.80066,-11.22996 c 0.608119,0.54249 2.206923,2.04727 3.728875,3.3613 1.521951,1.31403 2.952164,2.44691 2.931992,2.48531 -0.02114,0.0403 -3.875435,-0.60889 -8.567286,-2.08945 -5.16993,-1.63141 -9.712122,-3.70842 -13.461787,-5.7981 -1.785983,-1.00443 -2.932559,-1.7474 -3.022836,-1.83093 -0.349473,-0.32337 -3.377446,-5.11028 -3.93034,-6.31307 -0.492124,-1.07061 -0.164046,-1.63783 0.592081,-1.19671 0.323779,0.18888 4.42187,3.26105 9.619406,6.01258 0,0 0,0 0,0 0.329458,0.17351 0.662472,0.34575 0.999083,0.51659 5.651209,2.86824 10.432387,4.28759 10.460659,4.29638 0.02834,0.009 0.318984,0.26069 0.650153,0.5561 z m 49.078963,17.19277 c 9.17485,0.67827 17.17897,-0.59123 17.46545,-0.61839 0.37191,-0.0353 0.12081,0.24217 -1.27569,1.14658 -2.52479,1.63431 -4.00179,2.23298 -6.45913,2.73995 -0.9656,0.19922 -1.69188,0.32499 -3.22306,0.38057 -1.21672,0.0442 -4.53016,0.089 -9.01948,-0.36768 -1.6057,-0.16333 -3.09728,-0.36397 -4.46519,-0.58194 -7.508617,-1.20985 -13.067552,-3.26831 -14.595546,-3.83766 -2.2339,-0.83238 -2.546378,-1.01453 -2.540682,-1.03965 0.01108,-0.0489 1.888045,-0.18565 3.768073,-0.39344 1.880028,-0.2078 3.760765,-0.4886 3.912078,-0.46489 0.115844,0.0183 3.853693,1.26161 9.456077,2.20098 2.1224,0.35359 4.45329,0.649 6.9771,0.83557 z m -20.441991,0.34883 c 3.396804,1.17107 6.477595,1.95467 6.693632,2.04058 0.25952,0.1032 -0.218099,0.29654 -1.668211,0.56395 -3.074643,0.56701 -4.304724,0.55008 -6.814761,0.0752 -1.694529,-0.32061 -2.990586,-0.60683 -7.178413,-2.55859 -2.647947,-1.23407 -4.787065,-2.46786 -4.874896,-2.56859 -0.08823,-0.10112 0.150473,-0.15436 0.527196,-0.12284 0.461111,0.0386 1.96016,0.12125 3.686229,0.13405 1.643177,0.0122 3.111565,-0.0101 3.280752,0.0193 0.169269,0.0294 2.951646,1.24594 6.348472,2.41701 z M 49.6891,48.580846 c -0.34777,0.518889 -4.479327,5.431142 -7.546714,11.085904 -3.067387,5.654762 -4.956158,11.889921 -5.011927,11.799499 -0.103883,-0.168474 -0.755281,-3.041733 -0.844672,-3.849746 -0.02516,-0.227414 -0.139928,-0.836099 -0.239875,-1.294436 -0.10373,-0.475708 -0.138063,-1.094398 -0.08071,-1.388398 0.0541,-0.277328 2.928076,-7.38045 7.106577,-13.341822 4.1785,-5.961371 9.408555,-10.610149 9.524931,-10.644626 0.0743,-0.0221 -0.170045,0.929685 -0.488556,2.115726 -0.470021,1.750211 -0.636667,2.327123 -1.10431,3.239803 -0.671034,1.309626 -0.639248,1.270224 -1.314726,2.278107 z m 1.920959,61.383044 c 1.033567,2.66219 1.236078,3.26661 0.649553,3.4119 -0.371099,0.092 -1.35102,-0.12297 -6.190025,-4.29219 -3.228901,-2.78197 -5.529064,-5.38143 -5.99755,-5.92382 -0.545857,-0.63199 -1.028663,-1.17016 -1.975839,-2.31585 -0.748019,-0.904792 -1.398406,-1.858858 -1.490404,-2.125286 -0.100006,-0.290147 -0.423915,-2.369205 -0.606102,-4.551177 -0.17808,-2.132787 -0.194108,-4.213715 -0.149795,-4.31646 0.02766,-0.06405 0.643912,0.937611 1.418908,2.175163 1.051467,1.679018 3.354355,5.193829 6.898923,9.04494 3.198975,3.47564 6.224218,5.96782 6.363893,6.20691 0.125086,0.21392 0.609591,1.47823 1.078438,2.68587 z M 40.802134,75.558266 c -0.135017,0.571387 -0.25437,1.109368 -0.361486,1.616401 0,0 0,0 0,0 -0.319748,1.466272 -0.507563,2.552262 -0.541676,2.601186 -0.07428,0.106534 -0.639632,-1.152314 -1.133705,-2.601185 -0.550567,-1.589544 -0.984066,-3.329911 -0.940704,-3.664302 0.06661,-0.513654 0.711664,-2.950893 1.659378,-5.511307 0.910743,-2.460533 2.013389,-4.730309 2.11211,-4.816376 0.192967,-0.168234 0.746657,3.587567 0.728946,4.559505 -0.0058,0.314719 -0.129447,1.395564 -0.239064,2.237974 -0.318845,2.44901 -0.176136,0.890584 -1.283799,5.578104 z m 2.394603,17.82141 c 0.261677,2.732786 0.408468,3.60859 0.26491,3.658999 -0.0697,0.02448 -3.131559,-3.60085 -5.764152,-8.19361 -2.888713,-5.03958 -4.502104,-9.670937 -5.060971,-11.670398 -0.05406,-0.192928 -0.08405,-0.316471 -0.08768,-0.357843 -0.0282,-0.321493 0.357358,-2.4879 0.927325,-4.655207 0.559047,-2.125782 1.271018,-4.119184 1.349526,-4.12076 0.05548,-9.53e-4 0.138274,0.311332 0.18836,0.692058 0.04726,0.359232 0.706748,4.124776 2.216778,8.441751 0,0 0,10e-7 0,10e-7 0.191447,0.55383 0.394599,1.11311 0.610084,1.67704 1.462335,3.827003 3.485901,7.604919 3.800228,8.247996 0.73039,1.494292 0.869324,2.053902 1.161928,3.295925 0.1306,0.554364 0.279099,1.787599 0.393667,2.984048 z M 42.473885,49.732158 c -1.512222,2.079219 -2.55294,3.768095 -2.938099,4.391056 -0.360933,0.583765 -2.675775,4.287369 -4.779819,9.3786 -2.03569,4.925834 -3.122064,9.392111 -3.193686,9.492681 -0.09967,0.139953 -0.5607,-1.446368 -0.89554,-3.194992 -0.33913,-1.771026 -0.537339,-3.631 -0.443528,-3.993345 0.07963,-0.307482 2.282302,-6.831625 6.320892,-13.427753 3.660527,-5.978645 7.113594,-9.595539 8.084992,-10.542402 1.386354,-1.351339 1.581519,-1.218528 1.720177,-0.797729 0.101942,0.309404 -0.757455,4.439789 -1.031543,4.929144 -0.11985,0.213977 -1.451839,1.850804 -2.843846,3.76474 z m 2.471077,62.316072 c 1.125313,2.93491 1.343703,3.49699 0.865347,3.83061 -0.243551,0.16986 -0.732732,-0.0619 -2.73156,-1.69497 -1.38265,-1.12963 -2.621351,-2.28899 -3.030092,-2.72958 -0.216214,-0.23307 -0.431159,-0.46796 -0.644807,-0.70464 -0.481218,-1.42554 -0.914653,-2.85888 -1.300463,-4.29676 -0.825735,-3.07744 -0.957451,-4.31073 -0.814918,-4.27842 0.108055,0.0245 1.550984,1.71509 3.089363,3.33891 1.53838,1.62382 3.170917,3.17445 3.348242,3.42734 0.10954,0.15621 0.635999,1.58732 1.218888,3.10751 z m -8.912539,-10.09896 c 1.465405,7.58415 4.194855,14.08364 4.329648,14.6015 0.331777,1.27462 -0.07352,1.54701 -1.269192,0.57186 -2.178412,-1.77662 -2.961491,-2.64712 -3.194066,-3.05457 -0.179444,-0.31424 -3.113998,-8.48713 -4.09011,-16.654068 -0.976112,-8.166934 -0.04551,-16.0239 0.01573,-16.027827 0.06935,-0.0044 0.705536,1.565344 1.403649,3.132085 0.698113,1.566742 1.459929,3.128662 1.494086,3.338978 0.03341,0.206525 -0.155143,6.507909 1.310259,14.092042 z M 38.051937,48.2226 c -1.35069,1.928828 -2.405158,3.579797 -2.461356,3.557742 -0.06469,-0.02539 0.06956,-2.421269 0.418035,-4.887283 0.348473,-2.466013 0.920375,-4.99053 1.032531,-5.192817 0.165991,-0.299384 3.345102,-4.046774 3.977254,-4.645392 0.689184,-0.652611 1.215388,-0.856248 1.534687,-0.630349 0.297901,0.209197 0.130206,0.604857 -0.69898,3.855672 -0.508225,1.992486 -0.918812,3.824002 -1.038472,4.074178 -0.119672,0.250169 -1.413,1.939403 -2.763699,3.868249 z M 30.04957,82.521182 c -0.239982,2.458557 -0.323302,4.570338 -0.363372,4.651408 -0.03216,0.06512 -2.320878,-4.558754 -3.942136,-9.997923 -1.72621,-5.861058 -2.349644,-11.118028 -2.448195,-12.748398 -0.07625,-1.261369 0.216998,-3.559126 0.723136,-5.348635 0.402493,-1.423062 2.930157,-6.78886 3.262467,-7.086994 0.104209,-0.09337 0.160054,0.419393 0.138956,1.132807 -0.05119,1.731493 -0.217003,6.228387 0.455011,11.927443 0.676873,5.740256 1.877491,9.971998 2.523518,12.123777 0.115417,0.383454 0.183497,0.605198 0.187597,0.631587 0.0244,0.156839 -0.296996,2.256391 -0.536982,4.714928 z m 3.497365,-27.005928 c -0.35008,0.73655 -1.345583,2.695198 -2.176044,4.528575 -0.83046,1.833378 -1.508682,3.530345 -1.551203,3.521955 -0.05668,-0.01118 -0.732089,-6.341085 -0.207626,-13.000304 0.524462,-6.659218 2.317877,-13.500407 2.443879,-13.757377 0.208463,-0.425112 3.914457,-4.683101 4.906799,-5.557817 0.883442,-0.778709 1.52121,-0.628175 1.316589,0.222691 -0.09314,0.387323 -2.051221,5.801822 -3.201176,12.017352 -1.149945,6.215512 -1.179308,11.214586 -1.179816,11.244213 -5.29e-4,0.02971 -0.160774,0.379607 -0.351402,0.780712 z M 32.110242,107.4398 c 2.29099,8.91619 6.122368,16.1126 6.242604,16.37584 0.155575,0.34064 -0.188919,0.1947 -1.505232,-0.83996 -2.373906,-1.86681 -3.428134,-3.0851 -4.703458,-5.25371 -0.501042,-0.85199 -0.856926,-1.50456 -1.402829,-2.93953 -0.436442,-1.14724 -1.541754,-4.26812 -2.542196,-8.67519 -2.134825,-9.40427 -1.956839,-16.808802 -1.901885,-18.859142 0.07969,-2.973273 0.183045,-3.388773 0.210786,-3.391373 0.04982,-0.0047 0.765024,1.745791 1.554256,3.469864 0.789231,1.724073 1.652708,3.419988 1.678318,3.571153 0.02674,0.159314 0.07864,7.625857 2.369636,16.542048 z M 25.26362,88.156256 c -0.0378,3.610576 0.205966,6.787475 0.193575,7.020105 -0.01483,0.278629 -0.350587,-0.111307 -1.066156,-1.4057 -1.513825,-2.738309 -1.89248,-3.93381 -2.23161,-6.478272 -0.225683,-1.693283 -0.371448,-3.086767 0.192941,-7.697254 0.106485,-0.869919 0.224373,-1.681451 0.345017,-2.420468 0,0 0,0 0,0 0.296132,-1.758178 0.585673,-2.992948 0.635229,-3.074215 0.07051,-0.115702 0.191749,0.09884 0.273164,0.47196 0.06948,0.318514 0.322186,1.355814 0.678931,2.602255 0,0 0,0 0,0 0.09518,0.327587 0.194683,0.659938 0.298267,0.995329 0.490047,1.586715 0.965087,2.987375 0.989511,3.158672 0.02441,0.171387 -0.271071,3.216989 -0.308869,6.827588 z m 88.99967,-69.579731 c -0.54492,-0.147096 -5.41823,-2.102578 -11.02963,-3.240364 0,0 0,-1e-6 0,-1e-6 -6.866966,-1.407883 -14.828668,-1.270423 -14.752423,-1.35996 0.200865,-0.235829 2.56476,-1.625014 3.415415,-2.015512 0.210051,-0.09642 0.751967,-0.397322 1.157779,-0.63837 0.420038,-0.249492 0.998263,-0.479036 1.296,-0.518202 0.199561,-0.02625 4.129382,0.106581 8.883229,1.010505 0,10e-7 0,10e-7 0,0 4.62477,0.87368 8.98513,2.240002 12.96884,3.932365 3.70783,1.575165 6.23106,3.065159 6.27709,3.129049 0.0456,0.06321 -0.94146,0.140635 -2.17574,0.221497 -1.81802,0.1191 -2.42833,0.145434 -3.44642,-0.0046 -1.46065,-0.215293 -1.42095,-0.19969 -2.59415,-0.516359 z M 55.603144,39.011624 c -2.244747,1.747704 -2.766843,2.120435 -3.075101,1.600624 -0.195087,-0.328873 -0.277582,-1.340129 2.320075,-7.148125 0.372833,-0.833601 0.754052,-1.633645 1.139083,-2.399426 0,0 0,-10e-7 0,-10e-7 1.324658,-2.64597 2.604969,-4.669579 2.826534,-5.01286 0.450115,-0.697372 0.834571,-1.31741 1.665709,-2.543563 0.657976,-0.970702 1.391393,-1.862284 1.621103,-2.025143 0.250985,-0.177731 2.153744,-1.070206 4.198974,-1.861059 1.998477,-0.772775 3.994941,-1.38202 4.106356,-1.368863 0.06947,0.0082 -0.718597,0.885984 -1.690211,1.980861 -1.295691,1.46008 -4.077421,4.713081 -6.749525,9.159287 -1.138877,1.895005 -2.021049,3.573185 -2.721758,4.99832 -0.804658,1.62174 -1.286828,2.71983 -1.388447,2.828381 -0.1659,0.177362 -1.236585,1.000377 -2.252792,1.791567 z m 30.067723,-20.26877 c -2.316758,0.183793 -4.288492,0.456654 -4.365761,0.432844 -0.130367,-0.04017 1.015693,-1.036089 2.331346,-1.990537 1.331343,-0.965829 2.781168,-1.852343 3.09732,-1.911282 0.504975,-0.09414 3.069125,-0.240947 5.8105,-0.154237 2.643986,0.08363 5.158216,0.400267 5.271772,0.466293 0.221964,0.129058 -3.185038,1.856652 -4.12304,2.149682 -0.306683,0.09578 -1.377518,0.320916 -2.227003,0.48427 -2.285499,0.439331 -1.088845,0.149621 -5.795134,0.522967 z m -16.591673,7.563495 c -2.55999,1.022432 -3.356745,1.405903 -3.445345,1.282326 -0.04581,-0.0639 2.970285,-4.529813 6.992226,-8.597597 4.021941,-4.067783 9.00533,-7.597331 9.323183,-7.729618 0.29362,-0.122207 2.488802,-0.415004 4.729052,-0.545564 2.20195,-0.128328 4.326006,-0.08222 4.352289,-0.0081 0.01842,0.05242 -0.252991,0.229735 -0.600278,0.397365 -0.347491,0.167725 -4.648428,2.52553 -8.843611,5.823095 -3.236059,2.543647 -6.367068,5.622615 -6.877945,6.090239 -1.235809,1.131179 -1.745907,1.43006 -2.860367,2.063393 -0.500742,0.284565 -1.64693,0.776255 -2.769204,1.224482 z M 110.85065,12.108994 c -2.45885,-0.768602 -4.384,-1.212455 -5.10113,-1.378825 -0.15877,-0.03683 -1.18674,-0.275108 -2.51586,-0.524846 C 101.20692,9.8228855 98.527796,9.4171213 95.326205,9.2003506 89.998534,8.8396301 85.409759,9.1891265 85.291906,9.1519937 85.1279,9.1003145 86.495235,8.1718706 88.05088,7.306806 c 1.574737,-0.8756823 3.276503,-1.6520556 3.648768,-1.6774612 0.270892,-0.018464 5.339766,-0.045875 11.534012,1.0560912 0,4e-7 0,2e-7 0,2e-7 1.04874,0.1866556 2.12067,0.4027436 3.21293,0.6516172 6.81569,1.5529703 11.38698,3.6734486 12.58407,4.2805646 1.7295,0.877135 1.66818,1.104147 1.31417,1.371372 -0.2637,0.199047 -4.45421,0.712127 -5.01024,0.608759 -0.24167,-0.04493 -2.22369,-0.78223 -4.48394,-1.488755 z M 51.689675,33.230927 c -2.485066,1.915417 -2.959971,2.289195 -3.417165,1.927221 -0.232778,-0.184296 -0.152935,-0.719763 0.836837,-3.102419 0.68578,-1.650875 1.440578,-3.163742 1.748155,-3.68399 0.161861,-0.273766 0.325938,-0.546816 0.492236,-0.819117 0.236963,-0.167058 0.474769,-0.332421 0.7134,-0.496076 1.000679,-0.685799 2.014602,-1.341428 3.040197,-1.967113 2.718565,-1.658514 3.864657,-2.128738 3.873637,-1.982986 0.01063,0.173052 -2.80745,4.681283 -4.010757,6.915386 -0.334843,0.619853 -0.567718,1.052682 -0.652245,1.159231 -0.117075,0.147589 -1.338413,1.058729 -2.624295,2.049863 z m 7.151139,-11.392249 c -2.873756,1.478705 -5.373761,3.004421 -7.524018,4.455534 -3.009914,2.034733 -4.984917,3.675814 -5.254488,3.83974 -1.125485,0.684415 -1.504268,0.375907 -0.91202,-1.051387 1.078292,-2.598632 1.694864,-3.603539 2.018871,-3.942689 0.07235,-0.07576 0.696512,-0.566912 1.735544,-1.309445 3.717769,-2.644446 9.259147,-5.980718 16.361446,-8.617572 6.387101,-2.371324 12.080758,-3.324695 12.09945,-3.275576 0.02474,0.06501 -1.289284,1.137301 -2.589373,2.262986 -1.279966,1.108262 -2.609809,2.319128 -2.775353,2.399415 -0.188918,0.09148 -6.296743,1.707442 -13.160059,5.238994 z M 110.86617,7.4371976 c -2.2592,-0.6627051 -4.16057,-1.1346182 -4.15763,-1.1949244 0.003,-0.069422 2.3169,-0.7073105 4.76356,-1.1659779 2.44666,-0.4586673 5.0179,-0.7278677 5.24517,-0.6867055 0.33636,0.06092 4.90109,1.8606551 5.67096,2.2644351 0.83925,0.4401812 1.20227,0.8713723 1.09226,1.2469304 -0.10114,0.349804 -0.52849,0.3232824 -3.87273,0.5876216 -2.02116,0.1597574 -3.94704,0.3569502 -4.19199,0.3275513 -0.27539,-0.033067 -2.29038,-0.7162236 -4.5496,-1.3789306 z M 75.757875,10.573353 c -2.417637,0.490614 -4.460705,1.01628 -4.549781,1.001177 -0.07149,-0.0121 3.691655,-3.5245938 8.334816,-6.6853139 5.029684,-3.4238354 9.739466,-5.65715177 11.272598,-6.2755688 1.162745,-0.4690155 3.428074,-0.9195612 5.278608,-1.0093982 1.570815,-0.076258 5.186554,0.2721336 7.139544,0.6661112 0.32983,0.06715 0.55146,0.1247671 0.61699,0.1618175 0.0952,0.053934 -0.17044,0.1980924 -0.61699,0.3572462 0,0 0,0 0,0 -0.12484,0.044715 -0.26405,0.090733 -0.41351,0.1363295 -2.07054,0.63168134 -6.87658,2.0782367 -12.725004,5.0002578 -5.221361,2.6087243 -9.561459,5.7034396 -9.681451,5.7628427 -0.142013,0.07034 -2.238203,0.393895 -4.65582,0.884499 z m 26.756275,-5.07391 c -0.81043,-0.096 -2.986026,-0.4119721 -4.988593,-0.6137819 -2.002567,-0.2018098 -3.825459,-0.3064427 -3.831019,-0.3494692 -0.0064,-0.049206 4.205359,-2.0443238 9.539122,-3.61134001 3.73367,-1.09191521 7.37751,-1.82932797 10.77761,-2.29572539 3.20561,-0.4397183 5.56997,-0.5547592 5.73141,-0.5340602 0.46772,0.059981 5.66826,2.18223742 6.81101,2.83344937 1.01648,0.57926173 1.08256,1.23124963 0.21484,1.31665253 -0.39467,0.038852 -6.12461,-0.043382 -12.37302,0.8602837 -6.24838,0.9036686 -11.00033,2.468183 -11.02858,2.4771774 -0.009,0.00298 -0.0573,6.062e-4 -0.13327,-0.0058 -0.15133,-0.01272 -0.42667,-0.042703 -0.71951,-0.077382 z M 52.472618,19.619312 c -1.674802,0.996006 -3.244247,2.016806 -4.711258,3.043276 0,0 -1e-6,1e-6 -1e-6,1e-6 -5.469299,3.850101 -9.065743,7.490416 -9.237511,7.641175 -0.281138,0.246742 -0.241414,-0.124326 0.371692,-1.683611 1.106071,-2.811164 1.976254,-4.179188 3.696531,-6.030127 0.714002,-0.768234 1.281561,-1.3402 2.726057,-2.423025 0,0 10e-7,0 10e-7,0 1.065741,-0.792126 3.642833,-2.617511 7.338339,-4.674907 8.362997,-4.655904 15.593441,-6.6259095 17.499171,-7.1434868 2.855573,-0.7755454 3.279014,-0.801071 3.289623,-0.7752744 0.01905,0.046325 -1.436339,1.2381586 -2.853597,2.4891032 -1.417258,1.250944 -2.793528,2.561122 -2.930855,2.628644 -0.144804,0.07092 -7.267163,2.217579 -15.188192,6.928232 z M 68.991594,7.617922 c -3.448609,0.9947307 -6.414038,2.1208293 -6.639752,2.1744426 -0.271278,0.064444 0.0081,-0.3677417 1.038576,-1.4186541 2.186109,-2.2295387 3.198048,-2.9212666 5.522273,-3.9763858 1.569447,-0.7124757 2.79061,-1.2228171 7.337647,-2.0375839 2.874847,-0.5151512 5.33503,-0.7381664 5.464867,-0.7063755 0.130391,0.031886 -0.03421,0.2128548 -0.360482,0.4039862 -0.399725,0.2341319 -1.67263,1.0292617 -3.091504,2.0126999 -1.350441,0.9359997 -2.53788,1.7993358 -2.693052,1.8727326 -0.155261,0.07341 -3.129942,0.6804004 -6.578573,1.675138 z M 163.81255,69.4006 c -0.0344,-0.618009 0.29046,-6.977202 -0.70763,-13.338967 -0.99808,-6.361766 -3.26182,-12.516236 -3.16265,-12.477103 0.29033,0.114593 2.35705,1.896903 3.00198,2.579268 0.15829,0.167482 0.61724,0.584184 0.97517,0.890776 0.37077,0.317605 0.77316,0.791437 0.90553,1.060876 0.12493,0.254295 2.15561,7.670205 2.43933,14.921743 0.28373,7.251538 -1.14719,14.038731 -1.2204,14.134857 -0.047,0.06184 -0.41518,-0.83994 -0.86548,-1.967537 -0.66712,-1.670517 -0.87616,-2.213603 -1.04949,-3.219178 -0.24937,-1.44682 -0.24882,-1.372626 -0.31639,-2.584732 z M 125.32754,21.093137 c -2.42233,-1.553901 -2.94443,-1.930135 -2.55187,-2.390832 0.24835,-0.291528 1.18359,-0.673965 7.56986,-0.152219 4.26674,0.348583 7.64649,1.077527 8.35191,1.238745 0.81958,0.187317 1.51688,0.332532 2.96381,0.695067 1.13843,0.285235 2.22761,0.667498 2.45958,0.827333 0.25189,0.173768 1.74676,1.655618 3.18748,3.303309 1.40876,1.611133 2.65643,3.278141 2.68171,3.387247 0.0157,0.06804 -1.07479,-0.373167 -2.43259,-0.909951 -1.84993,-0.731326 -5.77074,-2.187653 -10.92112,-3.196393 -4.6431,-0.909396 -8.57991,-1.147075 -8.83552,-1.258551 -0.22974,-0.10008 -1.37344,-0.838238 -2.47325,-1.543755 z m 29.20878,21.391186 c -0.91566,-2.116803 -1.81062,-3.874246 -1.81319,-3.954558 -0.004,-0.135499 1.30494,0.608817 2.62976,1.532973 1.34107,0.935498 2.6439,2.013455 2.80151,2.293094 0.25325,0.449316 1.2106,2.81182 2.00528,5.434806 0.76516,2.525595 1.26836,5.007522 1.24211,5.136145 -0.0513,0.251416 -2.77647,-2.418911 -3.35298,-3.210775 -0.18819,-0.258519 -0.74323,-1.198227 -1.16813,-1.946116 -1.17083,-2.061142 -0.46085,-0.931269 -2.34436,-5.285569 z M 141.98499,29.518205 c -1.83146,-2.047074 -2.47047,-2.665487 -2.38485,-2.791149 0.0465,-0.06827 5.82426,1.378617 11.22883,3.981309 0,0 0,1e-6 0,1e-6 4.88601,2.34016 9.35403,5.584139 9.57088,5.8281 0.21268,0.239246 1.20067,2.21329 2.04727,4.291355 0.83125,2.040387 1.46805,4.065475 1.4063,4.114151 -0.0437,0.03427 -0.29865,-0.16562 -0.56872,-0.44027 -0.27023,-0.274815 -3.88229,-3.593889 -8.35197,-6.449893 -3.26712,-2.087615 -6.26061,-3.520268 -7.32307,-4.055143 -2.01895,-1.028372 -2.39766,-1.333275 -3.53919,-2.30654 -0.43274,-0.368959 -1.28424,-1.276356 -2.08548,-2.171921 z m 26.87914,34.633488 c -0.0532,-2.557199 -0.25097,-4.539789 -0.3219,-5.262635 -0.0689,-0.702179 -0.47208,-5.006512 -1.88555,-10.362843 -1.36231,-5.162438 -3.17479,-9.391731 -3.17779,-9.515239 -0.004,-0.171877 1.31678,0.821424 2.63724,2.016454 1.33696,1.209964 2.61861,2.573726 2.7623,2.91874 0.12209,0.293226 2.31495,6.827392 3.0995,14.517672 0.7133,6.991953 0.1336,11.901885 -0.0779,13.258772 -0.29721,1.907065 -0.53473,1.917082 -0.8975,1.664601 -0.26122,-0.181817 -2.05835,-3.990882 -2.13315,-4.536588 -0.0331,-0.241752 0.0438,-2.340208 -0.005,-4.698934 z M 129.50316,15.490225 c -2.64341,-1.712841 -3.14947,-2.043313 -2.9575,-2.594213 0.0977,-0.280486 0.63137,-0.377143 3.20961,-0.231205 1.78219,0.100874 3.46798,0.30705 4.05642,0.42145 0.31193,0.06065 0.62389,0.123428 0.93585,0.188347 1.22896,0.866406 2.42505,1.765936 3.58625,2.696357 2.48528,1.991346 3.32295,2.904935 3.18907,2.963344 -0.10151,0.04426 -2.26453,-0.461847 -4.46621,-0.861232 -2.20169,-0.399386 -4.43813,-0.688691 -4.73106,-0.788422 -0.18129,-0.06172 -1.45286,-0.907005 -2.82243,-1.794426 z m 13.16412,2.881287 C 136.9949,13.135874 130.9747,9.4921922 130.56216,9.1526255 c -1.0165,-0.8366951 -0.84507,-1.2938912 0.69036,-1.2089709 2.80257,0.1550083 3.93947,0.3923005 4.36905,0.5850576 0.23175,0.1039387 3.90025,2.4625368 7.97171,6.0158498 4.41939,3.856963 8.12281,8.019528 11.1043,12.212299 2.29212,3.22627 3.59033,5.651419 3.56252,5.674842 -0.0945,0.07959 -4.63893,-2.576662 -5.88511,-3.302486 -0.15643,-0.09133 -0.25935,-0.156793 -0.29343,-0.190189 -0.1495,-0.146671 -3.74191,-5.331882 -9.41428,-10.567516 z m 30.62647,44.309133 c -0.0915,-2.350543 -0.25351,-4.302323 -0.19547,-4.318825 0.0668,-0.019 1.41127,1.967192 2.62428,4.141627 1.213,2.174434 2.27905,4.535338 2.31158,4.76459 0.0264,0.18643 0.0116,1.474167 -0.0714,2.869519 -0.0853,1.434412 -0.22739,2.757974 -0.30985,3.241727 -0.15978,0.937237 -0.45941,1.41607 -0.85022,1.42614 -0.36374,0.01065 -0.46309,-0.411112 -1.75258,-3.505835 -0.79036,-1.896815 -1.56641,-3.602068 -1.62177,-3.873326 -0.0554,-0.271259 -0.043,-2.395055 -0.13454,-4.745617 z m -14.2787,-32.217127 c -1.26565,-2.121638 -2.45185,-3.874871 -2.4677,-3.964053 -0.0127,-0.07157 4.57206,2.30994 9.08831,5.684342 4.8852,3.650076 8.53401,7.427343 9.60574,8.675771 0.81965,0.954781 1.97244,2.958842 2.64957,4.686223 0.29007,0.740007 0.76339,2.420645 1.13852,4.152997 0.3655,1.687882 0.59356,3.230645 0.54981,3.459305 -0.0264,0.137486 -0.38114,-0.236713 -0.79613,-0.817083 -1.24525,-1.741518 -4.16825,-5.865096 -8.80679,-10.462281 -4.1516,-4.114588 -8.49653,-7.212345 -8.59192,-7.306372 -0.11294,-0.11127 -1.10377,-1.987225 -2.36941,-4.108849 z m 13.44547,23.68935 c -0.16791,-0.798111 -0.56313,-2.959869 -1.01192,-4.922343 -0.44879,-1.962474 -0.93363,-3.724301 -0.89464,-3.743345 0.052,-0.02538 4.42064,4.599263 8.03403,10.218285 3.61339,5.619022 6.31111,12.187846 6.36552,12.470391 0.0478,0.248325 0.0239,1.760457 -0.0971,3.41439 -0.12454,1.702335 -0.33143,3.310479 -0.47868,4.023798 -0.23999,1.162608 -0.8414,1.422826 -1.18732,0.612631 -0.15757,-0.369026 -1.83701,-5.917715 -4.67268,-11.573206 -2.83566,-5.655468 -5.84603,-9.642722 -5.86358,-9.666594 -0.0176,-0.02395 -0.10218,-0.399388 -0.19363,-0.834007 z M 142.57659,11.629853 c -7.10722,-5.8194441 -14.37897,-9.3944177 -14.62885,-9.537145 -0.32445,-0.1853304 0.0408,-0.2675082 1.70301,-0.2030984 3.00496,0.1171202 4.55547,0.4773225 6.85482,1.4761103 0.90362,0.3925137 1.56856,0.706978 2.85126,1.5416948 1.02188,0.6649899 3.7476,2.528934 7.15329,5.4776293 6.28698,5.443383 10.1725,10.527809 11.77384,12.708588 2.64558,3.61986 2.81575,4.169758 2.79162,4.191295 -0.046,0.04106 -2.4885,-1.439699 -4.44991,-2.497474 0,0 0,-1e-6 0,-1e-6 -1.22496,-0.657964 -2.25208,-1.175273 -2.33701,-1.257103 -0.11626,-0.11236 -4.60483,-6.08105 -11.71207,-11.900496 z m 16.95139,11.449675 c -0.17573,-0.244078 -0.35066,-0.48423 -0.52475,-0.720583 0,0 0,0 0,0 -1.92483,-2.599227 -3.69135,-4.636134 -3.809,-4.814375 -0.15374,-0.232909 0.34832,-0.118614 1.69439,0.496924 1.97189,0.901694 3.05229,1.537603 4.03721,2.353656 0.48936,0.408716 1.00347,0.901252 1.61733,1.538903 1.19326,1.239488 2.1226,2.264107 4.39586,6.301411 1.44298,2.562704 2.45852,4.82687 2.47095,4.960429 0.0125,0.13414 -0.21266,0.03629 -0.50044,-0.211597 -0.353,-0.304108 -1.52188,-1.25455 -2.92099,-2.280763 -1.33111,-0.976353 -2.54205,-1.818854 -2.66306,-1.941868 -0.12104,-0.123095 -1.68224,-2.744152 -3.7975,-5.682137 z"
       class="UnoptimicedTransforms" /></g></svg>
