<?xml version="1.0" encoding="UTF-8"?>
<svg width="31.596mm" height="21.782mm" style="transform:scale(0.5);" version="1.1" viewBox="0 0 31.596 21.782" xml:space="preserve" xmlns="http://www.w3.org/2000/svg"><g transform="translate(-72.984 -177.16)"><path d="m74.653 198.79c-0.79736-0.19674-1.0414-0.32737-1.257-0.67268-0.28234-0.45236-0.46008-1.9958-0.40053-3.4782 0.05635-1.4029 0.26459-2.4352 0.71618-3.5502 0.30408-0.75082 1.1912-2.3819 1.2955-2.3819 0.02854 0 0.26412 0.24515 0.5235 0.54479l0.47161 0.54478-0.32004 0.5082c-0.45112 0.71634-0.98518 2.0754-1.1532 2.9347-0.14578 0.74553-0.19126 2.539-0.0865 3.4109 0.06347 0.52824 0.0572 0.52399 0.99286 0.67398 1.3803 0.22126 3.2592-0.27481 4.6669-1.2322 1.3009-0.88474 2.1337-1.7108 4.7133-4.6752l2.474-2.843 0.97061 1.1073-2.1593 2.523c-3.8546 4.5038-5.6619 5.9411-8.2175 6.5348-1.0529 0.24459-2.3622 0.26528-3.2304 0.0511zm12.852 0.0465c-0.73419-0.12217-1.745-0.45011-2.5161-0.81635-0.62478-0.29672-1.8989-1.1716-2.013-1.3823-0.02979-0.055 0.17076-0.31919 0.44566-0.58712l0.49982-0.48714 0.277 0.18987c0.82684 0.56674 1.6101 0.98147 2.3224 1.2297 0.72787 0.25363 0.92946 0.27903 2.2656 0.28542 1.6178 8e-3 2.1446-0.10076 3.1904-0.657 1.1617-0.6179 1.7902-1.2702 7.6999-7.9912 0.03069-0.0349 0.4306 0.45699 0.75991 0.93461l0.16133 0.23396-2.817 3.2066c-2.9525 3.3608-3.5333 3.9527-4.5648 4.6518-1.5747 1.0672-3.7375 1.5175-5.7111 1.1892zm12.254-0.13141c-0.85331-0.18496-1.5659-0.42766-2.3066-0.78558-0.65152-0.31485-1.9111-1.164-1.9111-1.2884 0-0.0398 0.20999-0.30748 0.46665-0.59492l0.46665-0.5226 0.57776 0.39876c1.4745 1.0177 4.1101 1.657 5.2594 1.2759 0.62945-0.20875 0.80492-0.43769 0.85411-1.1143 0.061-0.83861-0.13361-2.5234-0.39604-3.4292-0.54978-1.8977-1.6254-3.46-4.9812-7.2357l-2.5258-2.8417 0.517-0.47873c0.28435-0.26331 0.53756-0.47896 0.56269-0.47923 0.02515-3.1e-4 1.1696 1.2658 2.5433 2.8134 3.2602 3.673 4.3709 5.2666 5.1051 7.3249 0.6362 1.7835 0.78546 4.5628 0.30683 5.7134-0.43895 1.0553-2.6339 1.6568-4.5389 1.2439zm-11.617-10.111c-2.8721-3.2941-5.2221-6.0045-5.2221-6.0231 0-0.0186 0.21989-0.24807 0.48865-0.51001l0.48865-0.47625 1.5901 1.7367c0.87453 0.95521 3.2412 3.655 5.2593 5.9995l3.6693 4.2628-0.4337 0.50233c-0.23854 0.27628-0.47521 0.50119-0.52593 0.49979-0.05072-1e-3 -2.4422-2.6977-5.3143-5.9918zm-10.078 2.5666c-1.6195-1.8235-3.1082-3.5687-3.3082-3.8781-0.46296-0.71637-1.1058-2.2644-1.3367-3.2188-0.37366-1.5447-0.45148-3.849-0.17895-5.2988 0.21788-1.159 1.4177-1.7111 3.4508-1.5878 1.147 0.0696 1.9678 0.32382 3.2065 0.99335 0.88845 0.4802 2.0444 1.2846 2.0444 1.4226 0 0.0704-0.93443 1.0018-1.0051 1.0018-0.02387 0-0.31525-0.18841-0.64751-0.41869-1.6885-1.1702-3.2932-1.643-4.7512-1.3998-0.3848 0.0642-0.76472 0.171-0.84427 0.23736-0.20058 0.16732-0.28331 2.2484-0.13529 3.4032 0.19227 1.5001 0.71558 3.0401 1.3602 4.0029 0.15144 0.22618 1.5986 1.9029 3.2159 3.7261l2.9405 3.3149-0.48887 0.50868c-0.26888 0.27977-0.50887 0.50819-0.53332 0.50761-0.02445-5.8e-4 -1.3695-1.493-2.989-3.3165zm-0.86951-4.1681-0.42971-0.4977 1.9664-2.363c2.0682-2.4854 3.9799-4.4636 5.0486-5.2241 0.74278-0.52861 1.857-1.0661 2.8438-1.3719 0.95146-0.2948 3.3321-0.32467 4.207-0.0528 1.09 0.33873 3.4221 1.8098 3.4221 2.1586 0 0.0566-0.21069 0.31646-0.4682 0.57737l-0.4682 0.47439-0.4251-0.34842c-0.58618-0.48042-1.8114-1.1321-2.504-1.3318-0.81245-0.23427-2.8004-0.15062-3.7283 0.15686-2.1187 0.70212-3.4527 1.8667-6.9458 6.064-1.0327 1.2409-1.9252 2.2562-1.9832 2.2562-0.05804 0-0.2989-0.22396-0.53524-0.4977zm12.366 0.0126c-0.23038-0.26682-0.41886-0.53281-0.41886-0.59107 0-0.22709 5.2127-5.9898 6.1188-6.7644 2.0634-1.764 4.0509-2.5001 6.4025-2.3713 1.3426 0.0736 1.6504 0.18351 2.1466 0.76691 0.47098 0.55373 0.59044 0.94403 0.67211 2.1959 0.14863 2.2784-0.53814 4.7821-1.8396 6.7065l-0.3709 0.54846-0.42757-0.53534c-0.23516-0.29444-0.42939-0.5745-0.4316-0.62236-2e-3 -0.0479 0.18976-0.41759 0.42663-0.82161 0.91388-1.5588 1.2902-3.0552 1.2432-4.9446-0.0372-1.499-0.088-1.5775-1.1072-1.7114-1.1953-0.15704-2.7649 0.12306-3.8982 0.69563-1.5059 0.76082-2.4098 1.597-5.4729 5.0624-1.3958 1.5792-2.5573 2.8713-2.581 2.8713-0.02373 0-0.23163-0.21832-0.462-0.48515z"/></g></svg>
