<?xml version="1.0" encoding="UTF-8"?>
<svg width="222.49mm" height="93.12mm" version="1.1" viewBox="0 0 222.49 93.12" xml:space="preserve" xmlns="http://www.w3.org/2000/svg"><g transform="translate(-2.898 -2.8491)"><g fill-rule="evenodd" stroke-width="3.5"><path d="m3.9962 7.9924c19.922-1.6001 39.833-3.3514 59.761-4.8541 8.4785-0.44937 16.985-0.40141 25.445 0.32907 4.9979 0.037327 10.173 0.49288 14.63 2.9581 4.9987 2.9513 9.71 6.3658 14.599 9.4962 2.7871 1.9273 5.7564 3.6257 8.3849 5.761 1.7055 2.4067-1.6317 4.7541-3.4788 5.8873-2.4669 1.5882-4.3477-1.4368-5.851-2.9841-3.3352-3.6372-6.8596-7.0892-10.576-10.333-3.1725-2.9805-6.5541-6.1171-10.938-7.0783-4.0542-1.1635-8.3182-0.85081-12.486-0.94302-5.1954 0.24861-10.359 0.98769-15.498 1.7544-3.7875 0.6163-7.4706 1.7013-11.271 2.245-5.4071 0.88511-10.891 1.1954-16.328 1.859-11.351 1.2008-22.702 2.4016-34.053 3.6024-0.77975-2.5667-1.5595-5.1334-2.3393-7.7z" style="paint-order:markers stroke fill"/><path d="m151.31 41.252c3.4887 0.77538 2.0944 4.6014 2.1091 7.1169 0.16639 0.81729-0.36523 2.3567-0.4057 2.551 9.525-2.3461 19.174-4.225 28.556-7.1241 5.4824-1.6581 11.101-2.9577 16.399-5.1577 4.9784-2.3086 9.8945-4.7671 15.081-6.5903 2.5212-0.9155 5.082-1.8674 7.7527-2.2022 1.5136 0.94481 0.25876 3.7418 0.41256 5.4055-0.51475 4.5807-1.1811 9.1495-1.5176 13.747-0.50536 2.2625 2.9996 3.2447 3.2438 0.68708 1.0551-2.292 2.1848-4.655 1.9509-7.2567 0.16129-4.6071 0.64216-9.2219 0.45348-13.83-0.16183-2.3491-2.9102-2.3103-4.6664-2.3192-8.9657 0.41788-17.586 3.1175-26.31 4.9873-14.353 3.3283-28.707 6.6567-43.06 9.985z" style="paint-order:markers stroke fill"/><path d="m11.224 7.0089c-2.638 0.72373-6.194-0.16723-8.209 1.747-0.25038 2.4725-0.18256 5.1883 0.92245 7.4743 2.0625 3.4091 2.4116 7.5201 3.2316 11.347 1.4293 7.0719 2.6795 14.305 5.8747 20.844 2.1611 5.1332 4.746 10.187 8.6507 14.23 2.6156 2.9049 5.9327 5.0311 9.1978 7.1116 3.3556 1.827 7.4401 2.1601 11.122 1.3029 2.7428-0.80542 5.4591-2.0765 7.2167-4.4215 1.9727-2.3513 4.0487-4.7137 5.3908-7.4848 1.2799-3.6196 1.8176-7.4602 2.3719-11.243-0.0334-2.2757 0.60977-4.8427-0.18584-6.9456-0.94231-0.82388-1.425-3.3246-0.8549-3.9163 3.0043 0.81943 6.0527 1.8547 8.6693 3.5902 1.9791 1.3229 1.1798 3.8836 0.84707 5.7833 0.08692 2.9719 1.1613 5.8064 1.8172 8.6862 2.5526 8.9537 6.1984 17.712 11.721 25.26 3.813 4.9366 8.9783 8.6631 14.58 11.327 8.2962 4.4656 18.415 5.4831 27.439 2.7786 5.6415-1.7579 9.8895-6.3051 13.205-10.997 3.088-4.464 3.8856-9.9418 5.8102-14.914 1.2335-3.6444 2.0729-7.4234 3.2973-11.059 0.77726-1.9735 1.848-4.2694 4.1792-4.6661 1.8703-0.68769 4.5347-0.66355 5.426-2.7807 0.10357-2.3106 0.66379-4.7369 0.17966-7.0064-1.2243-1.7835-3.5943-2.0768-5.3868-3.0478-4.691-2.0685-9.616-3.5476-14.658-4.4561-8.4288-2.0492-16.809-4.3293-25.355-5.8625-9.2994-1.6561-18.772-3.2664-28.244-2.4034-3.0494 0.60078-5.8741 2.0079-8.6555 3.3455-2.2611-1.527-4.7775-2.6825-7.5614-2.5318-2.5684-0.41386-5.1767-0.95817-7.4449-2.2493-1.8253-0.58616-3.9151 0.83484-5.1091-1.4217-4.6348-4.5393-10.254-7.9609-16.248-10.398-5.1976-2.3299-10.72-3.8225-16.198-5.3332-2.0012-0.63146-4.2076-0.72229-6.0686-1.653 0 0-0.47721-0.052414-0.47721-0.052414l-0.492 0.015049zm4.4002 7.0213c5.2883 0.45922 10.334 2.3761 15.171 4.4604 4.6023 2.3209 9.3741 4.8201 12.54 9.0289 4.7491 6.2527 5.9707 14.424 5.5402 22.084-0.1957 5.3323-1.1751 10.856-4.0784 15.416-1.1803 1.3652-2.4828 3.2248-4.5613 2.8972-6.6429 0.0333-12.583-4.0248-16.82-8.8497-4.0774-4.7158-6.3976-10.645-8.3545-16.489-1.6357-5.6072-2.7677-11.407-2.9502-17.254-0.08018-2.7054 1.0962-5.1771 2.1462-7.5928 0.87124-1.2154-0.63694-3.4857 1.3667-3.7011zm67.727 18.994c10.054-0.3164 19.979 1.8652 29.598 4.5857 5.3092 1.8742 10.555 4.4805 14.463 8.628 4.128 4.6231 5.8797 10.92 5.7091 17.033 0.11083 5.7032-1.2274 11.384-3.3479 16.652-1.4555 3.0506-3.0054 6.3058-5.7586 8.3925-5.4238 3.4858-12.297 4.0752-18.505 2.776-5.1148-1.0023-10.074-2.9586-14.384-5.9168-3.4055-2.4331-7.14-5.1085-8.6459-9.1851-1.6859-4.4463-1.341-9.2832-1.4805-13.942 0.82257-5.7234-1.2501-12.068-6.0959-15.47-1.9553-1.4242-1.2906-4.168-0.95709-6.1971 0.45772-3.0173 2.2526-6.6194 5.6468-6.949 1.256-0.15649 2.4863-0.44112 3.7589-0.40611z" style="paint-order:markers stroke fill"/></g></g></svg>
