<?xml version="1.0" encoding="UTF-8"?>
<svg width="100.57mm" height="111.21mm" version="1.1" viewBox="0 0 100.57 111.21" xml:space="preserve" xmlns="http://www.w3.org/2000/svg"><g transform="translate(-39.306 -51.568)"><g fill="#fff" fill-rule="evenodd" stroke-width="3.5"><path d="m104.76 155.17c0.59347 1.5756 0.22145 3.4631 1.4781 4.7771 1.0506 1.2274 2.465 2.3462 4.1583 2.3255 1.0913 0.0644 2.1639-0.14925 3.1184-0.68431 1.2857-0.58344 2.169-1.7562 3.17-2.7121 1.5272-1.9888 3.236-3.866 4.3776-6.1205 3.3226-5.6669 6.7622-11.269 9.8062-17.093 1.4269-2.6754 2.97-5.2983 4.0337-8.1475 1.2475-2.8669 2.4361-5.76 3.271-8.7778 0.85668-2.4471 0.39913-5.0646 0.0714-7.5625-0.87517-0.44621-1.2137-1.0319-0.11572-1.4442 0.71304-0.89311 0.14475-2.2396 0.30289-3.3254 0.24878-0.9211-0.61466-2.7803 0.49789-2.9728 1.7462 0.0442 0.5149-2.4343 0.74561-3.5699-0.27907-3.0237-1.0084-5.9772-1.626-8.9419-0.74131-2.019-1.1349-4.1506-1.9842-6.1312-0.99676-2.7153-1.9874-5.5088-3.703-7.8659-1.4386-1.6648-3.0854-3.1775-4.144-5.1345-2.0511-3.0121-4.4982-5.7328-7.1715-8.2042-3.2025-2.7149-6.5969-5.2775-10.472-6.9594-6.0409-2.9001-12.636-4.8619-19.379-4.8712-1.273 0.04436-3.0322-0.28172-4.0027 0.21346 0.02464 3.7691 0.04927 7.5383 0.07391 11.307 3.1057-0.17554 6.221-0.0737 9.2997 0.38248 4.1268 0.4757 8.1605 1.6134 12.05 3.0464 3.9762 1.548 7.7921 3.5211 11.236 6.0515 2.3499 1.5908 4.5551 3.3718 6.7548 5.1598 0.27286 1.1949 0.6233 2.3716 1.3091 3.4019 1.453 2.6963 2.6108 5.5659 3.3803 8.5304 0.5697 1.8019 1.2029 3.6056 1.4166 5.4937 0.43513 1.2582 0.40534 2.6022 0.73994 3.8861 0.10461 1.3746 0.17587 2.7574 0.21142 4.1393 1.4696-0.27495 1.4912 0.92477 1.3997 2.0582 0.034 1.3411 0.0679 2.6821 0.10185 4.0232-1.2876 0.10359-2.702-0.43137-3.8535 0.38905-0.90437 0.49627-3.2158 1.6419-2.5675-0.28129-0.18602-1.0791-1.0402-1.8666-1.6776-2.7056-1.1236-0.75825-2.1882-1.8407-3.6648-1.7126-1.3292-0.11425-2.7805 0.0148-3.7744 1.0066-2.1715 1.4885-3.6409 3.7077-4.9818 5.9237-2.1469 3.2295-3.8219 6.741-5.7391 10.108-3.2212 5.7901-6.4075 11.603-9.4011 17.514-1.3796 2.8772-2.7324 5.8021-3.5738 8.8876-0.34574 1.8474-0.38435 4.0459 1.1362 5.409 1.5863 1.5523 3.944 2.641 6.1827 2.0447 0.49899-0.29338 0.99966-0.58412 1.5081-0.8609z" style="paint-order:markers stroke fill"/><path d="m76.522 155.62c-0.62438 1.5821-0.24489 3.5034-1.5605 4.8-1.1249 1.253-2.6223 2.3658-4.3779 2.3471-1.1554 0.0701-2.2968-0.13249-3.3207-0.67679-1.3438-0.56683-2.2892-1.7501-3.3517-2.7065-1.5554-1.9459-3.3296-3.7471-4.5221-5.9572-3.52-5.719-7.1831-11.354-10.423-17.24-1.5447-2.7594-3.2283-5.4525-4.391-8.4044-1.2689-2.7891-2.5086-5.5938-3.3737-8.539-1.0135-2.5391-0.54831-5.2996-0.1706-7.9146 0.64272-0.40907 1.4835-0.95663 0.31945-1.3022-1.0559-0.73593-0.33312-2.2273-0.52029-3.3173-0.20392-0.97082 0.49272-2.7067-0.33627-3.1465-2.0639 0.18087-0.76923-2.5197-0.96357-3.8053 0.30274-2.9487 1.0632-5.817 1.6734-8.7089 0.69109-1.7705 1.0815-3.6426 1.7859-5.4071 1.1894-2.9981 2.2642-6.1273 4.2205-8.7318 1.552-1.7118 3.3234-3.2544 4.485-5.2818 1.6631-2.2991 3.5353-4.4327 5.5898-6.3897 2.6422-2.5874 5.684-4.7412 8.8123-6.6982 3.9377-2.1617 8.1201-3.898 12.425-5.1808 3.747-1.0519 7.6203-1.806 11.525-1.7888 1.6746 0.37565 3.4079 0.26212 5.0957 0.54169-0.02653 3.6652-0.05307 7.3303-0.0796 10.996-3.2647-0.17432-6.5384-0.07807-9.7779 0.37619-4.2545 0.45074-8.4195 1.5625-12.463 2.9337-4.3127 1.568-8.4785 3.5715-12.249 6.2024-2.5006 1.607-4.8601 3.4089-7.2085 5.2263-0.29168 1.1762-0.63288 2.3448-1.3422 3.3469-1.4576 2.5329-2.604 5.2468-3.4653 8.0371-0.50931 2.0103-1.4409 3.9209-1.6272 6.0093-0.44005 1.3584-0.5075 2.795-0.83697 4.1849-0.18683 1.299 0.03074 3.0284-0.38764 4.0631-1.234-0.20063-1.4399 0.54922-1.2931 1.625-0.03979 1.4927-0.07957 2.9855-0.11936 4.4782 1.345 0.11806 2.8115-0.44437 4.0273 0.36473 0.90538 0.44343 3.4268 1.7451 2.7705-0.20586 0.18725-1.1226 1.103-1.9204 1.7832-2.7723 1.2029-0.78264 2.3645-1.8619 3.9136-1.7312 1.3597-0.0764 2.8542-0.0268 3.9013 0.96591 1.8142 1.205 3.2821 2.835 4.452 4.6626 1.4914 2.1693 2.9305 4.3697 4.1935 6.6818 3.1862 5.5968 6.512 11.113 9.6224 16.753 2.6376 4.6891 5.3034 9.4338 6.9089 14.593 0.33153 1.7911 0.47392 3.949-0.98726 5.3028-1.3002 1.3504-3.1326 2.2878-5.0105 2.4328-1.2726 0.2033-2.2886-0.40822-3.3465-1.0176z" style="paint-order:markers stroke fill"/></g></g></svg>
