<svg width="438.074" height="435.841" viewBox="0 0 115.907 115.316" xmlns="http://www.w3.org/2000/svg"><path style="fill:#080808;fill-opacity:1;stroke-width:3.66501;stroke-linecap:round;stroke-linejoin:round" d="M114.88 153.378c-.003-.178 1.31-3.116 2.286-6.049.976-2.933 1.625-5.835 1.723-5.932.024-.023 2.091-1.661 2.313-1.821.124-.09.458-.374.762-.657.298-.278.582-.485.631-.456.048.029-.339 3.276-1.19 6.603-.852 3.326-2.184 6.686-2.294 6.822-.073.09-.861.584-1.775 1.074-1.285.689-1.758.847-2.023.81-.393-.053-.425-.087-.432-.394zm-9.01-11.092c.406-1.175.62-1.531 1.385-2.198.473-.412 1.143-.589 4.578-2.76 2.323-1.467 3.954-2.785 4.329-3.076.29-.226.867-.698 1.47-1.233.56-.495 1.047-.9 1.094-.877.089.042-.041 3.214-.15 3.443-.035.07-.675.64-1.44 1.23a49.843 49.843 0 0 1-6.352 4.172c-2.79 1.54-5.155 2.408-5.192 2.36-.038-.047.094-.525.279-1.06zm6.787 4.658c.364-1.01.673-1.9.734-1.98.095-.126 1.123-.734 2.09-1.318.975-.588 1.916-1.17 1.937-1.1.029.096-.226 1.257-.569 2.43-.346 1.187-.765 2.346-.875 2.49-.249.33-2.826 1.731-3.278 1.796-.14.02-.362-.082-.496-.225-.244-.261-.167-.366.457-2.093zm-2.971-2.618c.312-1.09.44-1.47.657-1.683.108-.106 3.447-1.876 6.573-4.179 3.127-2.302 5.972-5.128 6.062-5.157.146-.047-.048 3.46-.222 3.742-.063.101-.259.3-.44.444-.18.143-2.739 2.422-5.919 4.538-6.023 4.007-6.426 3.63-6.797 3.253-.092-.094-.053-.474.086-.958zm13.827-1.466c.24-1.183.377-2.037.436-2.384.057-.335.37-2.24.545-4.612.168-2.275.173-4.192.216-4.322.054-.167.846-1.12 1.574-2.017.737-.907 1.437-1.79 1.472-1.709.033.074.327 2.745.235 6.085-.172 6.255-.948 7.391-1.687 8.321-.504.636-3.036 2.728-3.15 2.647-.041-.028.14-.935.36-2.01zm-9.27-9.336c.09-1.22.176-1.525.732-2.424.308-.499.534-.682 1.682-1.779.734-.7 1.462-1.436 1.645-1.597.11-.097.222-.195.332-.294.052.529.095 1.063.127 1.602.07 1.148.012 1.716-.106 1.899-.11.167-1.094 1.12-2.172 2.026-1.058.889-2.15 1.675-2.235 1.69-.057.01-.05-.498-.005-1.123zm5.48-4.344c-.15-2.861-.564-5.296-.549-5.599.038-.761.32-1.547.799-2.261.914-1.363 1.164-1.798 1.258-1.782.062.01.93 2.684 1.381 5.627.452 2.942.473 6.11.416 6.22-.071.14-.83.96-1.636 1.735-.796.765-1.609 1.451-1.644 1.43-.034-.022.127-2.508-.024-5.37zm9.273 4.566c.023-1.022.058-1.961.113-2.081.064-.143 1.15-1.532 2.152-2.97 1.002-1.438 1.922-2.923 1.962-2.913.059.015.32 2 .313 2.478-.008.52-.18 1.244-.525 2.117-.274.691-.57 1.261-2.068 3.11-.962 1.188-1.843 2.111-1.906 2.12-.064.007-.065-.835-.042-1.861zm-4.555-5.837c-.077-.96-.153-1.812-.13-1.911.019-.08 1.964-2.686 3.61-5.755 1.9-3.544 2.717-6.11 3.142-7.2.228-.584.642-.954.933-.8.27.143 1.087 2.034 1.107 2.566.006.156-.121.649-.292 1.102-.486 1.293-1.75 4.39-3.932 7.906-1.974 3.18-4.206 5.767-4.245 5.794-.046.032-.115-.742-.193-1.702zm4.537 2.125c-.08-.426-.276-3.67-.26-3.718.042-.118 2.42-3.629 4.228-7.65 1.807-4.02 2.971-8.543 3.018-8.597.078-.088.957 1.89 1.13 2.619.16.666.094 2.082-.14 2.924-.102.367-1.455 4.24-3.585 8.08s-4.307 6.556-4.32 6.573c-.013.017-.044-.087-.071-.231zm-6.285-10.96c-.942-2.954-2.112-5.16-2.15-5.263-.057-.15.037-.42.337-1.203.568-1.49.723-1.859 1.18-1.873.343-.01.522-.032 1.92 2.825a36.226 36.226 0 0 1 2.306 6.066c.289 1.035.307 1.222.294 1.277-.024.097-.599 1.103-1.215 2.04-.616.936-1.27 1.803-1.293 1.787-.025-.017-.438-2.703-1.38-5.657zm3.896-1.705c-.417-1.188-.832-2.225-.855-2.355-.03-.171.1-.572.395-1.369.663-1.792.74-2.075 1.22-2.086.337-.007.46.052 1.187 1.682.424.951.735 1.852.74 1.996.005.137-.06.405-.147.598-.167.373-.393.938-.905 2.024-.428.907-.836 1.644-.871 1.668-.036.024-.348-.97-.764-2.158zm-59.196 48.079c.131-.1 2.907-.69 5.663-1.597 3.337-1.098 4.9-1.928 6.17-2.449a.72.72 0 0 1 .184-.062c.258.028 2.425.495 2.902.614.15.037.584.108 1 .156.407.048.751.128.76.185.009.049-2.111 1.48-4.845 2.816-3.455 1.617-7.833 2.83-8.032 2.824-.119-.004-1.008-.336-1.967-.775-1.344-.614-1.761-.903-1.892-1.134-.195-.346-.187-.391.057-.578zm3.473-13.74c1.152-.383 1.533-.43 2.492-.239.588.118 1.082.57 4.787 1.818.365.123.725.238 1.082.345 1.967.66 3.62.99 3.895 1.05.358.08 1.062.215 1.852.327.725.104 1.34.207 1.354.256.026.095-2.423 2.05-2.665 2.115-.075.02-.914-.1-1.844-.313a37.009 37.009 0 0 1-2.592-.69 37.55 37.55 0 0 1-4.494-1.605c-2.833-1.22-4.87-2.593-4.855-2.652.015-.058.466-.237.988-.411zm.331 8.15c1.018-.316 1.905-.613 2.005-.614.153 0 1.259.439 2.309.836 1.063.402 2.11.773 2.069.833-.058.084-1.128.608-2.268 1.058-1.154.456-2.33.824-2.514.825-.432.002-3.09-1.196-3.421-1.524-.1-.1-.152-.336-.118-.528.063-.354.193-.344 1.938-.886zm.293-3.917c1.04-.409 1.404-.541 1.702-.5.13.018 2.784 1.266 6.035 2.176 4.038 1.178 8.914 1.551 9.004 1.605.13.079-2.644 2.224-2.973 2.276-.118.02-.396 0-.624-.044-.187-.036-2.536-.33-5.407-1.104a43.931 43.931 0 0 1-1.884-.555c-3.195-1.02-5.232-2.078-5.841-2.435-.82-.479-.852-.66-.813-.913.019-.129.341-.325.801-.506zm9.76 9.897c1.083-.576 1.85-1.034 2.151-1.21a45.394 45.394 0 0 0 3.896-2.593c1.837-1.363 3.27-2.625 3.396-2.68.16-.068 1.4-.109 2.551-.16 1.167-.052 2.292-.117 2.255-.037-.033.073-1.819 2.068-4.406 4.206-4.825 3.988-6.337 4.141-7.51 4.186-.831.031-4.156-.551-4.166-.692-.003-.05.842-.493 1.833-1.02zm1.203-13.09c.96-.71 1.22-.834 2.236-.992.575-.09.819-.032 2.376.113.987.092 2.004.15 2.242.18l.434.053c-.355.39-.72.774-1.095 1.153-.8.808-1.258 1.136-1.469 1.166-.196.028-1.534-.088-2.892-.325-1.331-.231-2.594-.575-2.658-.632-.043-.039.338-.355.826-.716zm6.714 1.325c2.013-2 3.541-3.944 3.777-4.137.592-.483 1.367-.803 2.227-.928 1.638-.237 2.141-.34 2.192-.26.033.054-1.42 2.506-3.31 4.808-1.891 2.303-4.232 4.41-4.352 4.44-.152.039-1.262.012-2.368-.087-1.091-.098-2.132-.267-2.138-.308-.006-.04 1.958-1.528 3.972-3.528zm2.71 9.938c.787-.657 1.516-1.252 1.642-1.291.15-.047 1.915-.158 3.658-.362 1.743-.204 3.461-.497 3.48-.46.029.053-1.277 1.561-1.639 1.872-.393.338-1.05.69-1.933 1.009-.698.252-1.328.41-3.718.516-1.537.067-2.824.017-2.872-.025-.049-.042.592-.599 1.382-1.259zm1.348-7.263c.664-.696 1.248-1.32 1.337-1.37.072-.039 3.312-.336 6.715-1.132 3.922-.916 6.419-1.945 7.509-2.312.591-.2 1.135-.115 1.204.207.063.292-.84 2.134-1.222 2.488-.113.104-.565.324-1.016.487-1.247.45-4.475 1.528-8.518 2.223-3.692.634-7.102.694-7.149.682-.054-.013.477-.577 1.14-1.273zm1.43 4.794c.263-.338 2.563-2.645 2.605-2.662.115-.048 4.326-.619 8.517-1.872 4.19-1.253 8.288-3.176 8.358-3.173.115.005-.795 1.915-1.223 2.507-.388.538-1.48 1.389-2.251 1.747-.337.157-4.078 1.608-8.35 2.538-4.272.93-7.761 1.12-7.782 1.121-.021.002.036-.091.126-.206zm4.036-12.01c1.63-2.688 2.632-5.05 2.689-5.147.079-.136.365-.254 1.188-.54 1.57-.547 1.976-.657 2.274-.318.227.258.318.373-1.025 3.315-2.905 6.367-3.827 6.782-3.927 6.834-.09.046-1.23.285-2.342.45-1.113.164-2.196.256-2.2.228-.004-.03 1.714-2.133 3.343-4.821zm3.884 1.804c.633-1.1 1.164-2.097 1.25-2.2.111-.135.509-.301 1.318-.594 1.82-.66 2.097-.77 2.407-.411.224.259.246.38-.54 1.991-.458.939-.943 1.762-1.048 1.859-.101.093-.348.218-.551.278-.203.06-1.161.366-2.131.64-.97.274-1.798.455-1.839.444-.041-.01.501-.906 1.134-2.007zm-73.664-16.032c.174.033 2.768 1.932 5.433 3.486 2.666 1.553 5.375 2.774 5.45 2.89.02.032 1.202 2.381 1.316 2.636.062.14.274.525.489.88.211.35.357.67.317.713-.037.042-3.141-.997-6.22-2.508-3.079-1.51-6.085-3.51-6.196-3.646-.072-.09-.394-.964-.685-1.962-.41-1.402-.467-1.898-.378-2.15.134-.373.173-.398.474-.34zm12.654-6.492c1.061.628 1.362.903 1.857 1.778.306.54.336 1.216 1.778 5.003.971 2.553 1.95 4.438 2.158 4.857.164.33.513.993.917 1.696.375.65.675 1.213.644 1.255-.06.078-3.157-.7-3.36-.853-.062-.048-.493-.792-.918-1.661a49.604 49.604 0 0 1-2.811-7.046c-.942-3.025-1.294-5.485-1.24-5.512.055-.027.492.197.975.483zm-5.928 5.651c.909.562 1.716 1.044 1.782 1.12.102.117.488 1.244.863 2.306.379 1.072.759 2.111.686 2.118-.1.009-1.185-.475-2.262-1.049-1.09-.58-2.135-1.225-2.255-1.362-.273-.313-1.112-3.114-1.082-3.57.009-.14.154-.337.321-.438.305-.185.39-.086 1.947.875zm3.157-2.361c.999.524 1.344.723 1.508.978.081.126 1.135 3.731 2.764 7.258 1.63 3.528 3.823 6.907 3.833 7.002.016.154-3.387-.757-3.629-.986-.086-.081-.24-.314-.345-.521-.103-.206-1.82-3.183-3.248-6.721-2.706-6.7-2.242-7.003-1.798-7.288.11-.07.473.045.915.278zm-1.37 13.815c1.108.476 1.918.784 2.244.912.32.125 2.113.817 4.408 1.475 2.197.63 4.079 1.036 4.198 1.105.153.089.923 1.065 1.649 1.97.734.916 1.448 1.791 1.36 1.809-.079.016-2.76-.264-6.012-1.044-6.095-1.463-7.028-2.435-7.794-3.358-.518-.625-2.047-3.534-1.945-3.63.037-.034.886.329 1.893.761zm11.035-7.202c1.185.335 1.47.482 2.247 1.213.427.403.57.668 1.42 2.024.544.868 1.122 1.742 1.244 1.957.073.13.148.26.223.39a45.21 45.21 0 0 1-1.611-.215c-1.15-.174-1.698-.347-1.854-.503-.142-.14-.883-1.309-1.559-2.552-.663-1.221-1.22-2.45-1.217-2.536.002-.058.5.05 1.107.222zM51.637 145c2.857.455 5.36.591 5.658.674.747.208 1.467.663 2.071 1.3 1.153 1.213 1.524 1.563 1.488 1.651-.024.059-2.859.282-5.858.081-3-.2-6.12-.838-6.218-.918-.121-.098-.772-1.016-1.368-1.968-.589-.94-1.1-1.879-1.07-1.909.028-.03 2.439.634 5.297 1.09zm-6.425 8.162c.995.234 1.906.464 2.012.543.127.093 1.255 1.448 2.44 2.735 1.187 1.286 2.428 2.503 2.41 2.54-.028.054-2.018-.111-2.482-.22-.505-.117-1.173-.437-1.948-.958-.62-.416-1.102-.82-2.593-2.675-.956-1.19-1.674-2.244-1.668-2.308.005-.064.83.108 1.829.343zm6.69-3.25c.962.129 1.816.238 1.909.283.075.036 2.225 2.513 4.851 4.815 3.044 2.669 5.293 4.04 6.252 4.714.508.358.762.843.545 1.086-.2.224-2.215.577-2.729.475-.15-.03-.595-.265-.992-.533-1.126-.761-3.833-2.698-6.783-5.6-2.674-2.628-4.749-5.368-4.767-5.412-.022-.053.753.043 1.714.172zm-3.053 4.006c.442.011 3.644.503 3.696.535.106.066 3.027 3.154 6.5 5.809 3.472 2.654 7.488 4.802 7.527 4.86.065.094-2.028.489-2.764.492-.67.003-2.01-.375-2.761-.787-.328-.18-3.72-2.346-6.973-5.256-3.253-2.91-5.453-5.616-5.467-5.632-.014-.016.095-.025.242-.021zm12.138-3.75c3.12-.227 5.564-.792 5.674-.803.16-.016.405.144 1.102.638 1.322.938 1.641 1.188 1.545 1.628-.073.333-.094.489-3.21 1.128a41.27 41.27 0 0 1-6.463.794c-1.079.045-1.266.022-1.316-.003-.09-.046-.947-.835-1.732-1.648-.784-.813-1.497-1.646-1.477-1.665.022-.02 2.756.157 5.877-.07zm.786 4.204c1.256-.127 2.363-.279 2.496-.27.173.012.534.236 1.238.715 1.58 1.077 1.832 1.225 1.727 1.687-.075.329-.16.425-1.907.736-1.02.181-1.966.271-2.106.242-.134-.027-.378-.153-.545-.282-.167-.128-.971-.723-1.757-1.35-.785-.625-1.413-1.192-1.428-1.232-.015-.04 1.027-.119 2.282-.246zm-33.648-68c.074.16.05 3.386.354 6.457.304 3.07.928 5.962.879 6.09-.09.24-1.078 2.198-1.313 2.627-.074.135-.252.534-.405.922-.15.38-.315.692-.373.687-.055-.005-1.097-3.11-1.697-6.498-.6-3.388-.738-7.02-.693-7.19.03-.112.547-.89 1.182-1.714.891-1.156 1.26-1.494 1.514-1.568.38-.11.423-.093.552.187zm12.634 6.5c.1 1.222.05 1.618-.376 2.516-.261.554-.82.962-2.985 4.264-1.467 2.237-2.333 4.075-2.541 4.496-.161.324-.463.978-.762 1.712-.275.677-.525 1.247-.576 1.248-.099.002-1.398-2.864-1.4-3.114-.002-.078.322-.859.752-1.706a41.59 41.59 0 0 1 3.957-6.314c1.884-2.483 3.709-4.198 3.763-4.17.053.028.122.513.168 1.069zm-8.035-1.527c.074 1.063.155 1.995.132 2.092-.077.327-2.553 3.941-2.65 3.832-.065-.075-.315-1.229-.484-2.434-.17-1.219-.26-2.443-.218-2.62.094-.41 1.864-2.72 2.255-2.965.118-.074.362-.07.541.006.328.14.296.267.424 2.089zm3.749 1.185c.153 1.11.193 1.5.082 1.78-.055.138-2.364 3.052-4.191 6.415-1.827 3.364-3.105 7.171-3.173 7.238-.11.108-1.49-3.13-1.457-3.463.012-.118.102-.383.203-.592.1-.208 1.411-3.38 3.402-6.598 1.756-2.838 3.252-4.574 3.747-5.094.66-.692.843-.682 1.081-.587.121.049.238.409.306.901zM24.58 99.568c.276 1.18.516 2.017.61 2.356.088.32.616 2.207 1.5 4.42.728 1.826 1.311 3.01 1.637 3.723.07.151.11.246.114.274.028.171-.238 1.404-.463 2.542-.23 1.156-.429 2.272-.5 2.217-.06-.049-1.484-2.11-2.91-5.033l-.156-.336c-2.62-5.72-2.343-7.26-2.085-8.361.198-.844 1.54-3.825 1.743-3.789.048.01.258.914.51 1.987zm12.304 4.416c.463 1.114.522 1.394.44 2.42-.046.581-.159.8-.662 2.268-.18.526-.322.964-.459 1.395-.125.352-.216.617-.26.722-.056.135-.111.27-.165.406a34.18 34.18 0 0 1-.713-1.128l-.133-.212c-.606-.97-.816-1.502-.795-1.712.02-.2.454-1.462 1.008-2.72.543-1.232 1.172-2.374 1.242-2.422.047-.033.262.417.497.983zm-2.88 6.175c1.432 2.446 2.934 4.354 3.062 4.623.321.678.44 1.492.355 2.343-.163 1.622-.174 2.128-.264 2.16-.054.018-1.722-1.536-3.35-3.592-1.78-2.246-3.042-4.43-3.627-5.626-.103-.208-.159-.336-.159-.36 0-.16.301-1.236.674-2.288.366-1.037.788-2.002.83-1.997.04.004.962 2.233 2.424 4.645l.054.092zm-10.423.185c.46.945.871 1.812.88 1.946.01.16-.297 1.927-.495 3.69-.199 1.764-.294 3.52-.334 3.53-.085.022-1.23-1.603-1.463-2.054-.242-.468-.44-1.2-.551-2.15-.088-.741-.103-1.42.35-3.806.1-.525.204-1.008.305-1.433.217-.826.4-1.382.436-1.407.048-.034.355.589.737 1.407l.135.277zm6.791 3.112c.519.813.987 1.526 1.013 1.625.021.08-.461 3.295-.444 6.776.02 3.969.51 6.704.635 7.8.07.617-.126 1.13-.453 1.13-.3 0-1.9-1.27-2.165-1.721-.078-.133-.197-.622-.26-1.096a48.228 48.228 0 0 1-.305-8.798c.217-3.745.99-7.095 1.013-7.138.026-.05.448.608.966 1.422zm-5.025.24c.267.339 1.99 3.16 1.995 3.191.02.125-.387 4.374-.065 8.742.321 4.368 1.358 8.781 1.34 8.849-.028.111-1.702-1.183-2.19-1.728-.444-.496-1.046-1.746-1.234-2.581-.082-.364-.719-4.344-.687-8.743.032-4.4.665-7.882.669-7.903.003-.021.08.058.172.174zm10.746 6.695c2.232 2.152 4.302 3.593 4.385 3.668.114.104.165.402.267 1.252.194 1.625.22 2.037-.173 2.257-.298.167-.434.239-3.001-1.667-5.556-4.124-5.738-5.155-5.766-5.263-.025-.097 0-1.256.097-2.372.097-1.116.264-2.187.293-2.184.03.003 1.665 2.157 3.898 4.309zm-2.613 3.36c.93.85 1.783 1.573 1.865 1.678.107.137.182.556.294 1.401.254 1.902.309 2.192-.107 2.42-.297.163-.424.161-1.822-.94-.817-.642-1.513-1.287-1.585-1.41-.069-.12-.137-.386-.152-.596-.015-.21-.107-1.206-.163-2.207-.055-1.001-.048-1.844-.028-1.881.02-.038.768.685 1.698 1.535zm32.221-68.635c-.072.162-2.517 2.278-4.607 4.543-2.09 2.265-3.84 4.652-3.968 4.7-.023.009-2.582.685-2.842.741-.15.033-.569.16-.96.298-.385.135-.728.212-.762.165-.032-.045 1.615-2.863 3.74-5.55 2.127-2.686 4.747-5.193 4.905-5.272.104-.052 1.032-.181 2.076-.253 1.465-.1 1.967-.048 2.192.093.336.21.351.254.226.535zm3.502 13.728c-.832.884-1.153 1.11-2.098 1.394-.583.176-1.23.039-5.18.643-2.652.406-4.704.986-5.142 1.1-.355.093-1.068.299-1.834.553-.71.235-1.318.415-1.353.376-.064-.074 1.316-2.943 1.506-3.11.06-.052.871-.32 1.803-.557a45.607 45.607 0 0 1 7.403-1.258c3.117-.26 5.554-.033 5.569.028.014.058-.297.43-.674.831zm-4.176-7.004c-.744.762-1.385 1.442-1.472 1.49-.135.073-1.314.208-2.424.348-1.122.142-2.213.296-2.204.224.012-.1.71-1.054 1.497-1.981.797-.939 1.65-1.817 1.81-1.905.37-.202 3.273-.414 3.717-.284.134.04.293.223.355.408.113.34-.005.395-1.28 1.7zm1.604 3.582c-.722.853-.984 1.143-1.267 1.247-.14.05-3.844.292-7.606 1.152-3.762.861-7.51 2.33-7.605 2.32-.153-.016 1.426-3.157 1.699-3.347.097-.068.356-.172.58-.231.222-.06 3.48-1.134 7.217-1.785 7.08-1.233 7.27-.676 7.449-.182.044.122-.147.448-.467.826zm-13.15-4.24c-.694.979-1.165 1.71-1.356 2-.19.291-1.232 1.892-2.344 4.003-1.063 2.02-1.84 3.781-1.931 3.884-.118.132-1.23.689-2.266 1.217-1.046.533-2.05 1.055-2.05.966 0-.083.815-2.646 2.244-5.676 2.667-5.655 3.829-6.373 4.885-6.928.719-.378 3.886-1.274 3.959-1.154.025.042-.508.795-1.14 1.687zm4.768 12.226c-.562 1.089-.76 1.336-1.624 1.949-.478.338-.762.422-2.254.985-.956.36-1.927.754-2.16.83l-.427.142c.167-.514.345-1.027.533-1.54.4-1.093.679-1.595.861-1.716.167-.111 1.455-.603 2.8-1.011 1.32-.402 2.623-.693 2.707-.673.056.014-.15.478-.436 1.034zm-6.76 1.844c-1.017 2.713-1.66 5.157-1.802 5.434-.357.696-.952 1.316-1.705 1.786-1.434.895-1.859 1.19-1.938 1.136-.053-.036.326-2.887 1.134-5.8.808-2.911 2.06-5.838 2.157-5.918.121-.1 1.151-.552 2.201-.943 1.038-.386 2.057-.695 2.08-.661.023.034-1.108 2.253-2.126 4.966zm-6.697-7.94c-.432.926-.843 1.77-.942 1.858-.117.105-1.675.933-3.18 1.83-1.504.896-2.953 1.857-2.985 1.831-.048-.038.521-1.95.722-2.382.218-.469.668-1.056 1.337-1.707.536-.521 1.027-.907 3.153-1.987 1.36-.692 2.54-1.18 2.603-1.162.062.019-.275.79-.708 1.719zm1.832 7.213c-.322.917-.604 1.735-.666 1.817-.05.066-2.92 1.68-5.735 3.78-3.27 2.44-5.088 4.325-5.966 5.121-.46.418-.991.558-1.182.292-.174-.242-.084-2.292.124-2.77.062-.14.388-.523.735-.853.978-.928 3.468-3.172 6.919-5.462 3.134-2.08 6.239-3.564 6.286-3.573.056-.01-.194.73-.515 1.648zm-3.312-3.808c-.101.43-1.234 3.467-1.278 3.512-.086.091-3.716 2.326-7.05 5.154-3.334 2.829-6.3 6.242-6.364 6.267-.107.042-.041-2.078.112-2.794.14-.65.794-1.87 1.355-2.51.245-.28 3.08-3.109 6.607-5.68 3.527-2.573 6.627-4.18 6.646-4.19.019-.01.006.098-.028.24zm1.185 12.705c-.44 3.133-.438 5.681-.453 5.793-.02.161-.234.372-.88.957-1.228 1.11-1.553 1.368-1.96 1.177-.31-.145-.443-.203-.373-3.42s.485-5.756.62-6.545c.184-1.071.244-1.25.28-1.295.064-.08 1.02-.759 1.98-1.364.962-.605 1.926-1.138 1.94-1.113.016.025-.713 2.677-1.154 5.81zm-4.306-.104c-.144 1.264-.237 2.388-.275 2.517-.05.167-.349.476-.976 1.065-1.407 1.322-1.613 1.533-2.04 1.328-.308-.147-.377-.25-.298-2.033.047-1.04.163-1.99.221-2.12.056-.125.233-.338.395-.474.162-.136.92-.798 1.702-1.437.783-.64 1.472-1.138 1.515-1.145.042-.007-.1 1.035-.244 2.299zm73.347-17.652c-.173.04-3.322-.649-6.39-1.006-3.068-.356-6.03-.39-6.145-.466-.011-.008-2.07-1.703-2.258-1.872a11.075 11.075 0 0 0-.802-.603c-.334-.232-.597-.464-.578-.519.017-.052 3.265-.358 6.694-.21 3.43.147 6.998.768 7.154.847.103.053.75.722 1.417 1.515.938 1.115 1.19 1.545 1.208 1.81.027.396 0 .435-.3.504zm-9.04 11.057c-1.229-.163-1.617-.301-2.418-.916-.495-.38-.798-1.011-3.588-3.906-1.89-1.96-3.493-3.253-3.856-3.557-.28-.234-.853-.69-1.498-1.16-.595-.433-1.09-.816-1.079-.866.022-.096 3.117-.658 3.362-.6.076.017.762.517 1.493 1.136a46.489 46.489 0 0 1 5.339 5.322c2.05 2.404 3.377 4.562 3.338 4.61-.039.046-.533.011-1.093-.063zm3.19-7.58c-1.06-.153-1.993-.274-2.083-.318-.141-.067-.944-.948-1.71-1.77-.772-.832-1.534-1.63-1.47-1.665.089-.048 1.273-.037 2.49.058 1.229.096 2.447.27 2.611.348.375.177 2.267 2.409 2.423 2.84.048.132-.007.37-.12.53-.206.292-.325.237-2.14-.023zm-1.96 3.433c-1.126-.086-1.522-.134-1.774-.303-.125-.085-2.515-2.991-5.395-5.551-2.88-2.56-6.244-4.704-6.292-4.786-.078-.132 3.373-.7 3.686-.592.112.04.348.188.526.333.178.145 2.943 2.149 5.655 4.813 2.4 2.358 3.784 4.184 4.197 4.79.542.796.494.973.35 1.188-.073.109-.452.147-.952.108zM101.46 59.39c-1.207.01-2.07.056-2.42.071a49.26 49.26 0 0 0-4.617.447c-2.253.326-4.119.749-4.255.736-.173-.016-1.281-.572-2.322-1.077-1.053-.51-2.08-.988-2.009-1.042.065-.05 2.606-.954 5.893-1.594 6.129-1.194 7.469-.639 8.51-.127.731.36 3.317 2.394 3.262 2.522-.02.045-.945.054-2.042.064zm-7.129 10.97c-1.197.176-1.5.16-2.482-.18-.55-.191-.758-.363-2.062-1.229-.828-.55-1.693-1.083-1.888-1.223a37.209 37.209 0 0 0-.355-.252c.496-.175 1-.34 1.512-.494 1.089-.33 1.651-.4 1.851-.326.187.069 1.313.807 2.413 1.657 1.079.832 2.061 1.723 2.093 1.803.02.054-.471.155-1.082.244zm-5.343-4.345c-2.724.801-4.963 1.806-5.257 1.867-.739.153-1.557.08-2.356-.2-1.525-.536-2.01-.663-2.018-.759-.005-.063 2.364-1.617 5.104-2.766s5.81-1.875 5.93-1.845c.153.039 1.114.592 2.04 1.205.915.605 1.753 1.245 1.74 1.284-.014.038-2.458.414-5.183 1.214zm2.362-10.028c-1.005.201-1.934.375-2.063.349-.155-.031-1.765-.78-3.417-1.433-1.652-.652-3.345-1.21-3.345-1.251 0-.061 1.896-.773 2.37-.874.515-.11 1.272-.106 2.213.037.74.112 1.386.277 3.543 1.331 1.387.678 2.489 1.337 2.511 1.397.023.06-.803.243-1.812.444zm-4.652 5.744c-.915.298-1.723.574-1.825.575-.075 0-2.579-1.081-5.646-1.902-4.22-1.135-7.334-1.295-8.612-1.444-.618-.072-1.074-.376-.999-.695.07-.292 1.678-1.564 2.186-1.721.148-.046.655-.05 1.136-.004.856.085 3.327.369 6.289 1.118 4.482 1.18 9.037 3.456 9.08 3.495.042.037-.694.28-1.61.578zm1.023-4.903c-.383.167-3.544 1.11-3.58 1.107-.088-.01-2.118-.796-4.914-1.511a50.32 50.32 0 0 0-8.177-1.255c-2.524-.181-4.432-.138-4.472-.159-.103-.052 1.55-1.402 2.2-1.758.592-.325 1.962-.636 2.832-.633.373 0 3.694.195 7.617 1.067.395.098.794.201 1.194.311 4.334 1.188 7.49 2.701 7.51 2.71.019.008-.076.063-.21.121zm-9.173 8.77c-2.626 1.62-4.466 3.266-4.556 3.327-.125.085-.421.06-1.257-.048-1.598-.206-1.997-.27-2.123-.704-.095-.328-.15-.479 2.271-2.512 4.288-3.603 5.972-4.108 6.344-4.276a.412.412 0 0 1 .138-.047c.101-.001 1.227.31 2.288.68 1.06.371 2.056.798 2.046.824-.01.026-2.107.894-4.472 2.347-.225.132-.451.268-.679.409zm-2.629-3.395c-1.049.699-1.947 1.355-2.068 1.41-.157.07-.579.042-1.424-.048-1.899-.202-2.19-.206-2.318-.665-.09-.324-.063-.451 1.325-1.555.812-.646 1.604-1.173 1.742-1.214.131-.04.407-.044.616-.01.38.064 1.03.148 2.191.369.99.188 1.813.403 1.844.432.032.028-.859.582-1.908 1.28zm60.148 46.971c-.142-.112-1.647-3.063-3.38-5.649-1.731-2.586-3.662-4.82-3.68-4.957-.036-.253-.102-2.443-.1-2.93.002-.153-.032-.588-.081-1-.049-.404-.05-.754.003-.777.05-.022 2.438 2.19 4.588 4.888 2.15 2.697 4.013 5.893 4.055 6.068.027.116-.056 1.065-.226 2.116-.238 1.476-.41 1.963-.6 2.15-.286.282-.332.285-.579.091zm-14.314.04c-.643-1.015-.775-1.368-.81-2.344-.02-.598.304-1.185.645-5.11.228-2.622.113-4.747.098-5.181a30.557 30.557 0 0 0-.138-1.887c-.075-.734-.121-1.36-.076-1.385.086-.048 2.574 1.89 2.695 2.11.037.068.123.911.147 1.864a39.822 39.822 0 0 1-.488 7.424c-.501 3.054-1.38 5.362-1.44 5.362-.062 0-.342-.392-.633-.852zm7.883-2.36c-.565-.91-1.076-1.696-1.101-1.792-.04-.147.108-1.331.227-2.442.122-1.125.218-2.22.286-2.196.094.035.864.93 1.588 1.915.733.997 1.392 2.04 1.44 2.22.114.417-.36 3.302-.6 3.715-.07.123-.288.234-.485.249-.361.027-.384-.104-1.355-1.67zm-3.888.7c-.652-.905-.869-1.224-.9-1.523-.016-.147.652-3.785.655-7.616.003-3.83-.645-7.783-.616-7.873.047-.146 2.77 2.055 2.896 2.361.045.11.09.384.101.614.01.23.366 3.632.149 7.411-.412 7.158-1.068 7.225-1.596 7.279-.13.013-.4-.251-.689-.653zm7.145-11.83c-.802-.897-1.417-1.522-1.656-1.77a47.715 47.715 0 0 0-3.398-3.151c-1.741-1.465-3.296-2.584-3.377-2.695-.104-.142-.418-1.341-.721-2.459-.306-1.13-.612-2.218-.525-2.2.08.017 2.418 1.335 5.073 3.365 4.95 3.785 5.415 5.133 5.726 6.27.216.787.408 4.093.276 4.137-.047.015-.665-.68-1.398-1.498zm-12.912 1.965c-.93-.77-1.123-1.005-1.53-1.965-.227-.535-.242-.812-.474-2.371-.148-.995-.33-2.014-.356-2.256a42.45 42.45 0 0 0-.05-.44c.466.264.928.54 1.388.825.978.609 1.408.983 1.487 1.184.073.185.278 1.53.383 2.913.103 1.357.094 2.671.056 2.747-.026.051-.429-.244-.904-.637zm-.343-6.902c-2.427-1.537-4.684-2.644-4.926-2.837-.609-.485-1.096-1.187-1.405-2.014-.59-1.576-.796-2.052-.727-2.119.045-.044 2.77.894 5.449 2.265 2.68 1.372 5.27 3.19 5.327 3.302.071.139.298 1.233.457 2.334.158 1.088.24 2.14.202 2.156-.038.015-1.95-1.55-4.377-3.087zm9.112-4.88c-.813-.617-1.553-1.194-1.618-1.308-.078-.137-.567-1.831-1.137-3.488-.569-1.657-1.214-3.273-1.182-3.3.047-.039 1.799.91 2.18 1.196.413.31.894.872 1.393 1.663.398.63.678 1.196 1.295 3.5.396 1.476.627 2.734.597 2.79-.03.057-.712-.436-1.528-1.054zm-7.404.298c-.829-.5-1.57-.94-1.638-1.017-.054-.062-1.05-3.186-2.54-6.368-1.728-3.691-3.212-5.877-3.808-6.897-.315-.539-.342-1.089-.041-1.222.273-.12 2.265.388 2.69.69.124.09.433.488.684.895.703 1.14 2.405 4.062 3.942 7.893 1.4 3.488 2.212 6.817 2.211 6.864 0 .057-.671-.338-1.5-.838zm4.388-2.452c-.395-.186-3.135-1.92-3.168-1.968-.071-.103-1.522-4.107-3.611-7.953-2.089-3.847-4.804-7.461-4.816-7.53-.018-.114 2.04.387 2.709.684.606.27 1.664 1.162 2.172 1.842.223.298 2.405 3.658 4.202 7.639 1.798 3.98 2.735 7.342 2.741 7.363.006.02-.097-.015-.23-.077zm-12.662-1.41c-2.989-1.06-5.51-1.58-5.618-1.618-.155-.053-.321-.306-.77-1.064-.851-1.438-1.039-1.815-.767-2.175.207-.274.296-.386 3.455.345 6.835 1.58 7.452 2.386 7.524 2.473.065.078.538 1.15.937 2.212.399 1.061.724 2.108.698 2.118-.029.01-2.47-1.233-5.46-2.292zm.967-4.2c-1.212-.398-2.3-.718-2.418-.782-.155-.082-.4-.44-.85-1.176-1.016-1.655-1.18-1.905-.89-2.281.209-.273.323-.318 2.061.128 1.014.26 1.921.567 2.038.651.111.08.284.297.385.485.1.186.596 1.065 1.064 1.962.47.897.82 1.674.817 1.716-.002.043-.995-.305-2.207-.703z" transform="translate(-21.57 -52.619)"/></svg>