<?xml version="1.0" encoding="UTF-8"?>
<svg width="193.48mm" height="187.35mm" version="1.1" viewBox="0 0 193.48 187.35" xml:space="preserve" xmlns="http://www.w3.org/2000/svg"><g transform="translate(-6.4921 16.5)"><path class="UnoptimicedTransforms" d="m129.38 130.99c0.43762-0.15924 3.985-0.97508 8.1681-2.5667 4.5939-1.748 8.5528-3.8446 12.011-6.0736 2.1575-1.3812 3.5393-2.429 3.5347-2.3741-0.0166 0.19753-1.1995 2.8997-1.6072 3.6033-0.0587 0.10136-0.14916 0.27986-0.24886 0.48538-0.10445 0.21604-0.22607 0.47643-0.32592 0.70028-0.19863 0.44527-0.53798 0.96428-0.75862 1.1672-0.20809 0.19138-6.7302 4.1986-13.637 6.5334-6.9068 2.3348-13.918 3.0498-14.034 3.0099-0.0737-0.0254 0.68876-0.65697 1.6519-1.4337 1.4183-1.1438 1.9037-1.5173 2.8232-1.9804 1.3185-0.6641 1.2803-0.6554 2.4222-1.0709zm35.407-50.499c0.76044-2.7203 0.95176-3.3212 1.5101-3.09 0.35327 0.14626 1.0356 0.8844 2.392 7.0935 0.90232 4.1306 1.158 7.6141 1.2014 8.3146 0.0513 0.8284 0.1097 1.5553 0.16825 3.0357 0.0464 1.1721-0.015 2.3251-0.10342 2.5926-0.0966 0.29204-1.0994 2.1401-2.2786 3.9892-1.1521 1.8067-2.4008 3.4777-2.4984 3.533-0.0609 0.0344 0.0548-1.1388 0.18867-2.5957 0.17976-1.9569 0.48682-6.196 3e-3 -11.373-0.43828-4.6883-1.358-8.4624-1.3262-8.7346 0.028-0.24146 0.39918-1.5337 0.7435-2.7654zm-12.201 33.999c1.76-1.4842 3.1876-2.8527 3.2639-2.8784 0.12864-0.0434-0.20865 1.428-0.71119 2.9632-0.50894 1.5547-1.1631 3.1088-1.3855 3.3401-0.39069 0.40623-2.537 2.118-4.9452 3.6686-2.0793 1.3498-4.102 2.4071-4.226 2.4174-0.25496 0.0211 1.5233-3.3368 2.1121-4.1113 0.0478-0.0629 0.11973-0.1487 0.20938-0.25141 0.28168-0.31958 0.86447-0.94217 1.311-1.4068 1.6766-1.7439 0.70772-0.65169 4.3715-3.7414zm8.8853-15.8c1.4542-2.3365 1.8688-3.1185 2.0135-3.0716 0.0748 0.02426 0.30145 5.4066-0.53324 11.057-0.8347 5.6504-2.8017 11.424-2.9819 11.716-0.16734 0.27186-1.7735 1.7886-3.519 3.1942-1.7144 1.3806-3.4717 2.5646-3.5359 2.5192-0.0453-0.0322 0.0734-0.33293 0.25916-0.66941 0.18586-0.3367 2.32-4.735 3.7694-9.8436 1.1203-3.9488 1.8114-8.2506 1.9473-8.9363 0.32473-1.6388 0.55675-2.1769 1.0784-3.3451 0.23391-0.5238 0.86504-1.5968 1.5023-2.6207zm-25.577 35.629c2.4549-0.78361 4.2891-1.5249 4.9713-1.7994 0.62989-0.25347 4.7031-1.8689 9.4107-4.7153 1.0105-0.611 1.958-1.2186 2.8448-1.8145 3.1207-2.0947 5.2739-3.9073 5.3654-3.9372 0.15046-0.0492-0.31317 1.2439-0.98424 2.6974-0.69404 1.5033-1.5294 3.0072-2.0099 3.662-0.0828 0.1126-0.1496 0.19123-0.19567 0.22861-0.24706 0.20039-5.8987 4.1392-13.057 7.0559-6.4776 2.6392-11.422 3.5354-12.758 3.7291-1.9195 0.27813-2 0.0573-1.8643-0.36496 0.1014-0.31549 3.2334-3.1454 3.7493-3.3813 0.22369-0.10229 2.2705-0.63974 4.528-1.3603zm35.471-51.507c0.86129-3.0109 1.0182-3.5924 1.601-3.5736 0.2967 0.0096 0.55316 0.48618 1.1709 2.9889 0.42763 1.7324 0.7169 3.4002 0.77753 3.9989 0.032 0.31603 0.0618 0.63277 0.0894 0.95018-0.47553 1.4263-0.99561 2.8289-1.5576 4.2058-1.2029 2.947-1.8468 4.0067-1.9405 3.8947-0.0711-0.08492-0.19388-2.3026-0.4364-4.5217-0.24251-2.2191-0.60947-4.4328-0.59861-4.7403 7e-3 -0.18932 0.44847-1.644 0.89439-3.2028zm1.0028 13.405c3.4289-6.918 5.1566-13.756 5.3597-14.252 0.49927-1.2194 0.98724-1.1986 1.3572 0.30456 0.67229 2.7319 0.77027 3.9086 0.71062 4.3712-0.0232 0.17985-0.63031 2.3551-1.7949 5.3677-1.2221 3.1613-2.8554 6.6953-5.0212 10.376-4.1712 7.0888-9.6438 12.81-9.6952 12.776-0.0582-0.0381 0.37483-1.6773 0.76139-3.352 0.38655-1.6746 0.72362-3.3839 0.82362-3.5727 0.0983-0.18527 4.07-5.1006 7.4988-12.019zm-33.803 41.933c2.2291-0.75514 4.0555-1.4587 4.0877-1.4077 0.037 0.0588-1.4902 1.9071-3.2275 3.6874-1.7373 1.7803-3.6842 3.479-3.8937 3.576-0.30999 0.14359-5.077 1.2979-5.9389 1.4109-0.9395 0.12312-1.4845-0.0204-1.6108-0.39087-0.11867-0.34425 0.24577-0.56887 2.8283-2.7096 1.5613-1.2942 3.0222-2.5624 3.2401-2.6795 0.2443-0.13133 2.2856-0.73144 4.5148-1.4866zm26.822-22.832c1.6684-1.8204 3.0092-3.4533 3.0901-3.4938 0.0613-0.0307-0.78133 4.4829-2.5176 9.4499-1.9162 5.4816-4.2223 9.8205-5.5988 12.11-0.12724 0.21025-0.22998 0.37467-0.30107 0.48382-0.69049 1.0601-2.2963 2.7343-3.7673 3.8716-0.6307 0.48768-2.1118 1.4145-3.6687 2.2612-1.5164 0.82456-2.9305 1.476-3.1614 1.4982-0.13908 0.0132 0.11953-0.43204 0.55919-0.99294 1.146-1.4621 4.1149-5.1955 7.0617-10.47 3.0466-5.4717 4.9847-11.142 5.051-11.268 0.074-0.1402 1.5846-1.6302 3.253-3.4506zm-18.877 19.631c0.71838-0.38485 2.6809-1.3696 4.4379-2.3516s3.3122-1.9451 3.3415-1.9131c0.039 0.0427-3.1843 5.5348-7.5457 10.579-4.3615 5.0437-9.813 9.4983-10.065 9.6312-0.22079 0.11657-1.6613 0.52664-3.2588 0.88867-1.641 0.37187-3.226 0.64532-3.9374 0.71345-1.1644 0.11152-1.5939-0.3835-0.93358-0.9529 0.30031-0.25898 5.0304-3.4918 9.618-7.8216 4.5876-4.3298 7.5793-8.3296 7.5973-8.3531 0.018-0.0236 0.35438-0.21004 0.74557-0.41963zm32.3-40.727c3.5694-8.4931 4.8198-16.614 4.8812-16.899 0.0792-0.36796 0.26863-0.04518 0.70145 1.5854 0.77807 2.934 0.88591 4.5619 0.59627 7.0706-0.11379 0.98557-0.22413 1.7278-0.6549 3.2064-0.3462 1.1882-1.3471 4.3461-3.2196 8.4687-3.9709 8.7424-8.6351 14.592-9.8843 16.155-1.8536 2.3179-2.1834 2.5874-2.2072 2.5728-0.0427-0.0262 0.43579-1.8506 0.84419-3.7001 0.40839-1.8495 0.74482-3.7225 0.81577-3.8584 0.075-0.14305 4.5577-6.1077 8.1271-14.601zm-6.2073 19.488c2.2041-2.8482 3.9308-5.5201 4.0813-5.6975 0.18049-0.21282 0.21168 0.30121 7.6e-4 1.7626-0.4467 3.0952-0.86119 4.265-2.121 6.4933-0.8445 1.4938-1.5497 2.6597-4.7611 5.9951-2.0374 2.1161-3.9162 3.744-4.0406 3.7945-0.125 0.0507-0.0958-0.1933 0.0591-0.54055 0.19096-0.42799 0.76407-1.818 1.3444-3.4545 0.55144-1.5551 1.0088-2.9553 1.0917-3.1063 0.083-0.15109 2.1414-2.3983 4.3455-5.2465zm-113.55 4.6502c0.09726 0.11738 0.33995 0.47546 0.73608 1.045 1.8374 2.6681 4.7261 6.5525 9.3578 10.834 4.1344 3.8215 8.4305 6.6331 8.339 6.6566-0.29941 0.0771-3.0347-0.14704-3.9549-0.31676-0.22755-0.042-0.8439-0.10745-1.3148-0.1436-0.48726-0.0374-1.0927-0.18201-1.3589-0.32105-0.15245-0.0796-2.4647-1.8138-5.2448-4.4812-2.9672-2.847-5.793-6.1092-8.2574-9.7415-3.0213-4.4254-4.7556-8.3851-4.7552-8.4806 2.76e-4 -0.0775 0.84105 0.43143 1.883 1.0763 1.5396 0.95291 2.0372 1.2715 2.7757 1.9786 1.0631 1.0178 1.0204 0.96067 1.7943 1.8946zm59.828 16.942c2.8736-0.12297 3.5178-0.11634 3.462 0.48634-0.0352 0.38134-0.57987 1.2343-6.0999 4.4804-3.6909 2.1704-6.8688 3.5109-7.5422 3.7852-0.7725 0.31467-1.4386 0.60077-2.8261 1.1314-1.0966 0.41937-2.2086 0.73029-2.4908 0.73214-0.028 1.7e-4 -0.079-4e-3 -0.15034-0.0122-0.72518-0.0831-2.6416-0.43367-4.699-0.95575-1.9526-0.49548-3.7278-1.0812-3.8068-1.1519-0.0521-0.0467 1.097-0.31232 2.5206-0.65145 0.95704-0.22798 3.2321-0.78955 5.9853-1.7479 1.5872-0.55001 3.1897-1.1785 4.7972-1.8926 4.3176-1.9179 7.6685-3.988 7.9414-4.0438 0.24467-0.0501 1.6044-0.10407 2.9086-0.15988zm-36.351-0.68613c2.0008 1.1835 3.7692 2.0952 3.8187 2.1592 0.08344 0.10787-1.4265 0.2627-3.0518 0.28572-1.6445 0.0233-3.3411-0.0866-3.6336-0.22033-0.46755-0.21384-2.6492-1.5698-4.8451-3.2179-2.1177-1.5893-3.9985-3.2926-4.0538-3.4119-0.10802-0.23309 3.6795 0.31144 4.6171 0.61135 0.30715 0.0983 1.3132 0.52978 2.1037 0.88535 2.1152 0.95157 0.98824 0.50897 5.0447 2.9085zm17.903 3.3438c1.353 0.31726 2.2494 0.49719 2.8007 0.6306 0.53992 0.13195 0.75043 0.21579 0.75135 0.2911 2.2e-4 0.0183-0.26874 0.13689-0.75135 0.32412-2.214 0.86383-6.4302 2.2311-11.869 3.0362-4.9911 0.7389-9.8023 0.70004-10.099 0.63392-0.31059-0.0691-2.2737-1.0935-4.1812-2.2762-1.8748-1.1624-3.5862-2.4219-3.5651-2.4976 0.01507-0.0535 0.33916-0.0424 0.71977 0.0203 0.38083 0.0627 5.2574 0.61029 10.585 0.32864 4.1301-0.21833 8.4178-0.93465 9.1231-1.0266 1.6606-0.21639 2.2456-0.16853 3.5208-0.0481 0.57166 0.054 1.7912 0.30843 2.9646 0.58359zm-42.338-12.369c1.5572 2.0265 2.8969 3.5099 3.3807 4.0473 0.48235 0.5359 3.3404 3.7373 7.6617 7.228 4.1538 3.3555 8.1059 5.7123 8.1809 5.8105 0.10436 0.13666-1.5481 0.10876-3.3179-0.0788-1.7913-0.18981-3.6295-0.53329-3.9483-0.72634-0.27132-0.16436-5.8944-4.1308-11.088-9.8531-2.3239-2.5602-4.0292-4.8276-5.1775-6.4808h-1e-6c-3.918-5.6326-3.58-6.1015-2.9007-6.12 0.32016-9e-3 4.0345 1.9954 4.4182 2.3896 0.08855 0.091 0.41664 0.55842 0.913 1.2478 0.52173 0.72794 1.1296 1.5615 1.8783 2.5358zm60.597 16.697c3.1468-0.12017 3.751-0.14172 3.9112 0.41926 0.0816 0.28561-0.29898 0.67198-2.4913 2.0366-1.5159 0.94353-3.0126 1.7443-3.5604 1.9895-0.2901 0.12985-0.58146 0.25795-0.87408 0.3843-1.504-2e-3 -3.0003-0.0503-4.4858-0.14468-3.1794-0.20208-4.3904-0.47099-4.3142-0.59573 0.0578-0.0945 2.1205-0.92143 4.1517-1.8594 2.0312-0.93794 4.0261-1.9873 4.323-2.0741 0.18343-0.0537 1.7098-0.0935 3.3399-0.15573zm-12.429 5.2075c7.6559 1.0356 14.678 0.54469 15.211 0.58488 1.3129 0.099 1.4362 0.57152 0.13128 1.386-2.3817 1.4866-3.4496 1.9469-3.9119 2.0364-0.3162 0.0613-7.2442 0.272-14.459-0.95575-4.6828-0.80029-8.8345-1.993-12.347-3.2747-3.3301-1.215-5.4921-2.2768-5.4837-2.3098 0.01719-0.0674 1.709-0.18785 3.4199-0.36061 1.6839-0.17002 3.469-0.39617 3.65-0.36679 0.1789 0.0292 4.6023 1.6793 10.761 2.7841 0.97368 0.17473 1.9835 0.33478 3.0288 0.47618zm-50.861-18.089c1.4694 1.8381 2.7579 3.3119 2.721 3.3596-0.0331 0.0428-1.4116-0.42577-3.0921-1.1293-1.806-0.75607-3.534-1.5983-4.9111-2.3532-0.70978-0.39049-1.1932-0.68595-1.2634-0.75756-0.2403-0.24512-2.926-4.3702-3.3179-5.1482-0.42726-0.84814-0.47076-1.4108-0.16256-1.6515 0.28608-0.22502 0.61603 0.0516 3.4923 1.7784 1.7629 1.0584 3.4011 1.9726 3.6069 2.1584 0.07085 0.064 0.25911 0.30244 0.53778 0.66536 0.64565 0.84129 1.3104 1.7285 2.3891 3.078zm30.531 17.597c2.2598 0.99039 4.2343 1.7359 4.2986 1.7995 0.05155 0.051-5.0501 0.75813-10.666 0.66935-6.0788-0.0961-11.221-0.97909-12.823-1.3528-1.2188-0.28434-3.3281-1.217-4.8899-2.2047-1.2437-0.78653-5.6654-4.7169-5.8579-5.1193-0.06022-0.12615 0.44688-0.0359 1.1244 0.18445 2.0467 0.66566 6.8097 2.2363 13.266 3.208 5.7679 0.86816 11.099 0.83811 11.231 0.85862 0.15662 0.0242 2.0568 0.96657 4.3165 1.957zm-24.801-11.23c0.60812 0.54249 2.2069 2.0473 3.7289 3.3613 1.522 1.314 2.9522 2.4469 2.932 2.4853-0.02114 0.0403-3.8754-0.60889-8.5673-2.0894-5.1699-1.6314-9.7121-3.7084-13.462-5.7981-1.786-1.0044-2.9326-1.7474-3.0228-1.8309-0.34947-0.32337-3.3774-5.1103-3.9303-6.3131-0.49212-1.0706-0.16405-1.6378 0.59208-1.1967 0.32378 0.18888 4.4219 3.261 9.6194 6.0126 0.32946 0.17351 0.66247 0.34575 0.99908 0.51659 5.6512 2.8682 10.432 4.2876 10.461 4.2964 0.02834 9e-3 0.31898 0.26069 0.65015 0.5561zm49.079 17.193c9.1748 0.67827 17.179-0.59123 17.465-0.61839 0.37191-0.0353 0.12081 0.24217-1.2757 1.1466-2.5248 1.6343-4.0018 2.233-6.4591 2.74-0.9656 0.19922-1.6919 0.32499-3.2231 0.38057-1.2167 0.0442-4.5302 0.089-9.0195-0.36768-1.6057-0.16333-3.0973-0.36397-4.4652-0.58194-7.5086-1.2098-13.068-3.2683-14.596-3.8377-2.2339-0.83238-2.5464-1.0145-2.5407-1.0396 0.01108-0.0489 1.888-0.18565 3.7681-0.39344 1.88-0.2078 3.7608-0.4886 3.9121-0.46489 0.11584 0.0183 3.8537 1.2616 9.4561 2.201 2.1224 0.35359 4.4533 0.649 6.9771 0.83557zm-20.442 0.34883c3.3968 1.1711 6.4776 1.9547 6.6936 2.0406 0.25952 0.1032-0.2181 0.29654-1.6682 0.56395-3.0746 0.56701-4.3047 0.55008-6.8148 0.0752-1.6945-0.32061-2.9906-0.60683-7.1784-2.5586-2.6479-1.2341-4.7871-2.4679-4.8749-2.5686-0.08823-0.10112 0.15047-0.15436 0.5272-0.12284 0.46111 0.0386 1.9602 0.12125 3.6862 0.13405 1.6432 0.0122 3.1116-0.0101 3.2808 0.0193 0.16927 0.0294 2.9516 1.2459 6.3485 2.417zm-40.08-104.73c-0.34777 0.51889-4.4793 5.4311-7.5467 11.086s-4.9562 11.89-5.0119 11.799c-0.10388-0.16847-0.75528-3.0417-0.84467-3.8497-0.02516-0.22741-0.13993-0.8361-0.23988-1.2944-0.10373-0.47571-0.13806-1.0944-0.08071-1.3884 0.0541-0.27733 2.9281-7.3804 7.1066-13.342 4.1785-5.9614 9.4086-10.61 9.5249-10.645 0.0743-0.0221-0.17004 0.92968-0.48856 2.1157-0.47002 1.7502-0.63667 2.3271-1.1043 3.2398-0.67103 1.3096-0.63925 1.2702-1.3147 2.2781zm1.921 61.383c1.0336 2.6622 1.2361 3.2666 0.64955 3.4119-0.3711 0.092-1.351-0.12297-6.19-4.2922-3.2289-2.782-5.5291-5.3814-5.9976-5.9238-0.54586-0.63199-1.0287-1.1702-1.9758-2.3158-0.74802-0.90479-1.3984-1.8589-1.4904-2.1253-0.10001-0.29015-0.42392-2.3692-0.6061-4.5512-0.17808-2.1328-0.19411-4.2137-0.1498-4.3165 0.02766-0.06405 0.64391 0.93761 1.4189 2.1752 1.0515 1.679 3.3544 5.1938 6.8989 9.0449 3.199 3.4756 6.2242 5.9678 6.3639 6.2069 0.12509 0.21392 0.60959 1.4782 1.0784 2.6859zm-10.808-34.406c-0.13502 0.57139-0.25437 1.1094-0.36149 1.6164-0.31975 1.4663-0.50756 2.5523-0.54168 2.6012-0.07428 0.10653-0.63963-1.1523-1.1337-2.6012-0.55057-1.5895-0.98407-3.3299-0.9407-3.6643 0.06661-0.51365 0.71166-2.9509 1.6594-5.5113 0.91074-2.4605 2.0134-4.7303 2.1121-4.8164 0.19297-0.16823 0.74666 3.5876 0.72895 4.5595-0.0058 0.31472-0.12945 1.3956-0.23906 2.238-0.31884 2.449-0.17614 0.89058-1.2838 5.5781zm2.3946 17.821c0.26168 2.7328 0.40847 3.6086 0.26491 3.659-0.0697 0.02448-3.1316-3.6008-5.7642-8.1936-2.8887-5.0396-4.5021-9.6709-5.061-11.67-0.05406-0.19293-0.08405-0.31647-0.08768-0.35784-0.0282-0.32149 0.35736-2.4879 0.92732-4.6552 0.55905-2.1258 1.271-4.1192 1.3495-4.1208 0.05548-9.53e-4 0.13827 0.31133 0.18836 0.69206 0.04726 0.35923 0.70675 4.1248 2.2168 8.4418v1e-6c0.19145 0.55383 0.3946 1.1131 0.61008 1.677 1.4623 3.827 3.4859 7.6049 3.8002 8.248 0.73039 1.4943 0.86932 2.0539 1.1619 3.2959 0.1306 0.55436 0.2791 1.7876 0.39367 2.984zm-0.72285-43.648c-1.5122 2.0792-2.5529 3.7681-2.9381 4.3911-0.36093 0.58376-2.6758 4.2874-4.7798 9.3786-2.0357 4.9258-3.1221 9.3921-3.1937 9.4927-0.09967 0.13995-0.5607-1.4464-0.89554-3.195-0.33913-1.771-0.53734-3.631-0.44353-3.9933 0.07963-0.30748 2.2823-6.8316 6.3209-13.428 3.6605-5.9786 7.1136-9.5955 8.085-10.542 1.3864-1.3513 1.5815-1.2185 1.7202-0.79773 0.10194 0.3094-0.75746 4.4398-1.0315 4.9291-0.11985 0.21398-1.4518 1.8508-2.8438 3.7647zm2.4711 62.316c1.1253 2.9349 1.3437 3.497 0.86535 3.8306-0.24355 0.16986-0.73273-0.0619-2.7316-1.695-1.3826-1.1296-2.6214-2.289-3.0301-2.7296-0.21621-0.23307-0.43116-0.46796-0.64481-0.70464-0.48122-1.4255-0.91465-2.8589-1.3005-4.2968-0.82574-3.0774-0.95745-4.3107-0.81492-4.2784 0.10806 0.0245 1.551 1.7151 3.0894 3.3389 1.5384 1.6238 3.1709 3.1744 3.3482 3.4273 0.10954 0.15621 0.636 1.5873 1.2189 3.1075zm-8.9125-10.099c1.4654 7.5842 4.1949 14.084 4.3296 14.602 0.33178 1.2746-0.07352 1.547-1.2692 0.57186-2.1784-1.7766-2.9615-2.6471-3.1941-3.0546-0.17944-0.31424-3.114-8.4871-4.0901-16.654-0.97611-8.1669-0.04551-16.024 0.01573-16.028 0.06935-0.0044 0.70554 1.5653 1.4036 3.1321 0.69811 1.5667 1.4599 3.1287 1.4941 3.339 0.03341 0.20652-0.15514 6.5079 1.3103 14.092zm2.0195-53.727c-1.3507 1.9288-2.4052 3.5798-2.4614 3.5577-0.06469-0.02539 0.06956-2.4213 0.41804-4.8873 0.34847-2.466 0.92038-4.9905 1.0325-5.1928 0.16599-0.29938 3.3451-4.0468 3.9773-4.6454 0.68918-0.65261 1.2154-0.85625 1.5347-0.63035 0.2979 0.2092 0.13021 0.60486-0.69898 3.8557-0.50822 1.9925-0.91881 3.824-1.0385 4.0742-0.11967 0.25017-1.413 1.9394-2.7637 3.8682zm-8.0024 34.299c-0.23998 2.4586-0.3233 4.5703-0.36337 4.6514-0.03216 0.06512-2.3209-4.5588-3.9421-9.9979-1.7262-5.8611-2.3496-11.118-2.4482-12.748-0.07625-1.2614 0.217-3.5591 0.72314-5.3486 0.40249-1.4231 2.9302-6.7889 3.2625-7.087 0.10421-0.09337 0.16005 0.41939 0.13896 1.1328-0.05119 1.7315-0.217 6.2284 0.45501 11.927 0.67687 5.7403 1.8775 9.972 2.5235 12.124 0.11542 0.38345 0.1835 0.6052 0.1876 0.63159 0.0244 0.15684-0.297 2.2564-0.53698 4.7149zm3.4974-27.006c-0.35008 0.73655-1.3456 2.6952-2.176 4.5286-0.83046 1.8334-1.5087 3.5303-1.5512 3.522-0.05668-0.01118-0.73209-6.3411-0.20763-13 0.52446-6.6592 2.3179-13.5 2.4439-13.757 0.20846-0.42511 3.9145-4.6831 4.9068-5.5578 0.88344-0.77871 1.5212-0.62818 1.3166 0.22269-0.09314 0.38732-2.0512 5.8018-3.2012 12.017-1.1499 6.2155-1.1793 11.215-1.1798 11.244-5.29e-4 0.02971-0.16077 0.37961-0.3514 0.78071zm-1.4367 51.925c2.291 8.9162 6.1224 16.113 6.2426 16.376 0.15558 0.34064-0.18892 0.1947-1.5052-0.83996-2.3739-1.8668-3.4281-3.0851-4.7035-5.2537-0.50104-0.85199-0.85693-1.5046-1.4028-2.9395-0.43644-1.1472-1.5418-4.2681-2.5422-8.6752-2.1348-9.4043-1.9568-16.809-1.9019-18.859 0.07969-2.9733 0.18304-3.3888 0.21079-3.3914 0.04982-0.0047 0.76502 1.7458 1.5543 3.4699 0.78923 1.7241 1.6527 3.42 1.6783 3.5712 0.02674 0.15931 0.07864 7.6259 2.3696 16.542zm-6.8466-19.284c-0.0378 3.6106 0.20597 6.7875 0.19358 7.0201-0.01483 0.27863-0.35059-0.11131-1.0662-1.4057-1.5138-2.7383-1.8925-3.9338-2.2316-6.4783-0.22568-1.6933-0.37145-3.0868 0.19294-7.6973 0.10648-0.86992 0.22437-1.6815 0.34502-2.4205 0.29613-1.7582 0.58567-2.9929 0.63523-3.0742 0.07051-0.1157 0.19175 0.09884 0.27316 0.47196 0.06948 0.31851 0.32219 1.3558 0.67893 2.6023 0.09518 0.32759 0.19468 0.65994 0.29827 0.99533 0.49005 1.5867 0.96509 2.9874 0.98951 3.1587 0.02441 0.17139-0.27107 3.217-0.30887 6.8276zm89-69.58c-0.54492-0.1471-5.4182-2.1026-11.03-3.2404v-1e-6c-6.867-1.4079-14.829-1.2704-14.752-1.36 0.20086-0.23583 2.5648-1.625 3.4154-2.0155 0.21005-0.09642 0.75197-0.39732 1.1578-0.63837 0.42004-0.24949 0.99826-0.47904 1.296-0.5182 0.19956-0.02625 4.1294 0.10658 8.8832 1.0105v0c4.6248 0.87368 8.9851 2.24 12.969 3.9324 3.7078 1.5752 6.2311 3.0652 6.2771 3.129 0.0456 0.06321-0.94146 0.14064-2.1757 0.2215-1.818 0.1191-2.4283 0.14543-3.4464-0.0046-1.4606-0.21529-1.421-0.19969-2.5942-0.51636zm-58.66 20.435c-2.2447 1.7477-2.7668 2.1204-3.0751 1.6006-0.19509-0.32887-0.27758-1.3401 2.3201-7.1481 0.37283-0.8336 0.75405-1.6336 1.1391-2.3994v-1e-6c1.3247-2.646 2.605-4.6696 2.8265-5.0129 0.45012-0.69737 0.83457-1.3174 1.6657-2.5436 0.65798-0.9707 1.3914-1.8623 1.6211-2.0251 0.25098-0.17773 2.1537-1.0702 4.199-1.8611 1.9985-0.77278 3.9949-1.382 4.1064-1.3689 0.06947 0.0082-0.7186 0.88598-1.6902 1.9809-1.2957 1.4601-4.0774 4.7131-6.7495 9.1593-1.1389 1.895-2.021 3.5732-2.7218 4.9983-0.80466 1.6217-1.2868 2.7198-1.3884 2.8284-0.1659 0.17736-1.2366 1.0004-2.2528 1.7916zm30.068-20.269c-2.3168 0.18379-4.2885 0.45665-4.3658 0.43284-0.13037-0.04017 1.0157-1.0361 2.3313-1.9905 1.3313-0.96583 2.7812-1.8523 3.0973-1.9113 0.50498-0.09414 3.0691-0.24095 5.8105-0.15424 2.644 0.08363 5.1582 0.40027 5.2718 0.46629 0.22196 0.12906-3.185 1.8567-4.123 2.1497-0.30668 0.09578-1.3775 0.32092-2.227 0.48427-2.2855 0.43933-1.0888 0.14962-5.7951 0.52297zm-16.592 7.5635c-2.56 1.0224-3.3567 1.4059-3.4453 1.2823-0.04581-0.0639 2.9703-4.5298 6.9922-8.5976 4.0219-4.0678 9.0053-7.5973 9.3232-7.7296 0.29362-0.12221 2.4888-0.415 4.7291-0.54556 2.202-0.12833 4.326-0.08222 4.3523-0.0081 0.01842 0.05242-0.25299 0.22974-0.60028 0.39736-0.34749 0.16772-4.6484 2.5255-8.8436 5.8231-3.2361 2.5436-6.3671 5.6226-6.8779 6.0902-1.2358 1.1312-1.7459 1.4301-2.8604 2.0634-0.50074 0.28456-1.6469 0.77626-2.7692 1.2245zm41.771-14.197c-2.4588-0.7686-4.384-1.2125-5.1011-1.3788-0.15877-0.03683-1.1867-0.27511-2.5159-0.52485-2.0267-0.38244-4.7059-0.7882-7.9075-1.005-5.3277-0.36072-9.9164-0.011224-10.034-0.048357-0.16401-0.051679 1.2033-0.98012 2.759-1.8452 1.5747-0.87568 3.2765-1.6521 3.6488-1.6775 0.27089-0.018464 5.3398-0.045875 11.534 1.0561v2e-7c1.0487 0.18666 2.1207 0.40274 3.2129 0.65162 6.8157 1.553 11.387 3.6734 12.584 4.2806 1.7295 0.87714 1.6682 1.1041 1.3142 1.3714-0.2637 0.19905-4.4542 0.71213-5.0102 0.60876-0.24167-0.04493-2.2237-0.78223-4.4839-1.4888zm-59.161 21.122c-2.4851 1.9154-2.96 2.2892-3.4172 1.9272-0.23278-0.1843-0.15294-0.71976 0.83684-3.1024 0.68578-1.6509 1.4406-3.1637 1.7482-3.684 0.16186-0.27377 0.32594-0.54682 0.49224-0.81912 0.23696-0.16706 0.47477-0.33242 0.7134-0.49608 1.0007-0.6858 2.0146-1.3414 3.0402-1.9671 2.7186-1.6585 3.8647-2.1287 3.8736-1.983 0.01063 0.17305-2.8074 4.6813-4.0108 6.9154-0.33484 0.61985-0.56772 1.0527-0.65224 1.1592-0.11708 0.14759-1.3384 1.0587-2.6243 2.0499zm7.1511-11.392c-2.8738 1.4787-5.3738 3.0044-7.524 4.4555-3.0099 2.0347-4.9849 3.6758-5.2545 3.8397-1.1255 0.68442-1.5043 0.37591-0.91202-1.0514 1.0783-2.5986 1.6949-3.6035 2.0189-3.9427 0.07235-0.07576 0.69651-0.56691 1.7355-1.3094 3.7178-2.6444 9.2591-5.9807 16.361-8.6176 6.3871-2.3713 12.081-3.3247 12.099-3.2756 0.02474 0.06501-1.2893 1.1373-2.5894 2.263-1.28 1.1083-2.6098 2.3191-2.7754 2.3994-0.18892 0.09148-6.2967 1.7074-13.16 5.239zm52.025-14.401c-2.2592-0.66271-4.1606-1.1346-4.1576-1.1949 3e-3 -0.069422 2.3169-0.70731 4.7636-1.166 2.4467-0.45867 5.0179-0.72787 5.2452-0.68671 0.33636 0.06092 4.9011 1.8607 5.671 2.2644 0.83925 0.44018 1.2023 0.87137 1.0923 1.2469-0.10114 0.3498-0.52849 0.32328-3.8727 0.58762-2.0212 0.15976-3.947 0.35695-4.192 0.32755-0.27539-0.033067-2.2904-0.71622-4.5496-1.3789zm-35.108 3.1362c-2.4176 0.49061-4.4607 1.0163-4.5498 1.0012-0.07149-0.0121 3.6917-3.5246 8.3348-6.6853 5.0297-3.4238 9.7395-5.6572 11.273-6.2756 1.1627-0.46902 3.4281-0.91956 5.2786-1.0094 1.5708-0.076258 5.1866 0.27213 7.1395 0.66611 0.32983 0.06715 0.55146 0.12477 0.61699 0.16182 0.0952 0.053934-0.17044 0.19809-0.61699 0.35725-0.12484 0.044715-0.26405 0.090733-0.41351 0.13633-2.0705 0.63168-6.8766 2.0782-12.725 5.0003-5.2214 2.6087-9.5615 5.7034-9.6815 5.7628-0.14201 0.07034-2.2382 0.3939-4.6558 0.8845zm26.756-5.0739c-0.81043-0.096-2.986-0.41197-4.9886-0.61378s-3.8255-0.30644-3.831-0.34947c-0.0064-0.049206 4.2054-2.0443 9.5391-3.6113 3.7337-1.0919 7.3775-1.8293 10.778-2.2957 3.2056-0.43972 5.57-0.55476 5.7314-0.53406 0.46772 0.059981 5.6683 2.1822 6.811 2.8334 1.0165 0.57926 1.0826 1.2312 0.21484 1.3167-0.39467 0.038852-6.1246-0.043382-12.373 0.86028-6.2484 0.90367-11 2.4682-11.029 2.4772-9e-3 0.00298-0.0573 6.062e-4 -0.13327-0.0058-0.15133-0.01272-0.42667-0.042703-0.71951-0.077382zm-50.042 14.12c-1.6748 0.99601-3.2442 2.0168-4.7113 3.0433l-1e-6 1e-6c-5.4693 3.8501-9.0657 7.4904-9.2375 7.6412-0.28114 0.24674-0.24141-0.12433 0.37169-1.6836 1.1061-2.8112 1.9763-4.1792 3.6965-6.0301 0.714-0.76823 1.2816-1.3402 2.7261-2.423h1e-6c1.0657-0.79213 3.6428-2.6175 7.3383-4.6749 8.363-4.6559 15.593-6.6259 17.499-7.1435 2.8556-0.77555 3.279-0.80107 3.2896-0.77527 0.01905 0.046325-1.4363 1.2382-2.8536 2.4891-1.4173 1.2509-2.7935 2.5611-2.9309 2.6286-0.1448 0.07092-7.2672 2.2176-15.188 6.9282zm16.519-12.001c-3.4486 0.99473-6.414 2.1208-6.6398 2.1744-0.27128 0.064444 0.0081-0.36774 1.0386-1.4187 2.1861-2.2295 3.198-2.9213 5.5223-3.9764 1.5694-0.71248 2.7906-1.2228 7.3376-2.0376 2.8748-0.51515 5.335-0.73817 5.4649-0.70638 0.13039 0.031886-0.03421 0.21285-0.36048 0.40399-0.39972 0.23413-1.6726 1.0293-3.0915 2.0127-1.3504 0.936-2.5379 1.7993-2.6931 1.8727-0.15526 0.07341-3.1299 0.6804-6.5786 1.6751zm94.821 61.783c-0.0344-0.61801 0.29046-6.9772-0.70763-13.339-0.99808-6.3618-3.2618-12.516-3.1626-12.477 0.29033 0.11459 2.357 1.8969 3.002 2.5793 0.15829 0.16748 0.61724 0.58418 0.97517 0.89078 0.37077 0.3176 0.77316 0.79144 0.90553 1.0609 0.12493 0.2543 2.1556 7.6702 2.4393 14.922 0.28373 7.2515-1.1472 14.039-1.2204 14.135-0.047 0.06184-0.41518-0.83994-0.86548-1.9675-0.66712-1.6705-0.87616-2.2136-1.0495-3.2192-0.24937-1.4468-0.24882-1.3726-0.31639-2.5847zm-38.485-48.307c-2.4223-1.5539-2.9444-1.9301-2.5519-2.3908 0.24835-0.29153 1.1836-0.67396 7.5699-0.15222 4.2667 0.34858 7.6465 1.0775 8.3519 1.2387 0.81958 0.18732 1.5169 0.33253 2.9638 0.69507 1.1384 0.28524 2.2276 0.6675 2.4596 0.82733 0.25189 0.17377 1.7468 1.6556 3.1875 3.3033 1.4088 1.6111 2.6564 3.2781 2.6817 3.3872 0.0157 0.06804-1.0748-0.37317-2.4326-0.90995-1.8499-0.73133-5.7707-2.1877-10.921-3.1964-4.6431-0.9094-8.5799-1.1471-8.8355-1.2586-0.22974-0.10008-1.3734-0.83824-2.4732-1.5438zm29.209 21.391c-0.91566-2.1168-1.8106-3.8742-1.8132-3.9546-4e-3 -0.1355 1.3049 0.60882 2.6298 1.533 1.3411 0.9355 2.6439 2.0135 2.8015 2.2931 0.25325 0.44932 1.2106 2.8118 2.0053 5.4348 0.76516 2.5256 1.2684 5.0075 1.2421 5.1361-0.0513 0.25142-2.7765-2.4189-3.353-3.2108-0.18819-0.25852-0.74323-1.1982-1.1681-1.9461-1.1708-2.0611-0.46085-0.93127-2.3444-5.2856zm-12.551-12.966c-1.8315-2.0471-2.4705-2.6655-2.3848-2.7911 0.0465-0.06827 5.8243 1.3786 11.229 3.9813v1e-6c4.886 2.3402 9.354 5.5841 9.5709 5.8281 0.21268 0.23925 1.2007 2.2133 2.0473 4.2914 0.83125 2.0404 1.468 4.0655 1.4063 4.1142-0.0437 0.03427-0.29865-0.16562-0.56872-0.44027-0.27023-0.27482-3.8823-3.5939-8.352-6.4499-3.2671-2.0876-6.2606-3.5203-7.3231-4.0551-2.019-1.0284-2.3977-1.3333-3.5392-2.3065-0.43274-0.36896-1.2842-1.2764-2.0855-2.1719zm26.879 34.633c-0.0532-2.5572-0.25097-4.5398-0.3219-5.2626-0.0689-0.70218-0.47208-5.0065-1.8856-10.363-1.3623-5.1624-3.1748-9.3917-3.1778-9.5152-4e-3 -0.17188 1.3168 0.82142 2.6372 2.0165 1.337 1.21 2.6186 2.5737 2.7623 2.9187 0.12209 0.29323 2.315 6.8274 3.0995 14.518 0.7133 6.992 0.1336 11.902-0.0779 13.259-0.29721 1.9071-0.53473 1.9171-0.8975 1.6646-0.26122-0.18182-2.0584-3.9909-2.1332-4.5366-0.0331-0.24175 0.0438-2.3402-5e-3 -4.6989zm-39.361-48.661c-2.6434-1.7128-3.1495-2.0433-2.9575-2.5942 0.0977-0.28049 0.63137-0.37714 3.2096-0.2312 1.7822 0.10087 3.468 0.30705 4.0564 0.42145 0.31193 0.06065 0.62389 0.12343 0.93585 0.18835 1.229 0.86641 2.425 1.7659 3.5862 2.6964 2.4853 1.9913 3.323 2.9049 3.1891 2.9633-0.10151 0.04426-2.2645-0.46185-4.4662-0.86123-2.2017-0.39939-4.4381-0.68869-4.7311-0.78842-0.18129-0.06172-1.4529-0.907-2.8224-1.7944zm13.164 2.8813c-5.6724-5.2356-11.693-8.8793-12.105-9.2189-1.0165-0.8367-0.84507-1.2939 0.69036-1.209 2.8026 0.15501 3.9395 0.3923 4.369 0.58506 0.23175 0.10394 3.9002 2.4625 7.9717 6.0158 4.4194 3.857 8.1228 8.0195 11.104 12.212 2.2921 3.2263 3.5903 5.6514 3.5625 5.6748-0.0945 0.07959-4.6389-2.5767-5.8851-3.3025-0.15643-0.09133-0.25935-0.15679-0.29343-0.19019-0.1495-0.14667-3.7419-5.3319-9.4143-10.568zm30.626 44.309c-0.0915-2.3505-0.25351-4.3023-0.19547-4.3188 0.0668-0.019 1.4113 1.9672 2.6243 4.1416 1.213 2.1744 2.279 4.5353 2.3116 4.7646 0.0264 0.18643 0.0116 1.4742-0.0714 2.8695-0.0853 1.4344-0.22739 2.758-0.30985 3.2417-0.15978 0.93724-0.45941 1.4161-0.85022 1.4261-0.36374 0.01065-0.46309-0.41111-1.7526-3.5058-0.79036-1.8968-1.5664-3.6021-1.6218-3.8733-0.0554-0.27126-0.043-2.3951-0.13454-4.7456zm-14.279-32.217c-1.2656-2.1216-2.4518-3.8749-2.4677-3.9641-0.0127-0.07157 4.5721 2.3099 9.0883 5.6843 4.8852 3.6501 8.534 7.4273 9.6057 8.6758 0.81965 0.95478 1.9724 2.9588 2.6496 4.6862 0.29007 0.74001 0.76339 2.4206 1.1385 4.153 0.3655 1.6879 0.59356 3.2306 0.54981 3.4593-0.0264 0.13749-0.38114-0.23671-0.79613-0.81708-1.2452-1.7415-4.1682-5.8651-8.8068-10.462-4.1516-4.1146-8.4965-7.2123-8.5919-7.3064-0.11294-0.11127-1.1038-1.9872-2.3694-4.1088zm13.445 23.689c-0.16791-0.79811-0.56313-2.9599-1.0119-4.9223s-0.93363-3.7243-0.89464-3.7433c0.052-0.02538 4.4206 4.5993 8.034 10.218s6.3111 12.188 6.3655 12.47c0.0478 0.24832 0.0239 1.7605-0.0971 3.4144-0.12454 1.7023-0.33143 3.3105-0.47868 4.0238-0.23999 1.1626-0.8414 1.4228-1.1873 0.61263-0.15757-0.36903-1.837-5.9177-4.6727-11.573-2.8357-5.6555-5.846-9.6427-5.8636-9.6666-0.0176-0.02395-0.10218-0.39939-0.19363-0.83401zm-29.884-42.523c-7.1072-5.8194-14.379-9.3944-14.629-9.5371-0.32445-0.18533 0.0408-0.26751 1.703-0.2031 3.005 0.11712 4.5555 0.47732 6.8548 1.4761 0.90362 0.39251 1.5686 0.70698 2.8513 1.5417 1.0219 0.66499 3.7476 2.5289 7.1533 5.4776 6.287 5.4434 10.172 10.528 11.774 12.709 2.6456 3.6199 2.8158 4.1698 2.7916 4.1913-0.046 0.04106-2.4885-1.4397-4.4499-2.4975v-1e-6c-1.225-0.65796-2.2521-1.1753-2.337-1.2571-0.11626-0.11236-4.6048-6.081-11.712-11.9zm16.951 11.45c-0.17573-0.24408-0.35066-0.48423-0.52475-0.72058-1.9248-2.5992-3.6914-4.6361-3.809-4.8144-0.15374-0.23291 0.34832-0.11861 1.6944 0.49692 1.9719 0.90169 3.0523 1.5376 4.0372 2.3537 0.48936 0.40872 1.0035 0.90125 1.6173 1.5389 1.1933 1.2395 2.1226 2.2641 4.3959 6.3014 1.443 2.5627 2.4585 4.8269 2.471 4.9604 0.0125 0.13414-0.21266 0.03629-0.50044-0.2116-0.353-0.30411-1.5219-1.2546-2.921-2.2808-1.3311-0.97635-2.542-1.8189-2.6631-1.9419-0.12104-0.1231-1.6822-2.7442-3.7975-5.6821z" fill="#010101" fill-rule="evenodd" style="paint-order:markers stroke fill"/></g></svg>
